<?xml version="1.0" encoding="UTF-8"?>
<svg xmlns="http://www.w3.org/2000/svg" xmlns:xlink="http://www.w3.org/1999/xlink" version="1.1" viewBox="0 0 1920 2160">
  <!-- Generator: Adobe Illustrator 29.1.0, SVG Export Plug-In . SVG Version: 2.1.0 Build 142)  -->
  <defs>
    <style>
      .st0 {
        fill: url(#Unbenannter_Verlauf_6);
      }

      .st1, .st2 {
        fill: #fff;
      }

      .st1, .st3 {
        opacity: .7;
      }

      .st4 {
        fill: #0e1018;
      }
    </style>
    <radialGradient id="Unbenannter_Verlauf_6" data-name="Unbenannter Verlauf 6" cx="960" cy="1102.4" fx="960" fy="1102.4" r="1033.6" gradientTransform="scale(1 1)" gradientUnits="userSpaceOnUse">
      <stop offset="0" stop-color="#15202b"/>
      <stop offset=".4" stop-color="#131b25"/>
      <stop offset=".8" stop-color="#0e1018"/>
    </radialGradient>
  </defs>
  <g id="Ebene_1">
    <image width="1920" height="2160" transform="translate(-5064)" xlink:href="../Documents/background.png"/>
  </g>
  <g id="Ebene_2">
    <rect class="st4" x="-3091.7" y="-30.3" width="1972.3" height="2264.8"/>
    <rect class="st0" width="1920" height="2160"/>
  </g>
  <g id="Ebene_5">
    <rect class="st2" x="-2995.5" y="2120.9" width="5.5" height="5.5"/>
    <rect class="st2" x="-2839.9" y="1927.1" width="5.5" height="5.5"/>
    <rect class="st2" x="-1250.9" y="1422.9" width="5.5" height="5.5"/>
    <rect class="st2" x="-2434.8" y="1924.3" width="5.5" height="5.5"/>
    <rect class="st2" x="-2842.6" y="1025.2" width="5.5" height="5.5"/>
    <rect class="st2" x="-2612.5" y="1582.4" width="5.5" height="5.5" transform="translate(-1024.5 4194.9) rotate(90)"/>
    <rect class="st2" x="-2992.7" y="1579.7" width="5.5" height="5.5" transform="translate(-1407.5 4572.4) rotate(90)"/>
    <rect class="st2" x="-2340.4" y="828" width="5.5" height="5.5" transform="translate(-3168.4 -1506.9) rotate(-90)"/>
    <rect class="st2" x="-1530.8" y="1077.2" width="5.5" height="5.5" transform="translate(-2608 -448) rotate(-90)"/>
    <rect class="st2" x="-1982.3" y="512.6" width="5.5" height="5.5" transform="translate(-2494.9 -1464.1) rotate(-90)"/>
    <rect class="st2" x="-2878.9" y="444.9" width="5.5" height="5.5"/>
    <rect class="st2" x="-2730.6" y="385.4" width="5.5" height="5.5"/>
    <rect class="st2" x="-1357.7" y="2091.4" width="5.5" height="5.5" transform="translate(-3449.2 739.3) rotate(-90)"/>
    <rect class="st2" x="-1979.5" y="2097" width="5.5" height="5.5" transform="translate(-4076.5 123) rotate(-90)"/>
    <rect class="st2" x="-1575.9" y="1864.1" width="5.5" height="5.5" transform="translate(-3440 293.7) rotate(-90)"/>
    <rect class="st2" x="-1896.2" y="1708.4" width="5.5" height="5.5"/>
    <rect class="st2" x="-2024.6" y="1136.8" width="5.5" height="5.5"/>
    <rect class="st2" x="-1354.9" y="502.1" width="5.5" height="5.5" transform="translate(-1857 -847.3) rotate(-90)"/>
    <rect class="st2" x="-1248.1" y="86.7" width="5.5" height="5.5" transform="translate(-1334.8 -1155.9) rotate(-90)"/>
    <rect class="st2" x="-1573.2" y="274.7" width="5.5" height="5.5" transform="translate(-1847.9 -1292.9) rotate(-90)"/>
    <rect class="st2" x="-1893.4" y="119" width="5.5" height="5.5"/>
    <rect class="st2" x="-2517.5" y="119" width="5.5" height="5.5"/>
    <rect class="st2" x="-4450" y="1330.9" width="3.5" height="3.5"/>
  </g>
  <g id="Ebene_6">
    <rect class="st2" x="-2456.9" y="1214" width="3.5" height="3.5"/>
    <rect class="st2" x="-2270.9" y="1653.1" width="3.5" height="3.5"/>
    <rect class="st2" x="-1815" y="1578.9" width="3.5" height="3.5"/>
    <rect class="st2" x="-2147.8" y="1995.1" width="3.5" height="3.5"/>
    <rect class="st2" x="-2371.5" y="2191.5" width="3.5" height="3.5"/>
    <rect class="st2" x="-1969.4" y="1325.3" width="3.5" height="3.5"/>
    <rect class="st2" x="-2067" y="996.8" width="3.5" height="3.5"/>
    <rect class="st2" x="-2235.5" y="1426.7" width="3.5" height="3.5"/>
    <rect class="st2" x="-2796.5" y="768.5" width="3.5" height="3.5"/>
    <rect class="st2" x="-2988.2" y="659.9" width="3.5" height="3.5"/>
    <rect class="st2" x="-2530.1" y="995.1" width="3.5" height="3.5"/>
    <rect class="st2" x="-2387.8" y="467.1" width="3.5" height="3.5"/>
    <rect class="st2" x="-2191.3" y="52.6" width="3.5" height="3.5"/>
    <rect class="st2" x="-2813" y="1479.5" width="3.5" height="3.5"/>
    <rect class="st2" x="-2726.8" y="1215.8" width="3.5" height="3.5"/>
    <rect class="st2" x="-2669.5" y="2124.7" width="3.5" height="3.5"/>
    <rect class="st2" x="-1611.6" y="195.9" width="3.5" height="3.5"/>
    <rect class="st2" x="-2147.8" y="273" width="3.5" height="3.5"/>
    <rect class="st2" x="-1737.5" y="432.9" width="3.5" height="3.5" transform="translate(-1301.1 2170.4) rotate(90)"/>
    <rect class="st2" x="-2934.3" y="115.5" width="3.5" height="3.5" transform="translate(-2815.3 3049.8) rotate(90)"/>
    <rect class="st2" x="-1967.6" y="766.7" width="3.5" height="3.5" transform="translate(-1197.4 2734.4) rotate(90)"/>
    <rect class="st2" x="-2277.9" y="560.9" width="3.5" height="3.5" transform="translate(-1713.4 2838.8) rotate(90)"/>
    <rect class="st2" x="-1750" y="868.8" width="3.5" height="3.5"/>
    <rect class="st2" x="-1241.7" y="278.5" width="3.5" height="3.5"/>
    <rect class="st2" x="-1579.4" y="427.2" width="3.5" height="3.5"/>
    <rect class="st2" x="-1467.5" y="1631.9" width="3.5" height="3.5"/>
    <rect class="st2" x="-1302" y="768.5" width="3.5" height="3.5"/>
    <rect class="st2" x="-1243.5" y="1604.4" width="3.5" height="3.5"/>
    <rect class="st2" x="-1601.2" y="2126.4" width="3.5" height="3.5"/>
    <rect class="st2" x="-1603" y="1327.1" width="3.5" height="3.5"/>
    <rect class="st2" x="-1305.6" y="1167.5" width="3.5" height="3.5"/>
    <rect class="st2" x="-2640.2" y="1798.4" width="3.5" height="3.5"/>
    <rect class="st2" x="-3047.5" y="1135.1" width="3.5" height="3.5"/>
    <rect class="st2" x="-4335.6" y="1010.5" width="2.2" height="2.2"/>
  </g>
  <g id="Ebene_7">
    <rect class="st2" x="-2910.3" y="1212.9" width="2.2" height="2.2"/>
    <rect class="st2" x="-2148.8" y="702.9" width="2.2" height="2.2"/>
    <rect class="st2" x="-2513" y="662.4" width="2.2" height="2.2"/>
    <rect class="st2" x="-2127.7" y="409.2" width="2.2" height="2.2"/>
    <rect class="st2" x="-1671.4" y="770.9" width="2.2" height="2.2"/>
    <rect class="st2" x="-1816.1" y="1346.7" width="2.2" height="2.2"/>
    <rect class="st2" x="-1694.2" y="1168.1" width="2.2" height="2.2"/>
    <rect class="st2" x="-2191.7" y="1577.8" width="2.2" height="2.2"/>
    <rect class="st2" x="-2458" y="1427.3" width="2.2" height="2.2"/>
    <rect class="st2" x="-2531.2" y="1891.9" width="2.2" height="2.2"/>
    <rect class="st2" x="-2840.9" y="2090.4" width="2.2" height="2.2"/>
    <rect class="st2" x="-2996.6" y="1892.9" width="2.2" height="2.2"/>
    <rect class="st2" x="-2106.7" y="2128.9" width="2.2" height="2.2"/>
    <rect class="st2" x="-1751.1" y="1868.6" width="2.2" height="2.2"/>
    <rect class="st2" x="-1241" y="2089.3" width="2.2" height="2.2"/>
    <rect class="st2" x="-1350.5" y="1778.1" width="2.2" height="2.2"/>
    <rect class="st2" x="-1479.6" y="2158.9" width="2.2" height="2.2"/>
    <g>
      <rect class="st2" x="-1316.3" y="1095.2" width="2.2" height="2.2" transform="translate(-2630.5 2192.6) rotate(180)"/>
      <rect class="st2" x="-2077.7" y="1605.2" width="2.2" height="2.2" transform="translate(-4153.3 3212.7) rotate(180)"/>
      <rect class="st2" x="-1713.6" y="1645.8" width="2.2" height="2.2" transform="translate(-3424.9 3293.7) rotate(180)"/>
      <rect class="st2" x="-2098.8" y="1899" width="2.2" height="2.2" transform="translate(-4195.5 3800.1) rotate(180)"/>
      <rect class="st2" x="-2555.1" y="1537.2" width="2.2" height="2.2" transform="translate(-5108.1 3076.6) rotate(180)"/>
      <rect class="st2" x="-2410.5" y="961.5" width="2.2" height="2.2" transform="translate(-4818.8 1925.1) rotate(180)"/>
      <rect class="st2" x="-2532.4" y="1140" width="2.2" height="2.2" transform="translate(-5062.6 2282.2) rotate(180)"/>
      <rect class="st2" x="-2034.9" y="730.3" width="2.2" height="2.2" transform="translate(-4067.6 1462.8) rotate(180)"/>
      <rect class="st2" x="-1768.6" y="880.8" width="2.2" height="2.2" transform="translate(-3535.1 1763.8) rotate(180)"/>
      <rect class="st2" x="-1695.4" y="416.3" width="2.2" height="2.2" transform="translate(-3388.6 834.7) rotate(180)"/>
      <rect class="st2" x="-1385.6" y="217.8" width="2.2" height="2.2" transform="translate(-2769.1 437.7) rotate(180)"/>
      <rect class="st2" x="-1230" y="415.2" width="2.2" height="2.2" transform="translate(-2457.8 832.6) rotate(180)"/>
      <rect class="st2" x="-2119.9" y="179.3" width="2.2" height="2.2" transform="translate(-4237.6 360.7) rotate(180)"/>
      <rect class="st2" x="-2475.5" y="439.6" width="2.2" height="2.2" transform="translate(-4948.8 881.3) rotate(180)"/>
      <rect class="st2" x="-2985.6" y="218.9" width="2.2" height="2.2" transform="translate(-5968.9 439.9) rotate(180)"/>
      <rect class="st2" x="-2876.1" y="530.1" width="2.2" height="2.2" transform="translate(-5750 1062.3) rotate(180)"/>
      <rect class="st2" x="-2747" y="149.2" width="2.2" height="2.2" transform="translate(-5491.8 300.6) rotate(180)"/>
    </g>
    <g>
      <rect class="st2" x="-2193.5" y="1897.8" width="2.2" height="2.2" transform="translate(-4091.3 -293.5) rotate(-90)"/>
      <rect class="st2" x="-2703.5" y="1136.4" width="2.2" height="2.2" transform="translate(-3840 -1565) rotate(-90)"/>
      <rect class="st2" x="-2744.1" y="1500.6" width="2.2" height="2.2" transform="translate(-4244.7 -1241.3) rotate(-90)"/>
      <rect class="st2" x="-2997.3" y="1115.3" width="2.2" height="2.2" transform="translate(-4112.6 -1879.8) rotate(-90)"/>
      <rect class="st2" x="-2635.5" y="659" width="2.2" height="2.2" transform="translate(-3294.5 -1974.3) rotate(-90)"/>
      <rect class="st2" x="-2059.8" y="803.7" width="2.2" height="2.2" transform="translate(-2863.4 -1253.9) rotate(-90)"/>
      <rect class="st2" x="-2238.3" y="681.8" width="2.2" height="2.2" transform="translate(-2920.1 -1554.4) rotate(-90)"/>
      <rect class="st2" x="-1828.6" y="1179.3" width="2.2" height="2.2" transform="translate(-3007.9 -647.2) rotate(-90)"/>
      <rect class="st2" x="-1979.1" y="1445.5" width="2.2" height="2.2" transform="translate(-3424.6 -531.4) rotate(-90)"/>
      <rect class="st2" x="-1514.6" y="1518.8" width="2.2" height="2.2" transform="translate(-3033.4 6.4) rotate(-90)"/>
      <rect class="st2" x="-1316.1" y="1828.5" width="2.2" height="2.2" transform="translate(-3144.6 514.6) rotate(-90)"/>
      <rect class="st2" x="-1513.5" y="1984.2" width="2.2" height="2.2" transform="translate(-3497.7 472.8) rotate(-90)"/>
      <rect class="st2" x="-1277.6" y="1094.3" width="2.2" height="2.2" transform="translate(-2371.9 -181.1) rotate(-90)"/>
      <rect class="st2" x="-1537.9" y="738.7" width="2.2" height="2.2" transform="translate(-2276.5 -797) rotate(-90)"/>
      <rect class="st2" x="-1317.2" y="228.6" width="2.2" height="2.2" transform="translate(-1545.8 -1086.4) rotate(-90)"/>
      <rect class="st2" x="-1628.4" y="338.1" width="2.2" height="2.2" transform="translate(-1966.5 -1288.1) rotate(-90)"/>
      <rect class="st2" x="-1247.5" y="467.2" width="2.2" height="2.2" transform="translate(-1714.7 -778.2) rotate(-90)"/>
    </g>
    <g>
      <rect class="st2" x="-2990" y="936" width="2.2" height="2.2"/>
      <rect class="st2" x="-2228.6" y="426" width="2.2" height="2.2"/>
      <rect class="st2" x="-2592.8" y="385.5" width="2.2" height="2.2"/>
      <rect class="st2" x="-2207.5" y="132.3" width="2.2" height="2.2"/>
      <rect class="st2" x="-1751.2" y="494" width="2.2" height="2.2"/>
      <rect class="st2" x="-1895.8" y="1069.8" width="2.2" height="2.2"/>
      <rect class="st2" x="-1773.9" y="891.2" width="2.2" height="2.2"/>
      <rect class="st2" x="-2271.4" y="1300.9" width="2.2" height="2.2"/>
      <rect class="st2" x="-2537.7" y="1150.4" width="2.2" height="2.2"/>
      <rect class="st2" x="-2610.9" y="1614.9" width="2.2" height="2.2"/>
      <rect class="st2" x="-2920.7" y="1813.4" width="2.2" height="2.2"/>
      <rect class="st2" x="-3076.3" y="1616" width="2.2" height="2.2"/>
      <rect class="st2" x="-2186.4" y="1851.9" width="2.2" height="2.2"/>
      <rect class="st2" x="-1830.8" y="1591.7" width="2.2" height="2.2"/>
      <rect class="st2" x="-1320.8" y="1812.4" width="2.2" height="2.2"/>
      <rect class="st2" x="-1430.2" y="1501.1" width="2.2" height="2.2"/>
      <rect class="st2" x="-1559.3" y="1882" width="2.2" height="2.2"/>
    </g>
    <g>
      <rect class="st2" x="-2199.5" y="1629.3" width="1.7" height="1.7" transform="translate(-3828.8 -568.5) rotate(-90)"/>
      <rect class="st2" x="-2589.8" y="1046.6" width="1.7" height="1.7" transform="translate(-3636.4 -1541.6) rotate(-90)"/>
      <rect class="st2" x="-2620.8" y="1325.3" width="1.7" height="1.7" transform="translate(-3946.1 -1293.9) rotate(-90)"/>
      <rect class="st2" x="-2814.6" y="1030.4" width="1.7" height="1.7" transform="translate(-3845 -1782.5) rotate(-90)"/>
      <rect class="st2" x="-2537.8" y="681.2" width="1.7" height="1.7" transform="translate(-3219 -1854.9) rotate(-90)"/>
      <rect class="st2" x="-2097.1" y="791.9" width="1.7" height="1.7" transform="translate(-2889.1 -1303.5) rotate(-90)"/>
      <rect class="st2" x="-2233.8" y="698.7" width="1.7" height="1.7" transform="translate(-2932.5 -1533.5) rotate(-90)"/>
      <rect class="st2" x="-1920.3" y="1079.4" width="1.7" height="1.7" transform="translate(-2999.6 -839.2) rotate(-90)"/>
      <rect class="st2" x="-2035.4" y="1283.2" width="1.7" height="1.7" transform="translate(-3318.6 -750.6) rotate(-90)"/>
      <rect class="st2" x="-1679.9" y="1339.2" width="1.7" height="1.7" transform="translate(-3019.1 -339.1) rotate(-90)"/>
      <rect class="st2" x="-1528" y="1576.3" width="1.7" height="1.7" transform="translate(-3104.3 49.9) rotate(-90)"/>
      <rect class="st2" x="-1679.1" y="1695.4" width="1.7" height="1.7" transform="translate(-3374.5 17.9) rotate(-90)"/>
      <rect class="st2" x="-1498.6" y="1014.3" width="1.7" height="1.7" transform="translate(-2512.9 -482.6) rotate(-90)"/>
      <rect class="st2" x="-1697.8" y="742.2" width="1.7" height="1.7" transform="translate(-2440 -953.9) rotate(-90)"/>
      <rect class="st2" x="-1528.8" y="351.9" width="1.7" height="1.7" transform="translate(-1880.7 -1175.3) rotate(-90)"/>
      <rect class="st2" x="-1767" y="435.6" width="1.7" height="1.7" transform="translate(-2202.7 -1329.7) rotate(-90)"/>
      <rect class="st2" x="-1475.6" y="534.4" width="1.7" height="1.7" transform="translate(-2010 -939.5) rotate(-90)"/>
    </g>
    <rect class="st1" x="122.9" y="2041.6" width="5.4" height="5.4"/>
    <rect class="st1" x="274.4" y="1852.9" width="5.4" height="5.4"/>
    <rect class="st1" x="1821.3" y="1362.1" width="5.4" height="5.4"/>
    <rect class="st1" x="668.8" y="1850.2" width="5.4" height="5.4"/>
    <rect class="st1" x="271.7" y="974.9" width="5.4" height="5.4"/>
    <rect class="st1" x="495.8" y="1517.4" width="5.4" height="5.4" transform="translate(2018.6 1021.6) rotate(90)"/>
    <rect class="st1" x="125.6" y="1514.7" width="5.4" height="5.4" transform="translate(1645.7 1389.1) rotate(90)"/>
    <rect class="st1" x="760.6" y="782.9" width="5.4" height="5.4" transform="translate(-22.3 1549) rotate(-90)"/>
    <rect class="st1" x="1548.8" y="1025.6" width="5.4" height="5.4" transform="translate(523.2 2579.8) rotate(-90)"/>
    <rect class="st1" x="1109.3" y="475.9" width="5.4" height="5.4" transform="translate(633.4 1590.6) rotate(-90)"/>
    <rect class="st1" x="236.4" y="410.1" width="5.4" height="5.4"/>
    <rect class="st1" x="380.8" y="352.1" width="5.4" height="5.4"/>
    <rect class="st1" x="1717.3" y="2012.9" width="5.4" height="5.4" transform="translate(-295.6 3735.6) rotate(-90)"/>
    <rect class="st1" x="1112" y="2018.3" width="5.4" height="5.4" transform="translate(-906.3 3135.7) rotate(-90)"/>
    <rect class="st1" x="1504.9" y="1791.6" width="5.4" height="5.4" transform="translate(-286.8 3301.9) rotate(-90)"/>
    <rect class="st1" x="1193.1" y="1640" width="5.4" height="5.4"/>
    <rect class="st1" x="1068.1" y="1083.6" width="5.4" height="5.4"/>
    <rect class="st1" x="1720" y="465.7" width="5.4" height="5.4" transform="translate(1254.3 2191) rotate(-90)"/>
    <rect class="st1" x="1824" y="61.3" width="5.4" height="5.4" transform="translate(1762.7 1890.7) rotate(-90)"/>
    <rect class="st1" x="1507.6" y="244.4" width="5.4" height="5.4" transform="translate(1263.2 1757.3) rotate(-90)"/>
    <rect class="st1" x="1195.8" y="92.8" width="5.4" height="5.4"/>
    <rect class="st1" x="588.3" y="92.7" width="5.4" height="5.4"/>
    <rect class="st1" x="647.3" y="1158.8" width="3.4" height="3.4"/>
    <rect class="st1" x="828.4" y="1586.2" width="3.4" height="3.4"/>
    <rect class="st1" x="1272.1" y="1514" width="3.4" height="3.4"/>
    <rect class="st1" x="948.2" y="1919.1" width="3.4" height="3.4"/>
    <rect class="st1" x="730.4" y="2110.3" width="3.4" height="3.4"/>
    <rect class="st1" x="1121.8" y="1267.1" width="3.4" height="3.4"/>
    <rect class="st1" x="1026.8" y="947.3" width="3.4" height="3.4"/>
    <rect class="st1" x="862.8" y="1365.7" width="3.4" height="3.4"/>
    <rect class="st1" x="316.7" y="725" width="3.4" height="3.4"/>
    <rect class="st1" x="130.1" y="619.4" width="3.4" height="3.4"/>
    <rect class="st1" x="576" y="945.6" width="3.4" height="3.4"/>
    <rect class="st1" x="714.5" y="431.6" width="3.4" height="3.4"/>
    <rect class="st1" x="905.8" y="28.1" width="3.4" height="3.4"/>
    <rect class="st1" x="300.6" y="1417.2" width="3.4" height="3.4"/>
    <rect class="st1" x="384.5" y="1160.5" width="3.4" height="3.4"/>
    <rect class="st1" x="440.3" y="2045.3" width="3.4" height="3.4"/>
    <rect class="st1" x="1470.1" y="167.7" width="3.4" height="3.4"/>
    <rect class="st1" x="948.2" y="242.7" width="3.4" height="3.4"/>
    <rect class="st1" x="1347.6" y="398.3" width="3.4" height="3.4" transform="translate(1749.3 -949.2) rotate(90)"/>
    <rect class="st1" x="182.5" y="89.3" width="3.4" height="3.4" transform="translate(275.2 -93.1) rotate(90)"/>
    <rect class="st1" x="1123.5" y="723.3" width="3.4" height="3.4" transform="translate(1850.3 -400.2) rotate(90)"/>
    <rect class="st1" x="821.5" y="523" width="3.4" height="3.4" transform="translate(1347.9 -298.5) rotate(90)"/>
    <rect class="st1" x="1335.4" y="822.7" width="3.4" height="3.4"/>
    <rect class="st1" x="1830.2" y="248" width="3.4" height="3.4"/>
    <rect class="st1" x="1501.4" y="392.8" width="3.4" height="3.4"/>
    <rect class="st1" x="1610.4" y="1565.5" width="3.4" height="3.4"/>
    <rect class="st1" x="1771.5" y="725" width="3.4" height="3.4"/>
    <rect class="st1" x="1828.5" y="1538.8" width="3.4" height="3.4"/>
    <rect class="st1" x="1480.2" y="2047" width="3.4" height="3.4"/>
    <rect class="st1" x="1478.5" y="1268.8" width="3.4" height="3.4"/>
    <rect class="st1" x="1768.1" y="1113.4" width="3.4" height="3.4"/>
    <rect class="st1" x="468.8" y="1727.7" width="3.4" height="3.4"/>
    <rect class="st1" x="72.3" y="1081.9" width="3.4" height="3.4"/>
    <rect class="st1" x="205.9" y="1157.7" width="2.1" height="2.1"/>
    <rect class="st1" x="947.1" y="661.2" width="2.1" height="2.1"/>
    <rect class="st1" x="592.6" y="621.7" width="2.1" height="2.1"/>
    <rect class="st1" x="967.7" y="375.2" width="2.1" height="2.1"/>
    <rect class="st1" x="1411.9" y="727.4" width="2.1" height="2.1"/>
    <rect class="st1" x="1271.1" y="1287.9" width="2.1" height="2.1"/>
    <rect class="st1" x="1389.7" y="1114.1" width="2.1" height="2.1"/>
    <rect class="st1" x="905.4" y="1512.9" width="2.1" height="2.1"/>
    <rect class="st1" x="646.2" y="1366.4" width="2.1" height="2.1"/>
    <rect class="st1" x="574.9" y="1818.6" width="2.1" height="2.1"/>
    <rect class="st1" x="273.4" y="2011.9" width="2.1" height="2.1"/>
    <rect class="st1" x="121.9" y="1819.7" width="2.1" height="2.1"/>
    <rect class="st1" x="988.2" y="2049.3" width="2.1" height="2.1"/>
    <rect class="st1" x="1334.3" y="1795.9" width="2.1" height="2.1"/>
    <rect class="st1" x="1830.9" y="2010.8" width="2.1" height="2.1"/>
    <rect class="st1" x="1724.3" y="1707.8" width="2.1" height="2.1"/>
    <rect class="st1" x="1598.6" y="2078.6" width="2.1" height="2.1"/>
    <g class="st3">
      <rect class="st2" x="1757.6" y="1043.1" width="2.1" height="2.1" transform="translate(3517.3 2088.2) rotate(180)"/>
      <rect class="st2" x="1016.4" y="1539.6" width="2.1" height="2.1" transform="translate(2034.8 3081.3) rotate(180)"/>
      <rect class="st2" x="1370.9" y="1579" width="2.1" height="2.1" transform="translate(2743.9 3160.2) rotate(180)"/>
      <rect class="st2" x="995.8" y="1825.5" width="2.1" height="2.1" transform="translate(1993.7 3653.2) rotate(180)"/>
      <rect class="st2" x="551.6" y="1473.4" width="2.1" height="2.1" transform="translate(1105.3 2948.9) rotate(180)"/>
      <rect class="st2" x="692.4" y="912.9" width="2.1" height="2.1" transform="translate(1387 1827.9) rotate(180)"/>
      <rect class="st2" x="573.8" y="1086.7" width="2.1" height="2.1" transform="translate(1149.6 2175.5) rotate(180)"/>
      <rect class="st2" x="1058.1" y="687.9" width="2.1" height="2.1" transform="translate(2118.2 1377.8) rotate(180)"/>
      <rect class="st2" x="1317.3" y="834.4" width="2.1" height="2.1" transform="translate(2636.7 1670.9) rotate(180)"/>
      <rect class="st2" x="1388.6" y="382.2" width="2.1" height="2.1" transform="translate(2779.3 766.4) rotate(180)"/>
      <rect class="st2" x="1690.1" y="188.9" width="2.1" height="2.1" transform="translate(3382.3 379.9) rotate(180)"/>
      <rect class="st2" x="1841.6" y="381.1" width="2.1" height="2.1" transform="translate(3685.4 764.3) rotate(180)"/>
      <rect class="st2" x="975.3" y="151.4" width="2.1" height="2.1" transform="translate(1952.8 305) rotate(180)"/>
      <rect class="st2" x="629.1" y="404.8" width="2.1" height="2.1" transform="translate(1260.4 811.8) rotate(180)"/>
      <rect class="st2" x="132.6" y="190" width="2.1" height="2.1" transform="translate(267.3 382) rotate(180)"/>
      <rect class="st2" x="239.2" y="492.9" width="2.1" height="2.1" transform="translate(480.5 988) rotate(180)"/>
      <rect class="st2" x="364.9" y="122.2" width="2.1" height="2.1" transform="translate(731.8 246.5) rotate(180)"/>
    </g>
    <g class="st3">
      <rect class="st2" x="903.7" y="1824.4" width="2.1" height="2.1" transform="translate(-920.8 2730.2) rotate(-90)"/>
      <rect class="st2" x="407.1" y="1083.2" width="2.1" height="2.1" transform="translate(-676.1 1492.5) rotate(-90)"/>
      <rect class="st2" x="367.7" y="1437.7" width="2.1" height="2.1" transform="translate(-1070 1807.5) rotate(-90)"/>
      <rect class="st2" x="121.2" y="1062.7" width="2.1" height="2.1" transform="translate(-941.5 1186) rotate(-90)"/>
      <rect class="st2" x="473.4" y="618.5" width="2.1" height="2.1" transform="translate(-145.1 1093.9) rotate(-90)"/>
      <rect class="st2" x="1033.9" y="759.3" width="2.1" height="2.1" transform="translate(274.6 1795.3) rotate(-90)"/>
      <rect class="st2" x="860" y="640.6" width="2.1" height="2.1" transform="translate(219.4 1502.8) rotate(-90)"/>
      <rect class="st2" x="1258.9" y="1124.9" width="2.1" height="2.1" transform="translate(134 2385.9) rotate(-90)"/>
      <rect class="st2" x="1112.4" y="1384.1" width="2.1" height="2.1" transform="translate(-271.8 2498.6) rotate(-90)"/>
      <rect class="st2" x="1564.6" y="1455.4" width="2.1" height="2.1" transform="translate(109.2 3022.1) rotate(-90)"/>
      <rect class="st2" x="1757.8" y="1757" width="2.1" height="2.1" transform="translate(.9 3516.9) rotate(-90)"/>
      <rect class="st2" x="1565.6" y="1908.5" width="2.1" height="2.1" transform="translate(-342.8 3476.2) rotate(-90)"/>
      <rect class="st2" x="1795.3" y="1042.2" width="2.1" height="2.1" transform="translate(753.1 2839.6) rotate(-90)"/>
      <rect class="st2" x="1541.9" y="696" width="2.1" height="2.1" transform="translate(845.9 2240) rotate(-90)"/>
      <rect class="st2" x="1756.8" y="199.5" width="2.1" height="2.1" transform="translate(1557.3 1958.3) rotate(-90)"/>
      <rect class="st2" x="1453.8" y="306" width="2.1" height="2.1" transform="translate(1147.8 1761.9) rotate(-90)"/>
      <rect class="st2" x="1824.6" y="431.7" width="2.1" height="2.1" transform="translate(1392.9 2258.4) rotate(-90)"/>
    </g>
    <g class="st3">
      <rect class="st2" x="128.3" y="888.1" width="2.1" height="2.1"/>
      <rect class="st2" x="869.5" y="391.6" width="2.1" height="2.1"/>
      <rect class="st2" x="515" y="352.2" width="2.1" height="2.1"/>
      <rect class="st2" x="890.1" y="105.7" width="2.1" height="2.1"/>
      <rect class="st2" x="1334.3" y="457.8" width="2.1" height="2.1"/>
      <rect class="st2" x="1193.4" y="1018.3" width="2.1" height="2.1"/>
      <rect class="st2" x="1312.1" y="844.5" width="2.1" height="2.1"/>
      <rect class="st2" x="827.8" y="1243.3" width="2.1" height="2.1"/>
      <rect class="st2" x="568.6" y="1096.8" width="2.1" height="2.1"/>
      <rect class="st2" x="497.3" y="1549" width="2.1" height="2.1"/>
      <rect class="st2" x="195.7" y="1742.3" width="2.1" height="2.1"/>
      <rect class="st2" x="44.2" y="1550.1" width="2.1" height="2.1"/>
      <rect class="st2" x="910.5" y="1779.8" width="2.1" height="2.1"/>
      <rect class="st2" x="1256.7" y="1526.4" width="2.1" height="2.1"/>
      <rect class="st2" x="1753.3" y="1741.2" width="2.1" height="2.1"/>
      <rect class="st2" x="1646.7" y="1438.3" width="2.1" height="2.1"/>
      <rect class="st2" x="1521" y="1809" width="2.1" height="2.1"/>
    </g>
    <g class="st3">
      <rect class="st2" x="897.8" y="1563" width="1.6" height="1.6" transform="translate(-665.2 2462.5) rotate(-90)"/>
      <rect class="st2" x="517.8" y="995.8" width="1.6" height="1.6" transform="translate(-477.9 1515.2) rotate(-90)"/>
      <rect class="st2" x="487.7" y="1267.1" width="1.6" height="1.6" transform="translate(-779.4 1756.3) rotate(-90)"/>
      <rect class="st2" x="299" y="980" width="1.6" height="1.6" transform="translate(-681 1280.7) rotate(-90)"/>
      <rect class="st2" x="568.5" y="640.1" width="1.6" height="1.6" transform="translate(-71.6 1210.2) rotate(-90)"/>
      <rect class="st2" x="997.5" y="747.9" width="1.6" height="1.6" transform="translate(249.6 1746.9) rotate(-90)"/>
      <rect class="st2" x="864.4" y="657.1" width="1.6" height="1.6" transform="translate(207.4 1523.1) rotate(-90)"/>
      <rect class="st2" x="1169.7" y="1027.7" width="1.6" height="1.6" transform="translate(142 2199) rotate(-90)"/>
      <rect class="st2" x="1057.5" y="1226.1" width="1.6" height="1.6" transform="translate(-168.5 2285.2) rotate(-90)"/>
      <rect class="st2" x="1403.6" y="1280.6" width="1.6" height="1.6" transform="translate(123 2685.9) rotate(-90)"/>
      <rect class="st2" x="1551.5" y="1511.4" width="1.6" height="1.6" transform="translate(40.1 3064.5) rotate(-90)"/>
      <rect class="st2" x="1404.4" y="1627.3" width="1.6" height="1.6" transform="translate(-222.9 3033.4) rotate(-90)"/>
      <rect class="st2" x="1580.2" y="964.4" width="1.6" height="1.6" transform="translate(615.8 2546.2) rotate(-90)"/>
      <rect class="st2" x="1386.3" y="699.4" width="1.6" height="1.6" transform="translate(686.8 2087.3) rotate(-90)"/>
      <rect class="st2" x="1550.7" y="319.4" width="1.6" height="1.6" transform="translate(1231.3 1871.8) rotate(-90)"/>
      <rect class="st2" x="1318.8" y="401" width="1.6" height="1.6" transform="translate(917.8 1721.4) rotate(-90)"/>
      <rect class="st2" x="1602.6" y="497.2" width="1.6" height="1.6" transform="translate(1105.4 2101.4) rotate(-90)"/>
    </g>
  </g>
</svg>