<?xml version="1.0" encoding="UTF-8"?>
<svg xmlns="http://www.w3.org/2000/svg" xmlns:xlink="http://www.w3.org/1999/xlink" viewBox="0 0 1920 2160">
  <defs>
    <style>
      .uuid-2b405a84-7889-4d7a-adf4-dd0aae142632 {
        fill: url(#uuid-55f301fa-dd19-4e20-9506-533192ba5ca9);
      }

      .uuid-a76fa202-37d6-4414-a7dc-cd8f39cf2b88, .uuid-f3073496-ce84-458e-b0e9-c3de07d7f58e {
        fill: #fff;
      }

      .uuid-a76fa202-37d6-4414-a7dc-cd8f39cf2b88, .uuid-2275a045-07df-4dd9-963f-ac195877284a {
        opacity: .7;
      }
    </style>
    <radialGradient id="uuid-55f301fa-dd19-4e20-9506-533192ba5ca9" data-name="Unbenannter Verlauf 6" cx="960" cy="1102.38" fx="960" fy="1102.38" r="1033.64" gradientTransform="translate(-.01 -.09) scale(1 .98)" gradientUnits="userSpaceOnUse">
      <stop offset="0" stop-color="#15202b"/>
      <stop offset=".39" stop-color="#131b25"/>
      <stop offset=".82" stop-color="#0e1018"/>
    </radialGradient>
  </defs>
  <g id="uuid-6d752a98-f0b6-4b7c-9bc8-32c71d764611" data-name="Ebene 2">
    <rect class="uuid-2b405a84-7889-4d7a-adf4-dd0aae142632" x="-.01" y="-.09" width="1920.1" height="2160.1"/>
  </g>
  <g id="uuid-b82ecfcf-6b8f-464f-9734-9e489c097516" data-name="Ebene 7">
    <rect class="uuid-a76fa202-37d6-4414-a7dc-cd8f39cf2b88" x="122.93" y="2041.59" width="5.39" height="5.39"/>
    <rect class="uuid-a76fa202-37d6-4414-a7dc-cd8f39cf2b88" x="274.43" y="1852.89" width="5.39" height="5.39"/>
    <rect class="uuid-a76fa202-37d6-4414-a7dc-cd8f39cf2b88" x="1821.28" y="1362.07" width="5.39" height="5.39"/>
    <rect class="uuid-a76fa202-37d6-4414-a7dc-cd8f39cf2b88" x="668.75" y="1850.2" width="5.39" height="5.39"/>
    <rect class="uuid-a76fa202-37d6-4414-a7dc-cd8f39cf2b88" x="271.74" y="974.91" width="5.39" height="5.39"/>
    <rect class="uuid-a76fa202-37d6-4414-a7dc-cd8f39cf2b88" x="495.8" y="1517.38" width="5.39" height="5.39" transform="translate(2018.57 1021.58) rotate(90)"/>
    <rect class="uuid-a76fa202-37d6-4414-a7dc-cd8f39cf2b88" x="125.62" y="1514.69" width="5.39" height="5.39" transform="translate(1645.69 1389.07) rotate(90)"/>
    <rect class="uuid-a76fa202-37d6-4414-a7dc-cd8f39cf2b88" x="760.64" y="782.94" width="5.39" height="5.39" transform="translate(-22.29 1548.97) rotate(-90)"/>
    <rect class="uuid-a76fa202-37d6-4414-a7dc-cd8f39cf2b88" x="1548.8" y="1025.59" width="5.39" height="5.39" transform="translate(523.21 2579.77) rotate(-90)"/>
    <rect class="uuid-a76fa202-37d6-4414-a7dc-cd8f39cf2b88" x="1109.3" y="475.91" width="5.39" height="5.39" transform="translate(633.39 1590.59) rotate(-90)"/>
    <rect class="uuid-a76fa202-37d6-4414-a7dc-cd8f39cf2b88" x="236.44" y="410.06" width="5.39" height="5.39"/>
    <rect class="uuid-a76fa202-37d6-4414-a7dc-cd8f39cf2b88" x="380.79" y="352.07" width="5.39" height="5.39"/>
    <rect class="uuid-a76fa202-37d6-4414-a7dc-cd8f39cf2b88" x="1717.3" y="2012.92" width="5.39" height="5.39" transform="translate(-295.62 3735.6) rotate(-90)"/>
    <rect class="uuid-a76fa202-37d6-4414-a7dc-cd8f39cf2b88" x="1111.99" y="2018.31" width="5.39" height="5.39" transform="translate(-906.32 3135.68) rotate(-90)"/>
    <rect class="uuid-a76fa202-37d6-4414-a7dc-cd8f39cf2b88" x="1504.86" y="1791.61" width="5.39" height="5.39" transform="translate(-286.75 3301.86) rotate(-90)"/>
    <rect class="uuid-a76fa202-37d6-4414-a7dc-cd8f39cf2b88" x="1193.09" y="1640.04" width="5.39" height="5.39"/>
    <rect class="uuid-a76fa202-37d6-4414-a7dc-cd8f39cf2b88" x="1068.13" y="1083.59" width="5.39" height="5.39"/>
    <rect class="uuid-a76fa202-37d6-4414-a7dc-cd8f39cf2b88" x="1719.99" y="465.67" width="5.39" height="5.39" transform="translate(1254.32 2191.05) rotate(-90)"/>
    <rect class="uuid-a76fa202-37d6-4414-a7dc-cd8f39cf2b88" x="1823.98" y="61.31" width="5.39" height="5.39" transform="translate(1762.66 1890.68) rotate(-90)"/>
    <rect class="uuid-a76fa202-37d6-4414-a7dc-cd8f39cf2b88" x="1507.55" y="244.36" width="5.39" height="5.39" transform="translate(1263.19 1757.3) rotate(-90)"/>
    <rect class="uuid-a76fa202-37d6-4414-a7dc-cd8f39cf2b88" x="1195.78" y="92.79" width="5.39" height="5.39"/>
    <rect class="uuid-a76fa202-37d6-4414-a7dc-cd8f39cf2b88" x="588.28" y="92.75" width="5.39" height="5.39"/>
    <rect class="uuid-a76fa202-37d6-4414-a7dc-cd8f39cf2b88" x="647.28" y="1158.76" width="3.42" height="3.42"/>
    <rect class="uuid-a76fa202-37d6-4414-a7dc-cd8f39cf2b88" x="828.36" y="1586.2" width="3.42" height="3.42"/>
    <rect class="uuid-a76fa202-37d6-4414-a7dc-cd8f39cf2b88" x="1272.13" y="1513.96" width="3.42" height="3.42"/>
    <rect class="uuid-a76fa202-37d6-4414-a7dc-cd8f39cf2b88" x="948.19" y="1919.08" width="3.42" height="3.42"/>
    <rect class="uuid-a76fa202-37d6-4414-a7dc-cd8f39cf2b88" x="730.38" y="2110.35" width="3.42" height="3.42"/>
    <rect class="uuid-a76fa202-37d6-4414-a7dc-cd8f39cf2b88" x="1121.83" y="1267.12" width="3.42" height="3.42"/>
    <rect class="uuid-a76fa202-37d6-4414-a7dc-cd8f39cf2b88" x="1026.76" y="947.31" width="3.42" height="3.42"/>
    <rect class="uuid-a76fa202-37d6-4414-a7dc-cd8f39cf2b88" x="862.82" y="1365.75" width="3.42" height="3.42"/>
    <rect class="uuid-a76fa202-37d6-4414-a7dc-cd8f39cf2b88" x="316.66" y="725.04" width="3.42" height="3.42"/>
    <rect class="uuid-a76fa202-37d6-4414-a7dc-cd8f39cf2b88" x="130.06" y="619.36" width="3.42" height="3.42"/>
    <rect class="uuid-a76fa202-37d6-4414-a7dc-cd8f39cf2b88" x="575.98" y="945.6" width="3.42" height="3.42"/>
    <rect class="uuid-a76fa202-37d6-4414-a7dc-cd8f39cf2b88" x="714.54" y="431.6" width="3.42" height="3.42"/>
    <rect class="uuid-a76fa202-37d6-4414-a7dc-cd8f39cf2b88" x="905.79" y="28.11" width="3.42" height="3.42"/>
    <rect class="uuid-a76fa202-37d6-4414-a7dc-cd8f39cf2b88" x="300.63" y="1417.22" width="3.42" height="3.42"/>
    <rect class="uuid-a76fa202-37d6-4414-a7dc-cd8f39cf2b88" x="384.47" y="1160.47" width="3.42" height="3.42"/>
    <rect class="uuid-a76fa202-37d6-4414-a7dc-cd8f39cf2b88" x="440.32" y="2045.27" width="3.42" height="3.42"/>
    <rect class="uuid-a76fa202-37d6-4414-a7dc-cd8f39cf2b88" x="1470.11" y="167.65" width="3.42" height="3.42"/>
    <rect class="uuid-a76fa202-37d6-4414-a7dc-cd8f39cf2b88" x="948.19" y="242.65" width="3.42" height="3.42"/>
    <rect class="uuid-a76fa202-37d6-4414-a7dc-cd8f39cf2b88" x="1347.58" y="398.34" width="3.42" height="3.42" transform="translate(1749.34 -949.24) rotate(90)"/>
    <rect class="uuid-a76fa202-37d6-4414-a7dc-cd8f39cf2b88" x="182.46" y="89.33" width="3.42" height="3.42" transform="translate(275.21 -93.13) rotate(90)"/>
    <rect class="uuid-a76fa202-37d6-4414-a7dc-cd8f39cf2b88" x="1123.54" y="723.33" width="3.42" height="3.42" transform="translate(1850.29 -400.21) rotate(90)"/>
    <rect class="uuid-a76fa202-37d6-4414-a7dc-cd8f39cf2b88" x="821.5" y="522.98" width="3.42" height="3.42" transform="translate(1347.9 -298.53) rotate(90)"/>
    <rect class="uuid-a76fa202-37d6-4414-a7dc-cd8f39cf2b88" x="1335.4" y="822.68" width="3.42" height="3.42"/>
    <rect class="uuid-a76fa202-37d6-4414-a7dc-cd8f39cf2b88" x="1830.24" y="248.04" width="3.42" height="3.42"/>
    <rect class="uuid-a76fa202-37d6-4414-a7dc-cd8f39cf2b88" x="1501.44" y="392.78" width="3.42" height="3.42"/>
    <rect class="uuid-a76fa202-37d6-4414-a7dc-cd8f39cf2b88" x="1610.44" y="1565.51" width="3.42" height="3.42"/>
    <rect class="uuid-a76fa202-37d6-4414-a7dc-cd8f39cf2b88" x="1771.49" y="725.04" width="3.42" height="3.42"/>
    <rect class="uuid-a76fa202-37d6-4414-a7dc-cd8f39cf2b88" x="1828.53" y="1538.81" width="3.42" height="3.42"/>
    <rect class="uuid-a76fa202-37d6-4414-a7dc-cd8f39cf2b88" x="1480.22" y="2046.98" width="3.42" height="3.42"/>
    <rect class="uuid-a76fa202-37d6-4414-a7dc-cd8f39cf2b88" x="1478.51" y="1268.83" width="3.42" height="3.42"/>
    <rect class="uuid-a76fa202-37d6-4414-a7dc-cd8f39cf2b88" x="1768.07" y="1113.42" width="3.42" height="3.42"/>
    <rect class="uuid-a76fa202-37d6-4414-a7dc-cd8f39cf2b88" x="468.78" y="1727.65" width="3.42" height="3.42"/>
    <rect class="uuid-a76fa202-37d6-4414-a7dc-cd8f39cf2b88" x="72.3" y="1081.88" width="3.42" height="3.42"/>
    <rect class="uuid-a76fa202-37d6-4414-a7dc-cd8f39cf2b88" x="205.9" y="1157.7" width="2.11" height="2.11"/>
    <rect class="uuid-a76fa202-37d6-4414-a7dc-cd8f39cf2b88" x="947.13" y="661.17" width="2.11" height="2.11"/>
    <rect class="uuid-a76fa202-37d6-4414-a7dc-cd8f39cf2b88" x="592.61" y="621.72" width="2.11" height="2.11"/>
    <rect class="uuid-a76fa202-37d6-4414-a7dc-cd8f39cf2b88" x="967.69" y="375.24" width="2.11" height="2.11"/>
    <rect class="uuid-a76fa202-37d6-4414-a7dc-cd8f39cf2b88" x="1411.88" y="727.4" width="2.11" height="2.11"/>
    <rect class="uuid-a76fa202-37d6-4414-a7dc-cd8f39cf2b88" x="1271.07" y="1287.9" width="2.11" height="2.11"/>
    <rect class="uuid-a76fa202-37d6-4414-a7dc-cd8f39cf2b88" x="1389.73" y="1114.08" width="2.11" height="2.11"/>
    <rect class="uuid-a76fa202-37d6-4414-a7dc-cd8f39cf2b88" x="905.43" y="1512.91" width="2.11" height="2.11"/>
    <rect class="uuid-a76fa202-37d6-4414-a7dc-cd8f39cf2b88" x="646.22" y="1366.4" width="2.11" height="2.11"/>
    <rect class="uuid-a76fa202-37d6-4414-a7dc-cd8f39cf2b88" x="574.92" y="1818.62" width="2.11" height="2.11"/>
    <rect class="uuid-a76fa202-37d6-4414-a7dc-cd8f39cf2b88" x="273.38" y="2011.86" width="2.11" height="2.11"/>
    <rect class="uuid-a76fa202-37d6-4414-a7dc-cd8f39cf2b88" x="121.87" y="1819.67" width="2.11" height="2.11"/>
    <rect class="uuid-a76fa202-37d6-4414-a7dc-cd8f39cf2b88" x="988.17" y="2049.34" width="2.11" height="2.11"/>
    <rect class="uuid-a76fa202-37d6-4414-a7dc-cd8f39cf2b88" x="1334.35" y="1795.94" width="2.11" height="2.11"/>
    <rect class="uuid-a76fa202-37d6-4414-a7dc-cd8f39cf2b88" x="1830.89" y="2010.8" width="2.11" height="2.11"/>
    <rect class="uuid-a76fa202-37d6-4414-a7dc-cd8f39cf2b88" x="1724.32" y="1707.83" width="2.11" height="2.11"/>
    <rect class="uuid-a76fa202-37d6-4414-a7dc-cd8f39cf2b88" x="1598.64" y="2078.6" width="2.11" height="2.11"/>
    <g class="uuid-2275a045-07df-4dd9-963f-ac195877284a">
      <rect class="uuid-f3073496-ce84-458e-b0e9-c3de07d7f58e" x="1757.59" y="1043.07" width="2.11" height="2.11" transform="translate(3517.29 2088.25) rotate(180)"/>
      <rect class="uuid-f3073496-ce84-458e-b0e9-c3de07d7f58e" x="1016.36" y="1539.6" width="2.11" height="2.11" transform="translate(2034.83 3081.32) rotate(180)"/>
      <rect class="uuid-f3073496-ce84-458e-b0e9-c3de07d7f58e" x="1370.88" y="1579.05" width="2.11" height="2.11" transform="translate(2743.88 3160.2) rotate(180)"/>
      <rect class="uuid-f3073496-ce84-458e-b0e9-c3de07d7f58e" x="995.81" y="1825.53" width="2.11" height="2.11" transform="translate(1993.72 3653.18) rotate(180)"/>
      <rect class="uuid-f3073496-ce84-458e-b0e9-c3de07d7f58e" x="551.61" y="1473.37" width="2.11" height="2.11" transform="translate(1105.33 2948.86) rotate(180)"/>
      <rect class="uuid-f3073496-ce84-458e-b0e9-c3de07d7f58e" x="692.42" y="912.87" width="2.11" height="2.11" transform="translate(1386.96 1827.86) rotate(180)"/>
      <rect class="uuid-f3073496-ce84-458e-b0e9-c3de07d7f58e" x="573.77" y="1086.69" width="2.11" height="2.11" transform="translate(1149.65 2175.5) rotate(180)"/>
      <rect class="uuid-f3073496-ce84-458e-b0e9-c3de07d7f58e" x="1058.06" y="687.87" width="2.11" height="2.11" transform="translate(2118.23 1377.84) rotate(180)"/>
      <rect class="uuid-f3073496-ce84-458e-b0e9-c3de07d7f58e" x="1317.27" y="834.37" width="2.11" height="2.11" transform="translate(2636.66 1670.85) rotate(180)"/>
      <rect class="uuid-f3073496-ce84-458e-b0e9-c3de07d7f58e" x="1388.57" y="382.15" width="2.11" height="2.11" transform="translate(2779.26 766.42) rotate(180)"/>
      <rect class="uuid-f3073496-ce84-458e-b0e9-c3de07d7f58e" x="1690.12" y="188.91" width="2.11" height="2.11" transform="translate(3382.35 379.93) rotate(180)"/>
      <rect class="uuid-f3073496-ce84-458e-b0e9-c3de07d7f58e" x="1841.62" y="381.1" width="2.11" height="2.11" transform="translate(3685.36 764.31) rotate(180)"/>
      <rect class="uuid-f3073496-ce84-458e-b0e9-c3de07d7f58e" x="975.32" y="151.43" width="2.11" height="2.11" transform="translate(1952.76 304.98) rotate(180)"/>
      <rect class="uuid-f3073496-ce84-458e-b0e9-c3de07d7f58e" x="629.15" y="404.83" width="2.11" height="2.11" transform="translate(1260.41 811.77) rotate(180)"/>
      <rect class="uuid-f3073496-ce84-458e-b0e9-c3de07d7f58e" x="132.6" y="189.97" width="2.11" height="2.11" transform="translate(267.32 382.04) rotate(180)"/>
      <rect class="uuid-f3073496-ce84-458e-b0e9-c3de07d7f58e" x="239.17" y="492.94" width="2.11" height="2.11" transform="translate(480.45 987.99) rotate(180)"/>
      <rect class="uuid-f3073496-ce84-458e-b0e9-c3de07d7f58e" x="364.86" y="122.17" width="2.11" height="2.11" transform="translate(731.83 246.46) rotate(180)"/>
    </g>
    <g class="uuid-2275a045-07df-4dd9-963f-ac195877284a">
      <rect class="uuid-f3073496-ce84-458e-b0e9-c3de07d7f58e" x="903.67" y="1824.44" width="2.11" height="2.11" transform="translate(-920.77 2730.23) rotate(-90)"/>
      <rect class="uuid-f3073496-ce84-458e-b0e9-c3de07d7f58e" x="407.13" y="1083.21" width="2.11" height="2.11" transform="translate(-676.08 1492.46) rotate(-90)"/>
      <rect class="uuid-f3073496-ce84-458e-b0e9-c3de07d7f58e" x="367.69" y="1437.74" width="2.11" height="2.11" transform="translate(-1070.04 1807.54) rotate(-90)"/>
      <rect class="uuid-f3073496-ce84-458e-b0e9-c3de07d7f58e" x="121.2" y="1062.66" width="2.11" height="2.11" transform="translate(-941.45 1185.98) rotate(-90)"/>
      <rect class="uuid-f3073496-ce84-458e-b0e9-c3de07d7f58e" x="473.36" y="618.46" width="2.11" height="2.11" transform="translate(-145.1 1093.94) rotate(-90)"/>
      <rect class="uuid-f3073496-ce84-458e-b0e9-c3de07d7f58e" x="1033.86" y="759.28" width="2.11" height="2.11" transform="translate(274.59 1795.25) rotate(-90)"/>
      <rect class="uuid-f3073496-ce84-458e-b0e9-c3de07d7f58e" x="860.04" y="640.62" width="2.11" height="2.11" transform="translate(219.42 1502.78) rotate(-90)"/>
      <rect class="uuid-f3073496-ce84-458e-b0e9-c3de07d7f58e" x="1258.87" y="1124.91" width="2.11" height="2.11" transform="translate(133.96 2385.9) rotate(-90)"/>
      <rect class="uuid-f3073496-ce84-458e-b0e9-c3de07d7f58e" x="1112.37" y="1384.13" width="2.11" height="2.11" transform="translate(-271.76 2498.61) rotate(-90)"/>
      <rect class="uuid-f3073496-ce84-458e-b0e9-c3de07d7f58e" x="1564.58" y="1455.42" width="2.11" height="2.11" transform="translate(109.16 3022.12) rotate(-90)"/>
      <rect class="uuid-f3073496-ce84-458e-b0e9-c3de07d7f58e" x="1757.83" y="1756.97" width="2.11" height="2.11" transform="translate(.86 3516.91) rotate(-90)"/>
      <rect class="uuid-f3073496-ce84-458e-b0e9-c3de07d7f58e" x="1565.64" y="1908.48" width="2.11" height="2.11" transform="translate(-342.84 3476.23) rotate(-90)"/>
      <rect class="uuid-f3073496-ce84-458e-b0e9-c3de07d7f58e" x="1795.31" y="1042.18" width="2.11" height="2.11" transform="translate(753.13 2839.59) rotate(-90)"/>
      <rect class="uuid-f3073496-ce84-458e-b0e9-c3de07d7f58e" x="1541.91" y="696" width="2.11" height="2.11" transform="translate(845.91 2240.02) rotate(-90)"/>
      <rect class="uuid-f3073496-ce84-458e-b0e9-c3de07d7f58e" x="1756.77" y="199.45" width="2.11" height="2.11" transform="translate(1557.32 1958.34) rotate(-90)"/>
      <rect class="uuid-f3073496-ce84-458e-b0e9-c3de07d7f58e" x="1453.8" y="306.02" width="2.11" height="2.11" transform="translate(1147.77 1761.93) rotate(-90)"/>
      <rect class="uuid-f3073496-ce84-458e-b0e9-c3de07d7f58e" x="1824.56" y="431.71" width="2.11" height="2.11" transform="translate(1392.85 2258.38) rotate(-90)"/>
    </g>
    <g class="uuid-2275a045-07df-4dd9-963f-ac195877284a">
      <rect class="uuid-f3073496-ce84-458e-b0e9-c3de07d7f58e" x="128.27" y="888.13" width="2.11" height="2.11"/>
      <rect class="uuid-f3073496-ce84-458e-b0e9-c3de07d7f58e" x="869.51" y="391.59" width="2.11" height="2.11"/>
      <rect class="uuid-f3073496-ce84-458e-b0e9-c3de07d7f58e" x="514.98" y="352.15" width="2.11" height="2.11"/>
      <rect class="uuid-f3073496-ce84-458e-b0e9-c3de07d7f58e" x="890.06" y="105.66" width="2.11" height="2.11"/>
      <rect class="uuid-f3073496-ce84-458e-b0e9-c3de07d7f58e" x="1334.25" y="457.83" width="2.11" height="2.11"/>
      <rect class="uuid-f3073496-ce84-458e-b0e9-c3de07d7f58e" x="1193.44" y="1018.33" width="2.11" height="2.11"/>
      <rect class="uuid-f3073496-ce84-458e-b0e9-c3de07d7f58e" x="1312.1" y="844.5" width="2.11" height="2.11"/>
      <rect class="uuid-f3073496-ce84-458e-b0e9-c3de07d7f58e" x="827.81" y="1243.33" width="2.11" height="2.11"/>
      <rect class="uuid-f3073496-ce84-458e-b0e9-c3de07d7f58e" x="568.59" y="1096.83" width="2.11" height="2.11"/>
      <rect class="uuid-f3073496-ce84-458e-b0e9-c3de07d7f58e" x="497.29" y="1549.04" width="2.11" height="2.11"/>
      <rect class="uuid-f3073496-ce84-458e-b0e9-c3de07d7f58e" x="195.75" y="1742.29" width="2.11" height="2.11"/>
      <rect class="uuid-f3073496-ce84-458e-b0e9-c3de07d7f58e" x="44.24" y="1550.1" width="2.11" height="2.11"/>
      <rect class="uuid-f3073496-ce84-458e-b0e9-c3de07d7f58e" x="910.54" y="1779.77" width="2.11" height="2.11"/>
      <rect class="uuid-f3073496-ce84-458e-b0e9-c3de07d7f58e" x="1256.72" y="1526.37" width="2.11" height="2.11"/>
      <rect class="uuid-f3073496-ce84-458e-b0e9-c3de07d7f58e" x="1753.26" y="1741.23" width="2.11" height="2.11"/>
      <rect class="uuid-f3073496-ce84-458e-b0e9-c3de07d7f58e" x="1646.69" y="1438.26" width="2.11" height="2.11"/>
      <rect class="uuid-f3073496-ce84-458e-b0e9-c3de07d7f58e" x="1521.01" y="1809.02" width="2.11" height="2.11"/>
    </g>
    <g class="uuid-2275a045-07df-4dd9-963f-ac195877284a">
      <rect class="uuid-f3073496-ce84-458e-b0e9-c3de07d7f58e" x="897.83" y="1563.02" width="1.62" height="1.62" transform="translate(-665.19 2462.47) rotate(-90)"/>
      <rect class="uuid-f3073496-ce84-458e-b0e9-c3de07d7f58e" x="517.84" y="995.76" width="1.62" height="1.62" transform="translate(-477.93 1515.22) rotate(-90)"/>
      <rect class="uuid-f3073496-ce84-458e-b0e9-c3de07d7f58e" x="487.65" y="1267.08" width="1.62" height="1.62" transform="translate(-779.42 1756.35) rotate(-90)"/>
      <rect class="uuid-f3073496-ce84-458e-b0e9-c3de07d7f58e" x="299.02" y="980.04" width="1.62" height="1.62" transform="translate(-681.02 1280.67) rotate(-90)"/>
      <rect class="uuid-f3073496-ce84-458e-b0e9-c3de07d7f58e" x="568.52" y="640.1" width="1.62" height="1.62" transform="translate(-71.57 1210.24) rotate(-90)"/>
      <rect class="uuid-f3073496-ce84-458e-b0e9-c3de07d7f58e" x="997.47" y="747.86" width="1.62" height="1.62" transform="translate(249.61 1746.95) rotate(-90)"/>
      <rect class="uuid-f3073496-ce84-458e-b0e9-c3de07d7f58e" x="864.45" y="657.05" width="1.62" height="1.62" transform="translate(207.39 1523.12) rotate(-90)"/>
      <rect class="uuid-f3073496-ce84-458e-b0e9-c3de07d7f58e" x="1169.66" y="1027.68" width="1.62" height="1.62" transform="translate(141.99 2198.96) rotate(-90)"/>
      <rect class="uuid-f3073496-ce84-458e-b0e9-c3de07d7f58e" x="1057.55" y="1226.05" width="1.62" height="1.62" transform="translate(-168.5 2285.22) rotate(-90)"/>
      <rect class="uuid-f3073496-ce84-458e-b0e9-c3de07d7f58e" x="1403.62" y="1280.61" width="1.62" height="1.62" transform="translate(123.01 2685.85) rotate(-90)"/>
      <rect class="uuid-f3073496-ce84-458e-b0e9-c3de07d7f58e" x="1551.51" y="1511.38" width="1.62" height="1.62" transform="translate(40.13 3064.51) rotate(-90)"/>
      <rect class="uuid-f3073496-ce84-458e-b0e9-c3de07d7f58e" x="1404.43" y="1627.33" width="1.62" height="1.62" transform="translate(-222.9 3033.38) rotate(-90)"/>
      <rect class="uuid-f3073496-ce84-458e-b0e9-c3de07d7f58e" x="1580.19" y="964.36" width="1.62" height="1.62" transform="translate(615.83 2546.17) rotate(-90)"/>
      <rect class="uuid-f3073496-ce84-458e-b0e9-c3de07d7f58e" x="1386.27" y="699.44" width="1.62" height="1.62" transform="translate(686.83 2087.32) rotate(-90)"/>
      <rect class="uuid-f3073496-ce84-458e-b0e9-c3de07d7f58e" x="1550.7" y="319.44" width="1.62" height="1.62" transform="translate(1231.27 1871.75) rotate(-90)"/>
      <rect class="uuid-f3073496-ce84-458e-b0e9-c3de07d7f58e" x="1318.84" y="400.99" width="1.62" height="1.62" transform="translate(917.85 1721.45) rotate(-90)"/>
      <rect class="uuid-f3073496-ce84-458e-b0e9-c3de07d7f58e" x="1602.58" y="497.18" width="1.62" height="1.62" transform="translate(1105.4 2101.37) rotate(-90)"/>
    </g>
  </g>
</svg>