<?xml version="1.0" encoding="UTF-8" standalone="no"?><!DOCTYPE svg PUBLIC "-//W3C//DTD SVG 1.1//EN" "http://www.w3.org/Graphics/SVG/1.1/DTD/svg11.dtd"><svg width="100%" height="100%" viewBox="0 0 121 123" version="1.1" xmlns="http://www.w3.org/2000/svg" xmlns:xlink="http://www.w3.org/1999/xlink" xml:space="preserve" xmlns:serif="http://www.serif.com/" style="fill-rule:evenodd;clip-rule:evenodd;stroke-linejoin:round;stroke-miterlimit:2;"><path d="M26.444,0c-10.831,12.142 -17.419,28.158 -17.419,45.693c0,37.934 30.799,68.719 68.721,68.719c15.938,-0 30.61,-5.43 42.273,-14.555c-12.585,14.123 -30.913,23.023 -51.301,23.023c-37.933,-0 -68.718,-30.785 -68.718,-68.718c-0,-21.994 10.35,-41.588 26.444,-54.162Z" style="fill:#fff;"/><path d="M67.433,79.127c0.481,-0 0.854,-0.039 1.119,-0.117c0.264,-0.078 0.401,-0.393 0.401,-0.921c-0,-0.167 -0.245,-0.649 -0.724,-1.442c-0.482,-0.804 -1.088,-1.794 -1.834,-2.961c-0.754,-1.174 -1.578,-2.429 -2.491,-3.762c-0.901,-1.333 -1.755,-2.619 -2.557,-3.843c-0.804,-1.225 -1.52,-2.294 -2.166,-3.206c-0.637,-0.902 -1.059,-1.517 -1.274,-1.842l-7.842,7.048l-0,9.604c-0,0.373 0.119,0.688 0.353,0.922c0.245,0.245 0.874,0.411 1.882,0.52l-0,0.96l-16.486,0l-0,-0.96c1.01,-0.109 1.636,-0.275 1.883,-0.52c0.234,-0.234 0.351,-0.549 0.351,-0.922l0,-37.304c0,-0.371 -0.117,-0.677 -0.351,-0.922c-0.245,-0.234 -0.873,-0.411 -1.883,-0.518l-0,-0.96l16.486,0l-0,0.96c-1.008,0.107 -1.637,0.284 -1.882,0.518c-0.234,0.245 -0.353,0.549 -0.353,0.922l-0,14.409l0.559,0c1.598,-1.55 3.323,-3.147 5.157,-4.803c1.842,-1.656 3.537,-3.186 5.087,-4.597c1.547,-1.42 2.841,-2.617 3.88,-3.607c1.04,-0.991 1.558,-1.589 1.558,-1.803c0,-0.482 -0.126,-0.755 -0.401,-0.833c-0.264,-0.089 -0.607,-0.147 -1.038,-0.206l-0,-0.96l20.337,0l0,0.96c-0.539,0.059 -0.971,0.137 -1.324,0.245c-0.342,0.098 -0.665,0.265 -0.96,0.479c-0.293,0.206 -0.616,0.462 -0.96,0.755c-0.343,0.294 -0.765,0.656 -1.244,1.088c-0,-0.009 -13.84,11.919 -13.84,11.919l16.328,24.417c0.423,0.646 0.824,1.008 1.196,1.127c0.373,0.097 0.833,0.156 1.364,0.156l-0,0.96l-18.329,0l0,-0.96l-0.002,-0Z" style="fill:#fff;fill-rule:nonzero;"/></svg>