<?xml version="1.0" encoding="UTF-8"?>
<svg id="Ebene_1" xmlns="http://www.w3.org/2000/svg" xmlns:xlink="http://www.w3.org/1999/xlink" version="1.1" viewBox="0 0 244.8 35.6">
  <!-- Generator: Adobe Illustrator 29.1.0, SVG Export Plug-In . SVG Version: 2.1.0 Build 142)  -->
  <defs>
    <style>
      .st0 {
        fill: none;
      }

      .st1 {
        clip-path: url(#clippath-1);
      }

      .st2 {
        clip-path: url(#clippath-2);
      }

      .st3 {
        fill: #fff;
      }

      .st4 {
        clip-path: url(#clippath);
      }
    </style>
    <clipPath id="clippath">
      <rect class="st0" width="244.8" height="34.6"/>
    </clipPath>
    <clipPath id="clippath-1">
      <rect class="st0" width="244.8" height="34.6"/>
    </clipPath>
    <clipPath id="clippath-2">
      <rect class="st0" x="-9" y="-7" width="262.8" height="42.6"/>
    </clipPath>
  </defs>
  <g class="st4">
    <g class="st1">
      <g class="st2">
        <path class="st3" d="M17.3,5c6.8,0,12.3,5.5,12.3,12.3s-5.5,12.3-12.3,12.3-12.3-5.5-12.3-12.3,5.5-12.3,12.3-12.3M44.6,5c6.8,0,12.3,5.5,12.3,12.3s-5.5,12.3-12.3,12.3-12.3-5.5-12.3-12.3,5.5-12.3,12.3-12.3M0,34.6h61.8V0H0v34.6ZM241.4,27.7h3.5V1h-3.5v26.7ZM160.2,15c.7-3.4,3.2-5.6,6.4-5.6s5.7,2.2,5.7,5.6h-12.1,0ZM166.4,6.2c-6,0-10.1,4.5-10.1,11.3s4.2,10.7,10.2,10.7,9-2.9,9.5-7.2h-3.6c-.5,2.4-2.7,4-5.7,4s-6.4-2.7-6.7-6.9h16.1v-1.1c0-6.5-4-10.8-9.7-10.8M211,16.2l-6.1-1.6c-1.6-.4-2.4-1-2.4-2.4s1.8-2.8,4.2-2.8,4.6,1.1,4.7,3.3h3.7c-.2-4-3.3-6.5-8.2-6.5s-8,2.2-8,6.4,2.3,4.8,4.9,5.4l5.4,1.3c1.7.4,2.4,1.3,2.4,2.5,0,2-1.8,3.1-4.7,3.1s-5-1.3-5.2-3.8h-3.6c.2,4.5,4,7,8.8,7s8.4-2.5,8.4-6.7-1.9-4.8-4.3-5.4M191.4,16.2l-6.1-1.6c-1.6-.4-2.4-1-2.4-2.4s1.8-2.8,4.2-2.8,4.6,1.1,4.7,3.3h3.7c-.2-4-3.3-6.5-8.2-6.5s-8,2.2-8,6.4,2.3,4.8,4.9,5.4l5.4,1.3c1.7.4,2.4,1.3,2.4,2.5,0,2-1.8,3.1-4.7,3.1s-5-1.3-5.2-3.8h-3.6c.2,4.5,4,7,8.8,7s8.4-2.5,8.4-6.7-1.9-4.8-4.3-5.4M221.6,15c.7-3.4,3.2-5.6,6.4-5.6s5.7,2.2,5.7,5.6h-12.1ZM227.8,6.2c-6,0-10.1,4.5-10.1,11.3s4.2,10.7,10.2,10.7,9-2.9,9.5-7.2h-3.6c-.5,2.4-2.7,4-5.7,4s-6.4-2.7-6.7-6.9h16.1v-1.1c0-6.5-4-10.8-9.7-10.8M151.5,6.8l-10,9.4V.4h-3.5v27.3h3.5v-7.2l3.4-3.2,7,10.3h4.2l-8.8-12.6,8.8-8.3s-4.6,0-4.6,0ZM82.9,23.8c-4,0-6.6-3-6.6-7s2.5-7.2,6.6-7.2,6.6,3,6.6,7.2-2.5,7-6.6,7M89.2,9.5c-1.6-2-3.9-3.2-6.9-3.2-6,0-9.7,4.3-9.7,10.5s3.8,10.3,9.7,10.3,5.3-1.2,6.9-3.2v1.5c0,3.8-2.3,5.9-6.4,5.9s-5.7-1.2-6-3.2h-3.7c.7,4,4.5,6.5,9.7,6.5s9.9-3.5,9.9-9.9V6.8h-3.5s0,2.7,0,2.7ZM130,16.2l-6.1-1.6c-1.6-.4-2.4-1-2.4-2.4s1.8-2.8,4.2-2.8,4.6,1.1,4.7,3.3h3.7c-.2-4-3.3-6.5-8.2-6.5s-8,2.2-8,6.4,2.3,4.8,4.9,5.4l5.4,1.3c1.7.4,2.4,1.3,2.4,2.5,0,2-1.8,3.1-4.7,3.1s-5-1.3-5.2-3.8h-3.6c.2,4.5,4,7,8.8,7s8.4-2.5,8.4-6.7-1.9-4.8-4.3-5.4M110.6,18.6c0,4.3-3.2,6.3-6.4,6.3s-4-1.2-4-3.3,1.5-3.2,4.3-3.5l6.2-.8s0,1.3,0,1.3ZM105.7,6.2c-5,0-8.3,2.5-8.6,6.4h3.7c.2-1.9,1.9-3.2,4.9-3.2s4.9,1.5,4.9,4.4v.2l-7.2,1c-4.4.6-6.8,3.2-6.8,6.7s2.7,6.5,7.2,6.5,5.7-1.5,6.8-3.7v3.2h3.5v-13.8c0-5.2-2.8-7.7-8.4-7.7"/>
      </g>
    </g>
  </g>
</svg>