<?xml version="1.0" encoding="UTF-8"?>
<svg xmlns="http://www.w3.org/2000/svg" viewBox="0 0 538.52 539.4">
  <defs>
    <style>
      .uuid-bee0efc2-d08f-41e0-a86a-cb4c3e2d60f5 {
        stroke-dasharray: 5 5 5 5 5 5;
      }

      .uuid-bee0efc2-d08f-41e0-a86a-cb4c3e2d60f5, .uuid-63b91614-9b34-4b2f-bae6-fe56b59e729f, .uuid-fc685332-33a1-4e20-aaff-dfef20bb9a7f {
        fill: none;
        stroke: #fff;
        stroke-linejoin: round;
      }

      .uuid-bee0efc2-d08f-41e0-a86a-cb4c3e2d60f5, .uuid-fc685332-33a1-4e20-aaff-dfef20bb9a7f {
        stroke-width: 2px;
      }

      .uuid-fc685332-33a1-4e20-aaff-dfef20bb9a7f {
        stroke-linecap: round;
      }

      .uuid-f132fa17-f221-4527-bde3-88faa4676ff7 {
        fill: #fff;
      }
    </style>
  </defs>
  <g id="uuid-19463cea-bc0d-406d-b2c5-e0d50c1b23f5" data-name="Ebene 3">
    <g>
      <circle class="uuid-63b91614-9b34-4b2f-bae6-fe56b59e729f" cx="258.44" cy="99.61" r="7.49"/>
      <path class="uuid-63b91614-9b34-4b2f-bae6-fe56b59e729f" d="M244.34,138.61c-1.63,0-2.94-1.33-2.94-2.95.06-14.89,1.04-26.52,17.04-26.52s16.98,11.63,17.04,26.52c0,1.63-1.31,2.95-2.94,2.95h-28.21Z"/>
    </g>
    <polygon class="uuid-63b91614-9b34-4b2f-bae6-fe56b59e729f" points="112.91 64.52 92.73 84.71 98.64 84.71 98.64 103.15 114.58 103.15 114.58 88.1 122.92 88.1 122.92 103.15 127.18 103.15 127.18 84.71 133.1 84.71 112.91 64.52"/>
    <g>
      <path class="uuid-63b91614-9b34-4b2f-bae6-fe56b59e729f" d="M184.79,51.13c6.84-.44,7.37,3.65,10.77,7.83,2.87,3.53,10.06,3.64,8.6,9.64-1.8,7.39-11.17,3.92-16.47,4.61-3.38.44-6.49,2.75-9.93,3.03-3.97.33-8.36-1.1-10.37-4.74-2.84-5.15,3.42-6.95,6.04-10.13s1.24-6.3,5.5-8.6c1.66-.9,3.97-1.52,5.85-1.64Z"/>
      <path class="uuid-63b91614-9b34-4b2f-bae6-fe56b59e729f" d="M184.4,36.65c5.52-.72,7.06,10.46,1.55,12.6-3.49,1.36-5.65-2.63-5.85-5.58-.18-2.72,1.2-6.62,4.29-7.02Z"/>
      <path class="uuid-63b91614-9b34-4b2f-bae6-fe56b59e729f" d="M202.57,49.47c3.28-.26,4.25,3.65,3.8,6.22-.49,2.83-3.28,6.55-6.49,4.9-3.87-1.99-2.03-10.75,2.69-11.13Z"/>
      <path class="uuid-63b91614-9b34-4b2f-bae6-fe56b59e729f" d="M173.73,41.22c5.03-.61,7.03,9.77,2.06,11.46-5.82,1.98-7.96-10.74-2.06-11.46Z"/>
      <path class="uuid-63b91614-9b34-4b2f-bae6-fe56b59e729f" d="M166.49,51.76c5.22-.98,8.23,8.56,3.96,10.95-3.72,2.08-6.87-3.31-6.86-6.47,0-1.63,1.14-4.15,2.9-4.48Z"/>
      <path class="uuid-63b91614-9b34-4b2f-bae6-fe56b59e729f" d="M194.44,41.34c5.69-.96,5.99,8.6,1.69,10.96-3.63,1.99-5.77-1.85-5.6-5.09.12-2.12,1.56-5.48,3.91-5.87Z"/>
      <path class="uuid-63b91614-9b34-4b2f-bae6-fe56b59e729f" d="M185.32,34.58l-1.91.13c.2-2.22.33-4.66.86-6.82.05-.2.02-.41.22-.55l.83,7.24Z"/>
      <path class="uuid-63b91614-9b34-4b2f-bae6-fe56b59e729f" d="M173.48,38.62l-1.37.28c.12-1.95.36-3.88,1.09-5.7l.68-1.16-.41,6.58Z"/>
      <path class="uuid-63b91614-9b34-4b2f-bae6-fe56b59e729f" d="M204.76,47.66l-1.5-1.23c.24-2.22-.19-4.43-.27-6.65l.79,1.56c.73,2.06.83,4.16.99,6.31Z"/>
      <path class="uuid-63b91614-9b34-4b2f-bae6-fe56b59e729f" d="M165.13,50.46l-.25-.06c.09-2.1.27-4.24,1.01-6.23l.76-1.58-.38,4.5.14,2.03c-.08.44-1.25.7-1.28,1.34Z"/>
      <path class="uuid-63b91614-9b34-4b2f-bae6-fe56b59e729f" d="M196.5,38.9l-1.38-.46-.27-6.4.7,1.27c.67,1.78,1.04,3.68.95,5.59Z"/>
    </g>
    <line class="uuid-bee0efc2-d08f-41e0-a86a-cb4c3e2d60f5" x1="112.91" y1="121.2" x2="112.91" y2="232.92"/>
    <line class="uuid-bee0efc2-d08f-41e0-a86a-cb4c3e2d60f5" x1="185.51" y1="92.36" x2="185.51" y2="294.45"/>
    <line class="uuid-bee0efc2-d08f-41e0-a86a-cb4c3e2d60f5" x1="258.44" y1="155.71" x2="258.44" y2="343.27"/>
    <path class="uuid-fc685332-33a1-4e20-aaff-dfef20bb9a7f" d="M258.44,327.9c-27.43-1.71-33.13,14.43-67.94-5.67-17.95-10.37-12.73-28.8-42.11-35.14-25.69-5.54-26.13-25.74-30.8-47.23"/>
  </g>
  <g id="uuid-af473a77-b3fc-4d0c-b7c2-6f74f3fae725" data-name="Ebene 1">
    <path class="uuid-f132fa17-f221-4527-bde3-88faa4676ff7" d="M163.12,169.79c-9.46,1.76-10.65-11.45-21-9.24-11.38,2.43-33.16,13.65-43.23,20.23-1.66,1.09-4.57,2.13-4.53,4.5,7.39-1.95,14.19-8.29,21-10.87,1.93-.73,2.54-1.54,3.07,1.04-9,2.9-18.28,13.66-27.96,10.73-1.11-2.88,15.31-11.83,18.12-13.36,7.73-4.21,32.24-16.74,39.84-14.08,4.3,1.51,7.25,7.66,11.8,8.92-6.02-7.02-10.86-16.03-21.37-13.47-20.66,5.04-61.16,24.37-80.71,34.86-21.89,11.75-23.9,14.05-8.4,34.31,14.29,18.67,32.63,35.56,47.18,54.2,4.07,2.13,8.54,2.02,12.59,4.73,6.13,4.1,8.14,9.66,10.25,16.44-1.94,2.62-5.16,0-7.11-1.45-3.74-2.78-12.82-15.01-15.18-15.89-3.49-1.29-10.58,2.24-10.35,6.08,1.63,11.53,26.15,11.83,30.48,17.58,3.98,5.29-2.68,13.51-.9,14.45,7.22-15.99,21.63-19.96,26.56.3.85,3.5.16,9.38,1.44,12.28,1.44,3.26,9.56,7.22,4.39,12.24-2.99,2.91-7.89,2.41-11.52,1.39l-15.66-8.99c3.98,10.38,19.3,12.51,25.3,20.05,5.56,6.99,3.53,19.99,10.13,27.59l-2.52-10.12c-1.33-10.69-3.27-24.92,7.45-31.57,4.22-2.62,7.95-2.78,12.27-4.4l-103.42-107.33c-4.85-6.38-4.09-10.13,2.45-14.45,27.54-12.35,54.48-30.94,81.92-42.86,1.72-.74,4.5-2.12,6.27-1.78l164.57,168.48.39,2.57c-12.65,9.23-31.25,14.59-37.31,30.52,7.41-2.56,22.55-.03,18.19,10.43-5.77,13.84-20.84,4.99-21.26-7.17-2.6-1.27-34.49,18.63-39,21.95-7.39,5.46-9.98,6.54-5.6,16.07,2.31,5.03,11.31,16.69,17.42,14.38,10.47-3.96,30.83-18.52,41.12-25.27,11.96-7.85,39.97-25.23,46.93-36.56,4.88-7.94-.32-12.62-5.24-18.82-37.57-47.27-93.5-88.28-133.88-133.89-7.2-8.39-12.88-20.97,2.5-23.74,8.14-1.47,16,8.15,22.46,11.95s14.79,4.45,20.68,9.12c4.26,3.38,7.12,8.01,10.95,11.6,18.73,17.53,40.46,31.17,60.85,46.6,14.85,11.24,29.36,24.41,44.42,35.05,39.01,27.56,90.03,36.49,132.27,57.14,2.48,1.21,10.2,5.61,11.26,7.62,2.03,3.85-8.34,1-9.67.68-26.92-6.51-90.41-38.63-114.7-31.37-13.39,4-14.74,19.73-15.8,31.65-1.72,19.39,3.8,39.12-17.83,49.73.59,1.29,1.92.97,3,1.06,13.11,1.08,25.5-1.07,39.24,1.04,34.62,5.32,78.97,32.03,108.77,50.74,1.86,1.17,13.66,8.15,13.08,9.53-1.86,1.21-2.49-.37-3.79-1.04-12.69-6.58-25.49-16.26-38.12-23.49-36.83-21.09-80.01-41.89-123.99-34.81-6.15.99-13.78,7.03-19.79,9.18-10.75,3.83-36.37,4.69-44.85-4.21-8.74-9.18,16.04-8.04,20.94-8.15,9.54-.22,32.9,2.75,40.08,1.04,8.46-2.01,18.66-13.77,20.07-22.5,2.95-18.3-4.76-55.26,19.23-61.9,22.07-6.11,80.4,20.43,103.79,28.01,1.88.61,15.15,4.94,15.72,3.85-3.74-2.79-7.79-4.86-12.02-6.78-43.79-19.89-93.07-29.56-132.37-58.62-27.73-20.51-58.41-43.13-85.18-64.58-8.78-7.03-22.09-23.09-29.27-27.46-5.66-3.44-17.1-4.06-22.68-9.83l.23,4.77c-3.08,4.61-14.09-5.65-16.59-8.13-1.3-1.29-2.26-2.79-3-4.44-8.27,1.82-4.89,9.45-1.77,14.66,39.47,43.84,85.42,81.98,125.34,125.48,5.59,6.09,20.23,20.31,19.92,28.25-.26,6.73-12.32,16.63-17.41,20.7-9.01,7.23-19.77,14.13-29.45,20.56-9.61,6.38-36.36,25.11-45.65,27.84-7.01,2.06-13.83-7.65-17-12.99l1.4,8.81c-.42,5.93-12.15-2.43-14-4.33-8.79-9.04-1.81-30.42-14.9-39.07l-1.7,1.15c6.6,6.14-1.23,25.38-10.73,19.69-4.8-2.87-2.49-5.39-4.14-9.49-12.81,28.59,13.66,24.52,31.79,30.39-.76,6.67-14.77,5.81-19.81,4.04-7.07-2.49-9.25-7.31-14.26-11.18-11.93-9.21-26.12-19.33-36.69-29.91-10.28-10.28-6.98-16.95-11.3-27.54-3.16-7.75-22.24-12.41-28.24-22.98-1.73-3.05-5.25-12.19-5.68-15.51-.64-4.9,5.3-11.65,2.39-15.73-3.08-4.32-24.15-6.34-29.26-14.23-2.97-4.6-2.24-9.07,2.7-11.72,2.37-1.27,6.96-.36,5.6-2.74-14.48-16.56-30.19-32.38-43.86-49.62-9.69-12.21-22.43-23.06-5.15-34.75,17.38-11.75,72.82-36.74,92.94-41.62,11.11-2.69,19.68,8.96,24.02,17.81ZM324.84,342.43l-162.68-168.04c-1.75-.87-3.41.06-5.01.75-11.3,4.85-24.42,12.66-35.68,18.48-14.17,7.33-33.31,16.03-46.23,24.43-9.97,6.48-2.37,11.97,3.34,18.64,41.63,48.62,93.14,93.6,136.55,141.55,7.76,8.57,17.37,17.47,21.5,28.25,6.49-8.82,18.65-15.93,28.26-21.49,4.11-2.38,8.64-5.2,12.82-7.27,2.7-1.34,7.05-1.92,9.18-3.34.42-.28,1.02-3.84,2.03-5.46,7.95-12.75,23.35-19.37,35.92-26.5ZM226.02,205.31c-2.51-6.71-9-11.67-16.12-12.18-.62,1.75,10.1,10.25,12.2,11.41,1.33.73,2.29,1.79,3.91.78ZM117.02,297.09c-1.82-7.45-7.97-15.3-16.21-15.33l16.21,15.33ZM126.68,309.73c-4.66,2.64-10.82,14.2-8.63,19.3,2.59,6.01,26.67,22.44,30.18,12.54,1.22-3.45-4.45-5.96-5.78-9.67-1.07-2.98-.21-7.87-1.06-11.41-1.83-7.61-5.99-15.71-14.7-10.77ZM171.5,342.27c-4.61-2.35-12.74,9.02-11.23,15.12,3.58,14.39,22.73-9.26,11.23-15.12ZM188.88,395.96c2.62-7.17-4.53-10.82-7.33-15.87-6.6-11.88.44-21.2-1.65-32.34-.6-3.18-1.26-5.06-4.62-6.02.42,3.88,2.36,5.91,1.48,10.03-1.85,8.73-15.16,18.85-18.33,6.32-.78-3.08,1.07-5.6-.3-7.98-7.83,21.71,3.4,43.99,25.86,49.93,1.77-.03,4.32-2.55,4.87-4.07ZM183.16,347.36c-2.72.56-1.33.8-1.36,2.07-.25,9.28-3.26,21.2,1.18,29.28,2.92,5.32,8.82,6.92,8.01,14.73-1.11,10.75-7.96,9.48-15.54,5.6l17.5,15.93.04-12.03c.25-6.81,9.49-18.37,15.23-20.84,2.87-1.23,5.16.78,7.82.02l-32.88-34.75ZM206.83,386.74c-4.9,2.3-10.24,15.77-1.87,16.73,6.88.78,10.59-13.83,6.98-16.67-1.71-.78-3.37-.87-5.11-.05ZM241.4,425.47l-8.89-24.39-10.57-11.55c7.28,13.91-.54,31.3,17.93,37.56l1.53-1.63ZM288.23,376c1.35,8.77,9.11,18.97,16.51,8.86s-10.04-11.81-16.51-8.86ZM227.07,426.96l-25.42-5.6c6.11,7.47,16.7,8.97,25.42,5.6ZM345.75,423.05c-18.86.98-38.29-3.06-56.82,1.57-1,1.89,8.92,6.23,10.46,6.78,14.66,5.21,30.33,1.51,43.8-5.27,1.34-.68,2.82-1.24,2.55-3.08Z"/>
  </g>
</svg>