<?xml version="1.0" encoding="UTF-8"?>
<svg id="OBJECTS" xmlns="http://www.w3.org/2000/svg" viewBox="0 0 687 409.7">
  <defs>
    <style>
      .cls-1 {
        fill: #fff;
      }
    </style>
  </defs>
  <g>
    <path class="cls-1" d="M613.88,9.88c2.64-.71,5.3,4.72,6.61,6.59,4.05,7.01,6.5,15.27,5.84,23.41-.23,1.62-.65,3.23-1.46,4.65.6-1.51.91-3.09.97-4.69.1-8-2.41-15.91-6.02-22.99-.73-1.43-1.56-2.8-2.44-4.15-.82-1.25-1.77-3-3.5-2.81h0Z"/>
    <path class="cls-1" d="M623.27,37.87c1.64,4.03,1.07,9.03-1.45,12.59,1.22-4.19,1.68-8.23,1.45-12.59h0Z"/>
    <path class="cls-1" d="M619.57,45.33c.62,4.48-.42,9.24-2.87,13.05,1.17-4.39,2.09-8.57,2.87-13.05h0Z"/>
    <path class="cls-1" d="M615.68,54.2c.59,4.34-1.51,9.08-5.12,11.55,2.59-3.53,4.25-7.26,5.12-11.55h0Z"/>
    <path class="cls-1" d="M619.5,76.58c-.72-2.17-1.66-4.25-2.84-6.18-.26-.43-.55-.83-.97-1.09-.64-.55-.34-1.34-.41-1.99,0-.12-.03-.24-.05-.28-.06-.01.14.05-.04.03-.84.03-1.72.06-2.55.12-7.39.41-14.76,1.76-22.19,1.85,0,0-.86,0-.86,0-2.13-.02-3.67-1.78-5.6-2.27-3.3-.52-2.93,7.79-4.27,9.88,1.24-2.56.17-11.04,4.42-10.51,1.94.4,3.52,2.07,5.45,2.06,0,0,.85-.02.85-.02,7.42-.25,14.73-1.59,22.17-1.82.84-.02,1.75-.02,2.58,0,.04,0,.21,0,.36.07.16.07.26.21.31.33.09.23.09.4.1.56.04.47-.17,1.17.07,1.5.48.32.83.83,1.09,1.33,1.07,2.04,1.89,4.21,2.38,6.45h0Z"/>
    <path class="cls-1" d="M589.18,66.34c-2.79-1.48-4.99-4.04-6.03-7.02,2.23,2.26,4.13,4.48,6.03,7.02h0Z"/>
    <path class="cls-1" d="M583.15,64.9c-2.29-.73-4.19-2.43-5.16-4.63,2.03,1.31,3.63,2.76,5.16,4.63h0Z"/>
    <path class="cls-1" d="M579.85,64.06c-6.35-7.59-12.09-16.9-11.49-27.17.12-1.44.32-2.87.73-4.24-.18,1.42-.29,2.84-.24,4.25.16,10.1,5.75,18.89,11,27.16h0Z"/>
    <path class="cls-1" d="M567.91,48.19c-2.73-13.56-.14-31.34,13.9-37.59,4.41-1.88,9.58-2.24,14.02-.31-4.48-1.51-9.47-.98-13.7,1.01-13.51,6.49-15.74,23.47-14.22,36.89h0Z"/>
    <path class="cls-1" d="M614.01,7.93c-5.95-1.23-13.18-1.7-17.04,3.84,2.65-6.6,11.58-6.57,17.04-3.84h0Z"/>
    <path class="cls-1" d="M617.13,20.63c-1.36-3.33-3.94-5.6-7.41-6.53,3.69-.66,7.6,2.82,7.41,6.53h0Z"/>
    <path class="cls-1" d="M621.87,34.6c-2-3.79-4.11-7.19-6.61-10.66,3.49,2.46,5.95,6.45,6.61,10.66h0Z"/>
    <path class="cls-1" d="M615.92,32.25c2.61,8.19,1.42,17.59-3.11,24.89.33-.86.81-2.11,1.1-3,2.42-7.01,3.04-14.55,2.01-21.89h0Z"/>
    <path class="cls-1" d="M611.17,47.67c.61,4.43-1.29,9.26-4.76,12.09,2.38-3.79,3.92-7.69,4.76-12.09h0Z"/>
    <path class="cls-1" d="M579.35,34.58c-2,6.02-1.15,12.49,2.32,17.8-4.7-4.35-5.74-12.39-2.32-17.8h0Z"/>
    <path class="cls-1" d="M573.82,37.87c.5,3.15.65,6.14.47,9.32-1.18-2.95-1.34-6.27-.47-9.32h0Z"/>
    <path class="cls-1" d="M619.42,79.6c-10.23-3.38-21.39-3.78-31.81-1.02-1.31.34-3.16.92-4.44,1.34.7-.33,1.41-.65,2.12-.96,10.8-4.43,23.53-4.3,34.13.65h0Z"/>
    <path class="cls-1" d="M620.3,75.93c9.71,5.16,19.43,10.3,29.11,15.52,4.33,2.46,10.55,5.15,14.1,8.68,4.07,4.05,4.96,9.93,6.46,15.2,5.45,21.35,7.29,43.63,5.45,65.59,0,0-.29-.39-.29-.39l3.27.75c.14.03.24.15.27.28.96,5.79,1.61,13.43-4.04,17.09-5.27,3.19-11.84,3.9-17.83,2.91,5.96.85,12.46,0,17.59-3.25,5.38-3.69,4.6-10.97,3.6-16.63,0,0,.26.28.26.28l-3.28-.71c-.18-.04-.3-.21-.29-.39.76-10.95.75-21.95-.21-32.88-.97-10.92-2.72-21.79-5.4-32.43-1.44-5.13-2.28-10.91-6.17-14.83-3.31-3.49-9.7-6.24-13.8-8.71-9.63-5.31-19.21-10.71-28.8-16.08h0Z"/>
    <path class="cls-1" d="M674.09,181.53c-6.16,4.65-14.27,6.89-21.94,6.05,7.71-.59,15.02-2.61,21.94-6.05h0Z"/>
    <path class="cls-1" d="M664.28,188.49c-2.09,1.57-5.07,1.92-7.46.88,2.61-.36,4.85-.62,7.46-.88h0Z"/>
    <path class="cls-1" d="M658.29,146.98c-.2-5.14-4.26-9.03-6.99-13.06-3.04-3.94-6.73-7.67-11.76-8.8,1.27.09,2.52.4,3.74.85,3.6,1.49,6.47,4.31,8.81,7.34,1.56,2.04,2.96,4.15,4.26,6.36,1.26,2.18,2.38,4.75,1.94,7.32h0Z"/>
    <path class="cls-1" d="M661.28,134.86c.86,13-.42,23.68-8.7,34.22-1.05,1.36-2.11,2.71-3.25,4,.96-1.43,1.94-2.83,2.85-4.28,7.74-11.29,8.56-20.71,9.11-33.94h0Z"/>
    <path class="cls-1" d="M648.9,151.64c-1.45-4.56-3.4-8.62-6.04-12.62,3.69,3.02,5.99,7.85,6.04,12.62h0Z"/>
    <path class="cls-1" d="M653.59,171.21c.1,11.97-.48,23.98-.04,35.94.25,8.02,2.54,15.8,2.47,23.86-.18,12.17-7.06,23.98-17.58,30.11-.26.16-.59-.16-.41-.42,3.58-5.8,5.95-12.34,6.92-19.1-.7,6.82-2.9,13.5-6.41,19.41,0,0-.41-.42-.41-.42,10.11-6.21,16.79-17.71,16.9-29.6.07-7.97-2.14-15.82-2.34-23.81-.3-12.01.51-23.99.9-35.98h0Z"/>
    <path class="cls-1" d="M638.61,260.73c-8.77,6.94-20.67,6.61-31.29,7.33-8.14.13-16.37.6-24.43-.82-2.67-.57-5.3-1.45-7.61-2.89,2.42,1.24,5.03,2.01,7.7,2.4,8.03,1.06,16.22.5,24.3.3,10.6-.64,22.18-.13,31.33-6.33h0Z"/>
    <path class="cls-1" d="M631.16,257.9c-4.54.4-8.5-2.52-12.16-4.8-7.41-4.81-14.42-10.25-20.93-16.23-1.62-1.5-3.22-3-4.97-4.31-1.73-1.34-3.64-2.46-5.74-3.15,2.17.47,4.17,1.53,6.02,2.75,1.84,1.26,3.52,2.71,5.2,4.13,6.67,5.75,13.62,11.15,20.85,16.17,3.58,2.42,7.21,5.39,11.73,5.44h0Z"/>
    <path class="cls-1" d="M610.05,256.3c-7.86-4.05-15.45-8.73-22.59-13.94,7.86,4.05,15.44,8.73,22.59,13.94h0Z"/>
    <path class="cls-1" d="M594.78,256.57c-4.54-1.61-8.5-5.07-10.68-9.37,3.35,3.49,6.78,6.51,10.68,9.37h0Z"/>
    <path class="cls-1" d="M601.46,178.51c-9.68-12.87-13.97-28.84-17.05-44.4-.41-2.24-.84-4.48-1.21-6.73,4.4,17.35,8.47,35.92,18.26,51.14h0Z"/>
    <path class="cls-1" d="M585.94,157.23c-2.52-5.7-4.39-11.61-5.6-17.72,2.52,5.69,4.38,11.61,5.6,17.72h0Z"/>
    <path class="cls-1" d="M673.56,200.13c.94,21.23,1.21,42.62.81,63.87-.94-21.24-1.21-42.62-.81-63.87h0Z"/>
    <path class="cls-1" d="M661.4,260.21c-2.42-10.13-4.45-20.4-6.03-30.7,2.92,10,4.95,20.33,6.03,30.7h0Z"/>
    <path class="cls-1" d="M674.26,262.24c1.27,4.02,2.64,8,4.21,11.9,1.49,3.91,3.48,7.73,4.01,12.04.71,5.64-2.63,13.94-7.45,17.11-3.89,2.44-9.25.98-11.93-2.56-1.39-1.85-3.59-5.69-1.69-7.8.81-.82,1.99-.87,2.77-1.54.87-.75.48-1.28-.26-2.04-3.96-4.51-4.64-10.92-4.28-16.68.41-4.22,2.36-8.16,1.76-12.46.83,4.21-.96,8.35-1.23,12.5-.21,5.62.55,11.74,4.39,16.07,1.05.97,1.47,2.19.2,3.28-.81.75-2,.82-2.71,1.51-.29.28-.43.68-.46,1.13.02,1.89,1.08,3.93,2.26,5.42,2.44,3.15,7.2,4.5,10.69,2.36,4.56-3,7.72-10.88,7.18-16.22-.4-4.13-2.3-7.98-3.71-11.95-1.42-3.97-2.71-7.99-3.77-12.07h0Z"/>
    <path class="cls-1" d="M669.83,269.61c-.85,5.95-.45,9.67,3.95,14.03,1.75,1.94,3.56,4.13,4.02,6.82.51,2.68-.13,5.54-1.74,7.74-.07.1-.19.17-.3.18-2.24.29-4.58-.48-6.16-2.07l.55-.03c-1.23,1.53-.06,3.73,1.24,4.87.6.52.92,1.34,1.79,1.41,1.29.15,1.34.16-.02.18-.4,0-.87-.16-1.17-.47-1.27-1.07-2.62-2.15-2.95-3.9-.19-.84-.05-1.84.53-2.57.13-.16.36-.19.51-.06,1.48,1.35,3.58,2.03,5.55,1.74,0,0-.3.18-.3.18,1.44-2.01,1.93-4.62,1.51-7.04-.58-3.82-4.11-6.35-6.11-9.54-2.32-3.4-1.76-7.7-.89-11.48h0Z"/>
    <path class="cls-1" d="M665.63,298.05c1.41,2.59,3.15,4.43,5.65,5.99-2.99-.11-5.71-3-5.65-5.99h0Z"/>
    <path class="cls-1" d="M667.77,280.1c1.17,3.8-.05,7.72,1.37,11.46.32,1.27.64,2.66.38,4.07-.03.19-.19.33-.37.35-1.82.16-2.27-1.73-3.27-2.61-.93-.77-2.43-.95-3.59-.24.99-.93,2.71-1.08,3.95-.25,1.04.62,1.53,2.31,2.77,2.2,0,0-.38.38-.38.38.28-2.55-1.16-4.96-1.17-7.58.11-2.68.56-5.12.31-7.79h0Z"/>
    <path class="cls-1" d="M675.06,263.03c-1.61,2.49-5.13,2.22-7.74,2.17-2.7-.14-5.97-1.58-6.59-4.47,1.36,2.42,4.06,3.3,6.67,3.47,2.56.04,5.54.66,7.66-1.17h0Z"/>
    <path class="cls-1" d="M675.58,265.53c-4.24,2.96-10.51,2.47-14.36-.94-.53-.5-1.04-1.12-1.15-1.86.32.65.85,1.11,1.45,1.47,4.21,2.6,9.37,3,14.06,1.32h0Z"/>
    <path class="cls-1" d="M579.71,76.65c-4.69,3.96-10.43,6.68-16.49,7.81,0,0,.15-.16.15-.16-1.54,20.8-1.31,41.73.78,62.48.69,6.92,1.62,13.81,2.72,20.67.04.26-.13.5-.38.56-3.96.91-8.13.83-12.05-.22-.19-.05-.32-.2-.34-.38-1.24-9.44-3.54-26.3-4.72-35.57-1.72-15.2-2.98-30.95,1.34-45.84-3.98,14.95-2.45,30.59-.61,45.75,1.29,9.18,3.65,26.17,4.92,35.51,0,0-.34-.38-.34-.38,3.77,1,7.79,1.05,11.59.17l-.38.56c-1.12-6.88-1.99-13.8-2.67-20.73-1.36-13.87-1.87-27.82-1.46-41.75.2-6.96.59-13.92,1.25-20.85,0-.08.07-.15.15-.16,6.02-1,11.79-3.59,16.55-7.45h0Z"/>
    <path class="cls-1" d="M561.64,85.42c-5.74.25-11.74.54-16.96,3.14-4.97,2.5-9.28,7.88-8.4,13.66.03.17-.09.33-.25.36-1.42.29-2.53,1.37-3.24,2.65-1.57,2.51-2.71,10.25-3.47,13.18-.66,3.03-2.31,10.55-2.95,13.47-.64,3.01-1.36,6.16-3.14,8.74-1.58,2.48-3.84,4.84-4,7.85-.1,1.39.47,2.97.07,4.66-.37,1.64-1.32,2.96-2.12,4.24-2.56,3.8-3.25,8.38-3.41,12.9.18,3.92-1.38,10.24,3.75,11.38,4.39.74,9.14.73,13.56.18,6.55-.8,13.53-5.21,14.36-12.2.07-.66.23-1.44-.54-1.68-1.41-.32-2.99-.54-4.48-.82l-18.11-3.14,18.17,2.75c1.36.19,3.21.46,4.58.74.98.23,1.05,1.4.9,2.2-.35,3.95-2.94,7.39-6.1,9.6-6.56,4.39-15.03,4.22-22.56,3.21-5.67-1.2-4.37-7.95-4.47-12.26.12-4.59.87-9.49,3.51-13.4.82-1.29,1.67-2.55,1.98-3.93.36-1.35-.16-2.83-.07-4.49.18-3.28,2.53-5.75,4.19-8.32,1.74-2.51,2.4-5.47,3.05-8.43.64-2.89,2.34-10.48,3-13.45,0,0,2.04-8.97,2.04-8.97.75-2.92,2.01-6.56,5.37-7.31,0,0-.25.36-.25.36-.85-6.08,3.63-11.61,8.86-14.09,5.34-2.52,11.34-2.68,17.12-2.81h0Z"/>
    <path class="cls-1" d="M538.24,170.47c-4.2.58-8.73-.79-11.91-3.6,3.94,1.61,7.73,2.76,11.91,3.6h0Z"/>
    <path class="cls-1" d="M543.29,159.31c-5.75,1.03-11.5,1.56-17.34,1.58,5.67-1.39,11.51-1.91,17.34-1.58h0Z"/>
    <path class="cls-1" d="M538.61,162.19c-1.94,1.43-5.13.87-6.46-1.14,2.25.8,4.08,1.13,6.46,1.14h0Z"/>
    <path class="cls-1" d="M544.6,151.39c-.96,5.61.49,11.06,2.92,16.1,2.25,5.03,5.14,10.47,4.18,16.18,0,.06-.06.1-.12.09-.06,0-.1-.06-.09-.11.03-.59.07-1.18.11-1.77.04.59.09,1.18.11,1.77h-.22c.32-5.71-2.65-10.69-4.87-15.76-2.41-5.05-3.73-11.03-2.01-16.5h0Z"/>
    <path class="cls-1" d="M549.5,157.81c-4.96-9.62-7.51-20.53-7.35-31.35.1.67.18,1.34.26,2.01,1.25,10.02,3.67,19.84,7.1,29.34h0Z"/>
    <path class="cls-1" d="M542.55,150.27c-2.12-4.18-3.99-8.3-5.71-12.66,2.92,3.65,4.9,8.05,5.71,12.66h0Z"/>
    <path class="cls-1" d="M564.57,167.95c.25,2.77.36,5.54.45,8.31,0,.36,0,.78-.2,1.22-.66,1.11-1.98,1.2-3.07,1.53-1.41.32-2.88.35-4.3.16-.23-.03-.4-.22-.41-.44-.19-3.47-.32-6.93-.27-10.41.55,3.43.91,6.88,1.23,10.34,0,0-.42-.44-.42-.44,1.96.23,4.03-.02,5.87-.74.28-.11.47-.25.57-.42.41-2.96.2-6.11.56-9.12h0Z"/>
    <path class="cls-1" d="M574.1,250.93c.26-23.2-2.08-46.41-7.05-69.05-.25-1.25-.6-2.45-1.68-2.85-3.59-1.1-7.52.3-10.59,2.27-6.33,4.39-10.47,11.28-16.07,16.53-7.23,7.37-15.1,14.07-22.68,21.07-3.74,3.5-7.55,7.02-10.95,10.84-1.65,1.92-3.1,4.06-3.81,6.44-.98,2.97,2.06,3.6,4.36,2.79,4.9-1.53,8.4-5.68,12.17-9,0,0,22.71-21.02,22.71-21.02l11.39-10.47c1.9-1.7,3.71-3.68,6.19-4.6,2.34-.93,5.76-.05,6.4,2.63-.3-1.28-1.4-2.22-2.6-2.61-4.02-1.33-7.16,2.29-9.82,4.76,0,0-11.22,10.65-11.22,10.65-4.24,3.94-24.26,22.99-28.21,26.49-9.11,7.99-17.72,4.5-8.24-6.66,10.44-11.46,22.78-20.96,33.64-31.99,3.67-3.64,6.95-7.57,10.38-11.44,3.47-3.84,7.91-7.37,13.27-7.88,3.13-.25,5.75.22,6.19,3.86,4.8,22.73,6.92,46.02,6.23,69.23h0Z"/>
    <path class="cls-1" d="M573.65,254.58c3.31,8.77.03,18.4-4.36,26.19-4.45,7.96-10.76,15.31-19.39,18.86-6.45,2.71-16.68,3.64-22.12-1.65-3.44-4.04-1.07-9.83-2.22-14.33-.37-.35-1.31-.09-1.88-.18-2.02-.17-3.86-1.31-5.2-2.73-5.69-6.46-7.45-17.74-6.9-26.08.1-1.52.32-3.03.58-4.53.21-1.21.84-3.21.43-4.41-.21-.72-.87-1.15-1.58-1.32-2.28-.41-4.11-2.64-3.9-4.96-.1,2.33,1.69,4.39,3.96,4.76.76.16,1.53.65,1.77,1.44.46,1.31-.1,3.24-.3,4.56-.21,1.49-.4,2.99-.46,4.5-.61,7.74,2.22,25.03,10.64,27.7.72.2,1.36.22,2.13.19.38,0,.99,0,1.4.49.37.47.38.95.43,1.31.62,4.44-1.1,9.3,1.84,12.96,5.2,4.84,14.83,4.01,21.04,1.45,14.14-5.38,29.47-29.17,24.1-44.21h0Z"/>
    <path class="cls-1" d="M511.01,244.68c9.83-2.38,16.39-10.63,22.62-18.01,4.75-5.66,9.23-11.55,13.63-17.49,0,0,4.42-5.94,4.42-5.94-5.22,8.39-10.99,16.44-17.28,24.07-6.28,7.32-13.28,15.78-23.38,17.37h0Z"/>
    <path class="cls-1" d="M562.86,204.52c-14.63,13.7-3.17,37.49-15.96,52.19-1.78,2.01-3.97,3.67-6.46,4.66,1.19-.6,2.31-1.32,3.34-2.15,16.23-13.94,2.37-41.04,19.08-54.7h0Z"/>
    <path class="cls-1" d="M537.84,227.13c-4.81,9.01-3.73,19.42-3.81,29.29-.09,5.02-.41,10.02-1.17,15-.42,2.48-1.1,5-2.52,7.13-1.43,2.08-3.62,3.79-6.16,4.05,2.48-.48,4.49-2.23,5.74-4.32,1.28-2.1,1.85-4.54,2.17-6.98.59-4.93.92-9.92.93-14.89.17-9.8-.75-20.64,4.81-29.28h0Z"/>
    <path class="cls-1" d="M529.44,296.75c9.95-4.3,17.57-12.59,22.66-21.99,4.05-6.87,5.59-15.87,12.73-20.46,2.3-1.46,5.11-2.29,7.79-1.8-2.71-.26-5.37.66-7.52,2.21-6.79,4.81-8.13,13.68-12.13,20.53-5.21,9.43-13.16,17.92-23.53,21.51h0Z"/>
    <path class="cls-1" d="M559.36,254.9c5.59-6.32,7.12-14.86,7.74-23.01.47-6.18.82-12.41.53-18.61-.08-2.07-.28-4.13-.54-6.19.49,2.02.79,4.09,1.03,6.16.64,6.23.38,12.49-.02,18.73-.71,8.17-2.48,17.11-8.74,22.93h0Z"/>
    <path class="cls-1" d="M572.04,231.66c-.36-8.14-1.59-16.03-3.7-23.9,3.43,7.37,4.74,15.83,3.7,23.9h0Z"/>
    <path class="cls-1" d="M524.42,183.3c8.5,1.23,17.13,1.17,25.58-.31.56-.11,1.13-.21,1.7-.3-8.7,3.08-18.46,3.3-27.28.6h0Z"/>
    <path class="cls-1" d="M533.89,184.96c-.5,6.9-1.66,13.69-3.51,20.36.49-6.9,1.67-13.69,3.51-20.36h0Z"/>
    <path class="cls-1" d="M542.73,184.39c.05,4.29-1.13,8.59-3.36,12.25.95-4.2,2.04-8.16,3.36-12.25h0Z"/>
    <path class="cls-1" d="M626.1,262.14c-16.34,4.58-36.77,4.57-52.44-2.37,2.08.78,4.2,1.43,6.35,1.93,15.1,3.5,30.91,3.41,46.09.44h0Z"/>
    <path class="cls-1" d="M646.8,254.39c-3.59,13.14-.9,27.1-4.98,40.18-2.4,8.16-6.18,15.71-8.4,23.87-.24,1.27-1.17,3.42-.61,4.63,2.08,3.09,1.78,7.37-1.6,9.5,0,0-.13-.84-.13-.84,2.64.77,1.91,4.24,1.93,6.26,1.05,10.78,1.32,21.78.08,32.57-.48,4.33-1.13,8.63-2,12.9,2.57-15.05,2.68-30.31,1.04-45.46-.09-1.69.67-4.73-1.25-5.37-.25-.05-.41-.29-.36-.53.03-.14.11-.25.23-.31,1.97-1.21,2.94-3.89,2.25-6.11-.2-.73-.7-1.36-1.08-2.24-.69-1.83.2-3.52.55-5.26,2.27-8.16,6.13-15.81,8.54-23.85,4.19-12.89,1.74-26.99,5.8-39.94h0Z"/>
    <path class="cls-1" d="M631.06,331.09c-4.32,4.9-9.1,9.3-14.34,13.18,4.31-4.9,9.1-9.3,14.34-13.18h0Z"/>
    <path class="cls-1" d="M627.97,338.17c-1.93,3.11-4.75,5.64-8.06,7.2,2.5-2.69,5.11-5.02,8.06-7.2h0Z"/>
    <path class="cls-1" d="M623.83,278.73c-12.05,7.18-26.1,11.11-40.12,11.28,1.49-.19,3.69-.47,5.2-.7,12.09-1.77,23.85-5.42,34.92-10.58h0Z"/>
    <path class="cls-1" d="M600.59,287.6c.36,8.28-.6,16.56-.28,24.85.28,22.77,3.24,45.56,1.47,68.34-.15,2.07-.4,4.13-.61,6.19.1-2.07.26-4.14.34-6.21.95-22.8-2.04-45.52-1.97-68.32-.14-8.31.99-16.57,1.05-24.85h0Z"/>
    <path class="cls-1" d="M610.92,353.13c-2.59-1.04-4.8-2.64-6.58-4.79,2.59,1.03,4.8,2.64,6.58,4.79h0Z"/>
    <path class="cls-1" d="M596.88,288.78c-3.6,33.46-.44,67.33-4.27,100.78,0,0-.89,6.67-.89,6.67s.63-6.7.63-6.7c2.82-33.49-.37-67.42,4.53-100.75h0Z"/>
    <path class="cls-1" d="M556.05,396.92c1.85-4.26,1.78-8.93,2-13.49.43-9.17.99-18.34,1.69-27.5.18-1.7.09-3.62,1.06-5.15.33-.51.73-.94,1.08-1.37,1.48-1.66,1.61-4.35.33-6.26,1.47,1.79,1.53,4.65.05,6.56-.35.47-.72.9-.99,1.37-.84,1.48-.65,3.22-.77,4.9-.43,9.17-.99,18.34-1.69,27.5-.39,4.53-.52,9.36-2.77,13.45h0Z"/>
    <path class="cls-1" d="M575.04,348.32c-3.67-3.17-6.83-6.8-9.45-10.88,3.67,3.17,6.82,6.8,9.45,10.88h0Z"/>
    <path class="cls-1" d="M568.43,347.45c-1.49-1.25-2.4-2.86-2.69-4.79,1.49,1.25,2.4,2.87,2.69,4.79h0Z"/>
    <path class="cls-1" d="M562.4,341.42c-3.41-14.42-5.98-29.12-7.81-43.83,3.18,14.48,5.74,29.16,7.81,43.83h0Z"/>
    <path class="cls-1" d="M590.86,293.57c-3.19,1.42-6.7,1.95-10.17,1.53,3.36-.95,6.67-1.44,10.17-1.53h0Z"/>
  </g>
  <g>
    <path class="cls-1" d="M556.97,83.34c3.65-5.36,5.28-11.6,4.74-18.06,2.01,6.18.04,13.66-4.74,18.06h0Z"/>
    <path class="cls-1" d="M563.99,70.63c2.59-7.71-8.42-24.82-17.17-23.79-1.53.06-3.05.6-4.29,1.59,1.08-1.16,2.64-1.85,4.24-2.08,8.17-.82,14.43,8.15,16.84,14.96.91,2.94,1.92,6.42.38,9.31h0Z"/>
    <path class="cls-1" d="M541.86,48.65c-.4-.9-1.38-1.26-2.22-1.62-2.64-.96-5.64-.24-7.94,1.26-3.17,1.97-4.95,5.5-5.93,9.07-1.48,6.75-4.37,15.91.84,21.66-3.01-2.54-3.86-6.81-3.66-10.58.8-7.29,1.45-16.56,8.34-20.8,2.9-1.74,6.86-2.23,9.69-.12.38.29.74.67.86,1.13h0Z"/>
    <path class="cls-1" d="M528.18,72.81c.3,5.21,2.47,9.87,6.25,13.46-4.7-2.37-7.47-8.35-6.25-13.46h0Z"/>
    <path class="cls-1" d="M534.95,86.46c.99,1.35,1.63,2.08,2.84,3.24-1.7.32-3.37-1.59-2.84-3.24h0Z"/>
    <path class="cls-1" d="M536.37,91.01c.45.98.26,2.16-.27,3.08-1.75,2.96-5.6,2.91-8.55,3.74-4.1.96-8.14,2.35-11.67,4.6-7.6,4.47-9.66,13.44-12.92,21.01-3.8,8.78-8.32,17.25-13.64,25.2-1.33,1.87-2.22,3.42.02,5.06,0,0,2.39,2.09,2.39,2.09l4.76,4.21c1.13.86,3.86,4.16,5.11,2.26-1.21,2.01-4.14-1.24-5.29-2.06,0,0-4.91-4.04-4.91-4.04-3.14-2.78-5.81-3.51-2.68-7.9,5.1-8.03,9.61-16.45,13.31-25.21,3.35-7.67,5.57-16.88,13.43-21.27,3.69-2.23,7.82-3.56,11.97-4.43,2.97-.74,6.69-.5,8.53-3.34.56-.87.81-2,.4-3.01h0Z"/>
    <path class="cls-1" d="M512.76,123.83c2.21,7.62,4,15.28,5.37,23.1-2.7-7.46-4.5-15.22-5.37-23.1h0Z"/>
    <path class="cls-1" d="M513.34,141.83c1.33,2.99,2.36,5.84,3.24,8.99-2.1-2.49-3.27-5.73-3.24-8.99h0Z"/>
    <path class="cls-1" d="M511.9,162.67c-2.58,2.1-6.77,2.15-9.39.1,3.24.69,6.16.66,9.39-.1h0Z"/>
    <path class="cls-1" d="M495.51,156.97c-4.3,20.41-8.75,41.59-11.84,62.17,1.8-21.05,6.2-41.83,11.84-62.17h0Z"/>
    <path class="cls-1" d="M511.1,164.69c-2.54,9.34-5.6,18.58-9.98,27.23-4.25,8.54-9.07,17.37-8.46,27.21-1.45-9.83,3.41-19.1,7.56-27.65,4.46-8.58,7.57-17.72,10.87-26.79h0Z"/>
    <path class="cls-1" d="M493.12,219.21c5.58,7.46.17,12.24-.75,19.71-.26-1.7-.01-3.48.44-5.14.83-3.23,2.32-6.39,1.81-9.76-.26-1.62-.91-3.21-1.5-4.82h0Z"/>
    <path class="cls-1" d="M490.71,238.49c-.79-1.52-1.52-3.35-.78-5.07.66-1.53,1.72-2.7.27-4.1-1.14-1.35-1.86-3.04-2.22-4.72-.38-1.69-.44-3.4-.43-5.1.75,3.29,1.28,6.72,3.42,9.19,1.71,1.79.69,3.38-.33,5.05-.75,1.37-.33,3.12.08,4.75h0Z"/>
    <path class="cls-1" d="M485.77,216.35c-2.38,3.38-4.4,6.95-5.92,10.77-.99,2.47-1.86,5.11-1.58,7.77.29,2.28,1.47,5.62,2.03,7.92.33,1.34.7,2.67,1.01,4.02-.52-1.28-.98-2.58-1.47-3.87-.77-2.39-2.13-5.46-2.51-7.95-.55-6.57,4.19-13.97,8.44-18.66h0Z"/>
    <path class="cls-1" d="M481.21,234.2c-.16,3.19,2.58,5.7,2.13,8.95-.1,1.08-.68,2.23-1.68,2.65,2.94-3.6-2.19-7.76-.45-11.6h0Z"/>
    <path class="cls-1" d="M490.17,236.72c.9,2.14,2.52,4.36,1.66,6.78-.26.79-.89,1.54-1.69,1.71,2.37-2.49-.27-5.63.02-8.49h0Z"/>
    <path class="cls-1" d="M487.15,234.57c.2,5.05,5.78,10.32,2.12,15.18,2.22-5.23-3.35-9.93-2.12-15.18h0Z"/>
    <path class="cls-1" d="M486.9,250.17c.65-4.18-2.39-7.87-1.75-12.04.75,3.9,3.82,8.08,1.75,12.04h0Z"/>
    <path class="cls-1" d="M486.39,248.6c-1.33-1.27-2.06-2.84-2.14-4.68,1.34,1.26,2.05,2.85,2.14,4.68h0Z"/>
    <path class="cls-1" d="M511.7,165.56c-1.6,9.19-1.78,18.66-.16,27.85.44,3.52,1.76,6.83,2.03,10.39.06,1.22-.19,2.51-.82,3.59-.61,1.06-1.35,1.94-1.64,3.01-.29,1.06-.27,2.22.03,3.32.56,2.23,1.92,4.21,3.26,6.11-1.52-1.77-2.97-3.68-3.73-5.98-.37-1.14-.45-2.41-.17-3.62.29-1.23,1.06-2.23,1.57-3.21,1.04-1.98.63-4.34.04-6.56-3.14-11.32-3.4-23.54-.41-34.91h0Z"/>
    <path class="cls-1" d="M521.24,209.8c-2.31-.32-4.37-2.11-5-4.35,1.83,1.47,3.29,2.75,5,4.35h0Z"/>
    <path class="cls-1" d="M516.93,211.22c-.78.04-1.06-.37-.72-1.08.79-.05,1.06.37.72,1.08h0Z"/>
    <path class="cls-1" d="M520.92,282.4c.25,16.14,1.04,32.4,2.9,48.4.15.94.63,1.54,1.52,1.73,2.85.37,6.01,0,8.9-.34,2.35-.41,4.99-.7,7.15-1.64.27-.2.34-.54.34-1.04v-3.03c0-6.05.09-18.25.18-24.3.24,7.51.53,19.84.65,27.33.03.57-.12,1.33-.64,1.71-.53.4-1.08.49-1.56.63-3.94,1.07-8.01,1.66-12.1,1.77-1.51-.02-3.5.3-4.71-1.03-.42-.48-.61-1.07-.71-1.61-.49-4.11-.81-8.09-1.13-12.15-.92-12.12-1.22-24.3-.8-36.44h0Z"/>
    <path class="cls-1" d="M542.55,328.92c.32-.47,1.06-.36,1.43.04.38.43.43,1.02.46,1.53,0,0,.1,3.13.1,3.13-.03,1.28.26,6.75,0,7.92-.46,1.69-2.15,2.58-3.48,3.48-4.69,2.69-10.85,2.57-15.38-.39-.93-.65-1.84-1.19-2.43-2.25-.5-1.1-.04-2.18-.08-3.26-.11-2.86-1.9-6.79.97-8.9-2.62,2.39-.51,5.93-.34,8.87.08,1.1-.27,2.19.14,2.93,2.6,3.02,7.03,4.18,10.91,3.88,3-.23,5.99-1.39,8.19-3.46.77-.7.83-1.58.84-2.58,0,0,.17-6.26.17-6.26l.13-3.13c.02-.51,0-1.04-.31-1.44-.28-.37-.96-.57-1.32-.14h0Z"/>
    <path class="cls-1" d="M543.09,345.32c.34,5.03.57,10.06.79,15.09.06,1.26.12,2.51.15,3.78.04.7-.12,1.57-.69,2.06-.58.53-1.28.73-1.92.87-5.04,1.03-10.36.5-15.08-1.53-.63-.28-1.17-.48-1.78-.87-.66-.39-.86-1.34-.85-2.02-.2-6.31.37-12.66,1.77-18.82-.91,6.22-1.25,12.51-.91,18.78.03.65.09,1.09.49,1.33,4.89,2.52,10.76,3.24,16.17,2.25,1.17-.22,2.05-.7,1.93-2.04,0,0-.05-3.77-.05-3.77-.06-5.04-.09-10.07-.02-15.11h0Z"/>
    <path class="cls-1" d="M526.01,352.41c4.8,3.06,10.55,3.76,15.95,1.97-4.78,3.21-12.1,2.31-15.95-1.97h0Z"/>
    <path class="cls-1" d="M558.65,369.74c-2.93-.25-6.11-.34-8.91.48-.65.24-1.27.63-1.62,1.14-.78,1.17-.46,2.48,1.03,2.89.67.26,1.66.68,1.97,1.74.31,1.07-.74,1.81-1.45,2.23-1.88,1.13-3.08,3.2-.63,4.47,1.24.58,2.81.33,4.31.25,1.52-.07,3.03-.18,4.55-.22-1.5.27-3,.47-4.5.7-1.48.16-3.05.58-4.67-.03-1.76-.62-2.62-2.81-1.4-4.34.67-.99,1.79-1.57,2.62-2.26.2-.2.24-.36.19-.56-.17-.56-.79-.85-1.38-1.08-.77-.27-1.7-.86-1.91-1.76-.76-5.72,8.35-4.39,11.77-3.66h0Z"/>
    <path class="cls-1" d="M547.17,380.93c.41-2.31.82-4.21,1.41-6.49.83,2.18.24,4.84-1.41,6.49h0Z"/>
    <path class="cls-1" d="M547.5,373.73c-.38-4.03-.45-8.07-.45-12.1-.09-1.87.82-3.68,2.96-3.48,2.47.42,4.93.93,7.28-.45-.78.66-1.73,1.1-2.74,1.37-1.8.67-4.26-.55-5.74.26-.65.4-.76,1.35-.76,2.32-.03,4.03-.14,8.05-.54,12.08h0Z"/>
    <path class="cls-1" d="M548.49,361.86c-.08-1.83-.09-3.65-.04-5.47.05-1.84-.1-4.04,1.36-5.46,3.01-3.07,3.12-4.33,7.14-1.51.76.51,1.53.99,2.28,1.52-1.64-.63-3.33-1.55-4.95-2.19-.92-.29-1.29.18-1.88.86,0,0-1.84,1.99-1.84,1.99-1.33,1.29-1.08,3.13-1.33,4.84-.18,1.81-.43,3.62-.73,5.43h0Z"/>
    <path class="cls-1" d="M550.43,351.81c-.12-2.06-.12-4.16-.06-6.22-.07-1.27.52-2,1.84-2.02,3.18-.1,9.23-1.36,9.79,3.2-1.14-3.56-5.66-2.4-8.49-2.29-.77.07-1.86,0-2.07.27-.13.09-.17.47-.2.89-.19,2.05-.45,4.13-.82,6.17h0Z"/>
    <path class="cls-1" d="M551.77,347.59c-4.56-1.47-4.64-7.32-3.93-11.2.08-.52.17-1.15.59-1.71,1.22-1.29,2.93-1.6,4.56-2.01,2.11-.42,4.31-.39,6.35.17-1.06-.06-2.1-.09-3.14.03-2.38.28-5.15.84-7,2.39-.22.3-.31.75-.38,1.26-.65,3.88-1.06,8.9,2.94,11.06h0Z"/>
    <path class="cls-1" d="M549.77,334.9c-.33-11.11-.59-23.39-.7-34.5,1.48,11.41,1.72,23.05.7,34.5h0Z"/>
  </g>
  <g>
    <path class="cls-1" d="M510.5,42.45c.6-3.12,3.99-5.28,7.11-4.83,3.29.5,5.64,3.83,5.38,7.09-.28,3.89-4.83,6.69-8.41,5.23,4.8,1.05,9.36-4.02,6.71-8.51-2.33-4.67-9.06-3.59-10.79,1.01h0Z"/>
    <path class="cls-1" d="M517.57,42.76c-.08,3.07-3.8,5.47-6.63,4.27,2.88-.41,5.07-1.81,6.63-4.27h0Z"/>
    <path class="cls-1" d="M509.46,47.1c1.75,1.81,3.65,2.68,6.17,2.84-2.25,1.43-5.8-.22-6.17-2.84h0Z"/>
    <path class="cls-1" d="M522.77,46.23c2.9,6.88,2.63,16.37-4.11,20.91-.93.59-1.92,1.07-2.97,1.32.97-.46,1.89-1.02,2.68-1.72,5.98-4.98,5.95-13.5,4.41-20.52h0Z"/>
    <path class="cls-1" d="M516.72,64.51c-.44,1.74-2.15,3.04-3.95,2.99,1.29-1.28,2.37-2.09,3.95-2.99h0Z"/>
    <path class="cls-1" d="M512.38,64.89c-.49,1.07-1.37,1.57-2.54,1.45.49-1.07,1.37-1.57,2.54-1.45h0Z"/>
    <path class="cls-1" d="M501.87,64.2c.82-1.25.74-2.66.68-4.06-.06-.84.02-1.75-.62-2.33-.97-.91-2.51-.44-2.99.93-.12-1,.76-2.12,1.96-2.18,2.06-.08,2.76,1.85,2.59,3.57-.03,1.45-.29,3.24-1.62,4.07h0Z"/>
    <path class="cls-1" d="M496.33,57.27c-.84-6.94,3.54-14.96,10.55-16.73,1.01-.18,2.07-.16,3.02.19-2.01-.28-3.9.52-5.49,1.58-4.82,3.42-7.67,9.03-8.09,14.96h0Z"/>
    <path class="cls-1" d="M505.1,48.16c-1.88,2.58-3.2,5.03-4.35,8.01-.3-3.17,1.54-6.53,4.35-8.01h0Z"/>
    <path class="cls-1" d="M518.96,69.25c.5,2.24.57,4.29.2,6.56-1.01-2.05-1.07-4.45-.2-6.56h0Z"/>
    <path class="cls-1" d="M521.5,82.33c-.31-1.71-.32-3.49,0-5.21,0,0,.03.2.03.2-1.31-1.88-4.02-1.79-6.11-2.11-3.44-.37-6.91-.38-10.36-.07-.85.13-2.58.16-3.29.47-.35.17-.48.76-.64,1.32-.49,1.68-1.01,3.35-1.56,5.02.37-2.03.72-4.03,1.22-6.03.13-.67.93-1.17,1.56-1.22,4.33-.87,8.8-.99,13.18-.42,2.28.39,5.14.51,6.49,2.76-.22,1.72-.65,3.5-.51,5.29h0Z"/>
    <path class="cls-1" d="M500.55,78.48c-4.3-4.94-5.85-12.37-3.86-18.61-.54,6.53.77,12.84,3.86,18.61h0Z"/>
    <path class="cls-1" d="M506.98,67.1c.03-1.32.66-2.31,1.85-2.89-.03,1.32-.66,2.31-1.85,2.89h0Z"/>
    <path class="cls-1" d="M504.39,66.71c-.56-.93-.44-1.81.36-2.54.56.93.43,1.81-.36,2.54h0Z"/>
    <path class="cls-1" d="M519.65,82.34c-4.63.42-9.25.17-13.8-.78,4.63-.43,9.24-.16,13.8.78h0Z"/>
    <path class="cls-1" d="M499.67,81.81c-5.12-.1-10.22.66-15.07,2.28-1.59.53-3.27,1.11-4.09,2.46-.81,1.34-.85,3.12-1.2,4.79-.89,5.06-2.03,10.08-3.42,15.03-2.6,9.85-7.71,19.14-8.33,29.43.05,1.89-.55,8.04,2.46,7.38.39-.11.77-.45.76-.89.02.96-1.3,1.32-2.02.88-.79-.48-1.07-1.42-1.24-2.25-.97-5.1-.19-10.36,1.16-15.31.89-3.32,2.07-6.54,3.18-9.77,2.8-8.05,5.05-16.28,6.61-24.66,0,0,.46-2.53.46-2.53.26-1.75,1.33-3.58,3.03-4.27,5.57-2.28,11.74-3.01,17.71-2.58h0Z"/>
    <path class="cls-1" d="M483.33,89.59c1.68,7.47,3,14.93,3.98,22.53-2.32-7.29-3.66-14.88-3.98-22.53h0Z"/>
    <path class="cls-1" d="M482.62,101.21c1.16,2.4,1.66,4.96,1.47,7.63-1.17-2.4-1.66-4.96-1.47-7.63h0Z"/>
    <path class="cls-1" d="M498.84,115.65c-16.02-5.19-30.75,9.68-25.04,25.58.07.17.02.36-.09.49-2.8,3.12-4.78,6.95-5.76,11.03-.61,2.6-1.25,5.68.86,7.76,3.1,3.2,7.91,2.5,11.9,1.68-2.73.7-5.6,1.4-8.48.77-2.86-.59-5.58-2.97-5.58-6.07.1-5.84,2.55-11.43,6.34-15.79,0,0-.09.49-.09.49-1.44-3.63-1.68-7.68-.86-11.47,2.24-12.02,15.57-19.03,26.79-14.46h0Z"/>
    <path class="cls-1" d="M477.17,149.55c-.56,1.9.16,3.75.94,5.44.85,1.7,1.69,3.44,2.73,4.98,1.96,3.27,5.9,5.05,9.5,3.26-2.35,1.88-6.1,1.6-8.35-.44-2.26-1.98-3.49-4.81-4.6-7.5-.69-1.78-1.18-3.98-.22-5.74h0Z"/>
    <path class="cls-1" d="M497.75,131.71c-1.36,4.23-6.54,5.1-10.25,6.25-3.94,1.03-8.45,1.6-12.24-.24,5.03,1.32,10.09-.18,14.95-1.52,2.83-.82,6.08-1.64,7.54-4.48h0Z"/>
    <path class="cls-1" d="M485.54,140.15c-2.15,2.76-6.96,3.07-9.44.6,3.24,1.09,6.37.89,9.44-.6h0Z"/>
    <path class="cls-1" d="M481.87,143.72c-1.75,1.07-3.94,1.21-5.81.36,1.99-.54,3.77-.65,5.81-.36h0Z"/>
    <path class="cls-1" d="M484,158.29c2.49,1.91,4.84,3.35,7.66,4.73-3.13.04-6.29-1.91-7.66-4.73h0Z"/>
    <path class="cls-1" d="M480.57,162.96c1.4,9.46,1.75,19.07,1.26,28.61,0,0-.23-.33-.23-.33,2.1.87,4.23,1.6,6.48,2.02-2.29-.07-4.56-.63-6.71-1.37-.15-.05-.23-.19-.23-.33-.02-8.29-.33-20.2-.57-28.6h0Z"/>
    <path class="cls-1" d="M500.01,194.1c3.14-1.15,6.72-1.09,9.81.18-3.36.1-6.46.03-9.81-.18h0Z"/>
    <path class="cls-1" d="M502.59,231.26c-2.31-1.26-4.27-2.37-6.53-3.72,2.61-.03,5.22,1.46,6.53,3.72h0Z"/>
    <path class="cls-1" d="M508.02,225.46c-2.81-2.62-5.37-5.19-7.97-8.02,3.43,1.71,6.28,4.58,7.97,8.02h0Z"/>
    <path class="cls-1" d="M482.4,220.39c-1.91-.86-3.48-2.36-4.8-3.95-.12-.13-.11-.33,0-.46,1.24-1.58,1.88-3.53,2.34-5.52.88-4.03,1.55-8.14,2.15-12.24,0,0,.79-6.19.79-6.19.1,4.17-.22,8.35-.82,12.48-.78,4.09-1.05,8.62-3.91,11.92,0,0,0-.46,0-.46,1.21,1.68,2.54,3.2,4.25,4.4h0Z"/>
    <path class="cls-1" d="M502.84,239.24c-2.41,7.58-3.51,15.57-3.2,23.52.02.33-.42.47-.6.22-2.4-2.96-7.39-1.22-8.97,1.82-.93,1.57-1.39,3.39-1.65,5.24-.49,3.76-1.08,13.11-1.46,17.02,0,0-.5,5.68-.5,5.68-.39,3.91-.7,4.83,3.31,5.69,4.75,1.3,9.74.28,9.96-5.5.15-3.75-1.66-7.45-1.34-11.27.22-5.68,2.63-11.28,1.25-16.96,1.62,5.6-.61,11.34-.71,16.97-.24,3.87,1.65,7.38,1.56,11.28-.13,6.32-5.66,7.77-10.93,6.34-4.5-.9-4.56-2.53-4.07-6.66,0,0,.46-5.68.46-5.68.42-4.02,1.04-13.18,1.57-17.06.43-2.83,1.35-5.98,3.79-7.79,2.38-1.76,6.31-2.16,8.25.45,0,0-.61.21-.61.21-.18-8,1.13-16.03,3.88-23.54h0Z"/>
    <path class="cls-1" d="M497.96,280.34c.59-3.28-2.65-6.48-5.84-5.47-1.49.4-2.81,1.49-3.5,2.9-.68,1.39-.59,3.33-1.62,4.76.68-1.59.25-3.31.9-5.07.66-1.72,2.17-3.06,3.96-3.56,3.67-1.24,7.65,2.89,6.11,6.43h0Z"/>
    <path class="cls-1" d="M488.78,267.61c.29-5.75.39-11.31.33-17.07,1.44,5.56,1.32,11.57-.33,17.07h0Z"/>
    <path class="cls-1" d="M507.42,241.44c-4.03,11.89.75,24.16.77,36.26-.03,1.76-.11,3.51-.39,5.24.05-1.75.04-3.49-.1-5.23-.77-11.73-5.54-24.98-.28-36.28h0Z"/>
    <path class="cls-1" d="M516.07,283.52c-2.05-1.32-4.65-1.63-6.87-.91-1.14.29-1.46,1.47-1.92,2.61-1.34,3.34-2.63,6.76-2.79,10.37-.17,2.39,0,4.8.13,7.23l-.4-.42c5,.65,10.03.98,15.07,1.07-5.05.44-10.14.35-15.18-.17-.22-.02-.38-.2-.4-.41-.2-2.43-.36-4.89-.22-7.37.26-4.37,1.95-8.44,3.92-12.29,1.83-2.53,6.65-1.43,8.65.28h0Z"/>
    <path class="cls-1" d="M504,296.04c4.93.37,9.64.63,14.57.81-4.77,1.21-9.96.91-14.57-.81h0Z"/>
    <path class="cls-1" d="M519.47,301.71c.75-6.48.03-12.8-2.14-18.96,3.47,5.51,4.29,12.81,2.14,18.96h0Z"/>
  </g>
  <g>
    <path class="cls-1" d="M278.9,34.01c-.46,3.89-3.51,7.5-7.27,8.59,3.1-2.4,5.42-5.13,7.27-8.59h0Z"/>
    <path class="cls-1" d="M279.49,27.45c-.28,2.39-2.19,4.54-4.53,5.09,1.62-1.8,2.94-3.27,4.53-5.09h0Z"/>
    <path class="cls-1" d="M277,25.43c-.14-2.64,0-5,.46-7.61.92,2.46.75,5.27-.46,7.61h0Z"/>
    <path class="cls-1" d="M275.49,19.35c-.51-1.75-.33-3.46.53-5.06.51,1.75.33,3.46-.53,5.06h0Z"/>
    <path class="cls-1" d="M271.86,14.79c-1.55-3.82-3.29-7.21-5.49-10.69,3.24,2.51,5.33,6.59,5.49,10.69h0Z"/>
    <path class="cls-1" d="M266.6,11.69c-1.54-3.78-3.79-6.82-6.93-9.42,3.88,1.3,6.84,5.33,6.93,9.42h0Z"/>
    <path class="cls-1" d="M259.72,7.21c-1.75-1.11-3.05-2.19-4.46-3.71,2.04.26,3.83,1.76,4.46,3.71h0Z"/>
    <path class="cls-1" d="M253.19,7.63c-1.99-.23-3.69-1.08-5.06-2.54,1.99.23,3.69,1.09,5.06,2.54h0Z"/>
    <path class="cls-1" d="M246.06,8.21c-1.79-.57-3.14-1.34-4.52-2.63,1.87-.03,3.61,1,4.52,2.63h0Z"/>
    <path class="cls-1" d="M240.49,10.74c-2.03-.13-3.63-.42-5.57-1.04,1.85-.79,4.13-.37,5.57,1.04h0Z"/>
    <path class="cls-1" d="M236.97,13.88c-5.32,1.78-9.07,6.47-9.65,12.05-1.02-5.71,3.86-11.79,9.65-12.05h0Z"/>
    <path class="cls-1" d="M230.9,23.92c-1.15,3.78-2.14,7.31-3.15,11.12-.39-3.91.77-8,3.15-11.12h0Z"/>
    <path class="cls-1" d="M229.38,38.1c.45,1.75.82,2.88,1.48,4.57-1.73-.62-2.51-3.05-1.48-4.57h0Z"/>
    <path class="cls-1" d="M275.43,43.15c-.41,5.21-2.42,10.34-5.68,14.42,2.07-4.81,3.92-9.48,5.68-14.42h0Z"/>
    <path class="cls-1" d="M268.95,54.34c-.7,3.47-2.03,6.7-4,9.65.69-3.47,2.04-6.7,4-9.65h0Z"/>
    <path class="cls-1" d="M263.28,65.32c-4.85.61-9.71,1.04-14.58,1.42-2.34.23-5.49.44-7.25-1.64-2.62-3.22-3.88-7.28-5.34-11.1-.5-1.56-.97-3.12-1.34-4.71.58,1.52,1.15,3.05,1.8,4.53,1.23,2.98,2.65,5.92,4.22,8.73.78,1.36,1.79,2.61,3.19,3.05,1.41.48,3.03.28,4.65.2,4.88-.25,9.75-.46,14.64-.48h0Z"/>
    <path class="cls-1" d="M234.41,56.84c-1.34-2.35-2.02-4.9-2.03-7.6,1.34,2.35,2.01,4.9,2.03,7.6h0Z"/>
    <path class="cls-1" d="M266.06,62.8c-1.64,4.35-1.53,9.34.37,13.57.08.18,0,.38-.17.46-7.22.78-14.61.33-21.73-1.14-2.24-.36-4.63-1.49-6.86-1-.31.09-.63-.22-.53-.54,1.82-6.45,2.19-13.27,1.13-19.9,1.56,6.58,1.44,13.58-.29,20.13,0,0-.53-.54-.53-.54,2.53-.59,4.85.54,7.28.9,7.02,1.41,14.21,1.86,21.36,1.4,0,0-.3.49-.3.49-1.82-4.4-1.74-9.55.28-13.85h0Z"/>
    <path class="cls-1" d="M266.95,75.34c5.1,3.12,17.65,10.83,22.54,13.85,3.71,2.32,7.81,4.59,10.25,8.4,1.67,2.43,4.29,9.3,5.54,12.07,4.93,11.73,12.25,28.93,17.11,40.64.25.64.7,1.44.49,2.4-.22.92-.87,1.52-1.44,2.01-1.19.92-2.36,1.79-3.63,2.6-7.06,4.68-10.28,1.11-17.16.16-5.73-.53-11.69,1.86-15.35,6.34-.18.24-.62.08-.57-.24,1.3-11.08,4.91-21.84,10.39-31.5-5.27,9.78-8.55,20.58-9.76,31.57,0,0-.57-.24-.57-.24,3.75-4.7,9.91-7.29,15.92-6.78,6.75.84,9.95,4.43,16.59-.09,1.21-.77,2.4-1.67,3.52-2.55.53-.44,1-.94,1.11-1.48.13-.52-.15-1.14-.44-1.83-4.93-11.65-12.12-28.95-17.02-40.68-1.19-2.69-3.74-9.6-5.35-12.01-2.35-3.76-6.28-5.96-9.94-8.33-4.82-3.09-17.31-11.12-22.25-14.31h0Z"/>
    <path class="cls-1" d="M285.2,149.04c-1.7-8.83-1.54-18.06.46-26.83,0,0-.2,3.36-.2,3.36-.53,7.82-.52,15.63-.26,23.47h0Z"/>
    <path class="cls-1" d="M280.49,134.36c-.28-4.47-.59-8.71-.95-13.18,1.71,4.13,2.04,8.85.95,13.18h0Z"/>
    <path class="cls-1" d="M294.2,93.46c-4.65,1.95-7.11,6.59-10.27,10.26-2.24,2.78-4.8,5.79-7.18,8.48-.84.91-1.65,1.84-2.52,2.73.69-1.03,1.42-2.02,2.14-3.03,2.14-2.89,4.53-6.02,6.78-8.8,3.15-3.63,6.07-8.41,11.05-9.64h0Z"/>
    <path class="cls-1" d="M279.03,82.22c-7.88,6.04-14.3,13.92-18.44,22.94-.53,1.13-1.22,2.78-1.69,3.92.18-.69.36-1.38.56-2.07,3.18-10.26,10.27-19.38,19.57-24.79h0Z"/>
    <path class="cls-1" d="M273.78,115.38c3.89.97,2.68,6.4,2.39,9.33-.4,3.51-.65,7.03-.74,10.56-.14,5.29.08,10.59.64,15.85.22,1.74.31,3.54.94,5.14.6,1.65,2.07,2.69,3.5,3.7,7.86,5.47,6.53,16.3,6.83,24.69,0,0,.14,10.59.14,10.59.26,11.68,1.24,27.64-11.8,32.89-1.58.71-3.22,1.49-4.01,2.93-.82,1.5-.66,3.53-1.76,4.99-2.84,3.78-7.91,4.2-12.15,5.24-7.82,1.61-15.85,2.13-23.82,1.71-7.08-.42-14.13-1.59-20.94-3.6-2.57-.72-5.32-1.75-7.13-3.86-.61-.73-1.06-1.64-1.21-2.61-.33-1.85.59-3.56.58-5.32.01-1.66-.56-3.29-1.4-4.78-1.72-3.05-4.17-5.73-5.71-8.93-1.62-3.2-2.67-6.65-3.41-10.13-1.97-10.46-2.19-21.14-2.22-31.75-.04-8.36,1.08-19.83,10.48-22.73,1.73-.55,2.59-1.97,2.76-3.71.6-6.99,1.11-14.07,1.67-21.1.28-3.49.53-7.17,2.23-10.4,1.67-3.17,5.19-5.78,8.91-5.09,0,0-.33.32-.33.32-1.1-6.59-3.93-12.88-8.13-18.08-.08-.1-.07-.23,0-.32,4.31-4.67,9.38-8.63,14.95-11.67.07-.04.17-.01.21.06,3.35,10.34,7.45,20.45,12.28,30.2-4.91-9.7-9.11-19.76-12.56-30.08,0,0,.22.09.22.09-5.51,3.08-10.51,7.06-14.74,11.73,0,0,0-.32,0-.32,4.28,5.25,7.16,11.62,8.3,18.3.04.19-.14.36-.33.32-3.44-.63-6.74,1.86-8.28,4.81-1.61,3.09-1.86,6.68-2.12,10.17-.54,7.05-1.01,14.07-1.6,21.15-.12.89-.35,1.83-.9,2.64-.56.82-1.45,1.31-2.28,1.64-1.7.59-3.2,1.35-4.47,2.52-7.22,7.15-5.29,20.72-5.29,30.13.62,10.4.78,21.36,5.48,30.87,1.56,3.19,3.97,5.78,5.73,8.88.89,1.57,1.55,3.37,1.54,5.27,0,1.93-.9,3.59-.61,5.15.22,1.59,1.46,2.87,2.88,3.75,1.44.9,3.07,1.5,4.76,1.97,6.73,2.01,13.71,3.19,20.72,3.63,7.89.44,15.86-.04,23.61-1.62,4.03-.96,9.01-1.38,11.68-4.87,1.07-1.46.85-3.33,1.75-4.93.93-1.67,2.73-2.5,4.36-3.23,12.7-5.08,11.7-20.82,11.49-32.22,0,0-.1-10.59-.1-10.59-.28-8.28,1.11-18.87-6.53-24.33-1.44-1.02-3-2.18-3.61-3.92-.66-1.71-.71-3.51-.92-5.25-.51-5.28-.68-10.59-.49-15.89.12-3.53.4-7.06.84-10.57.33-2.98,1.57-8.28-2.29-9.32h0Z"/>
    <path class="cls-1" d="M272.96,112.46c-8.05-1.97-16.3-2.6-24.57-2.73-8.19.07-16.66-1.1-24.63,1.28,7.77-3.17,16.44-2.11,24.65-2.28,8.28.23,16.68.97,24.54,3.73h0Z"/>
    <path class="cls-1" d="M238.32,73.87c-3.11,3.15-7.17,5.38-11.5,6.29,3.85-2.22,7.56-4.25,11.5-6.29h0Z"/>
    <path class="cls-1" d="M211.76,91.58c-12.28,9.37-17.84,14.79-16.46,31.03.21,9.49-1.2,19.01-4.27,27.99-.39,1.32-1.64,3.17.13,3.96,0,0,4.19,2.16,4.19,2.16-1.44-.63-2.88-1.26-4.32-1.93-.36-.18-.73-.4-.97-.79-.59-1.17.27-2.42.5-3.55,2.7-9,4.01-18.43,3.73-27.81-.06-3.13-.22-6.31.16-9.5,1-9.93,9.58-16.46,17.3-21.56h0Z"/>
    <path class="cls-1" d="M206.54,137.91c-.1-7.89-1.63-15.48-4.57-22.79,4.2,6.65,5.88,15.04,4.57,22.79h0Z"/>
    <path class="cls-1" d="M205.04,132.33c-1.24-2.72-2.2-5.24-3.07-8.1,2.07,2.13,3.2,5.13,3.07,8.1h0Z"/>
    <path class="cls-1" d="M257.92,109.16c1.26-6.02-5.25-9.19-10.26-9.99-1.31-.28-2.65-.44-3.89-.17-4.4,1.07-3.79,6.64-5.39,9.98,1.27-6.18.74-12.54,9.49-10.79,2.7.6,5.53,1.41,7.72,3.32,2.11,1.82,3.47,4.97,2.34,7.65h0Z"/>
    <path class="cls-1" d="M273.17,129.74s-3.05,10.7-3.05,10.7c-1.15,3.54-1.73,7.4-4.22,10.36-4.96,5.43-14.66,4.58-21.45,4.83-9.78-.23-19.55-1.75-28.81-4.89-1.61-.51-1.78-2.31-1.81-3.75,0,0-.72-11.1-.72-11.1,0,0,1.21,11.06,1.21,11.06.16,2.4.38,3.08,2.85,3.63,8.87,2.52,18.08,3.92,27.3,4.04,3.68.07,7.39-.06,11.05-.39,3.54-.38,7.32-1.25,9.81-3.95,2.43-2.74,3.12-6.6,4.32-9.99,0,0,3.52-10.55,3.52-10.55h0Z"/>
    <path class="cls-1" d="M264.79,167.43c2.46-.5,4.71,1.59,5.4,3.83.75,2.33.47,4.79.4,7.16l-.6,14.34c-.36,6.62-.77,18.59-1.14,25.09-.11,2.38-.04,5.3-2.18,6.94-3.04,2.23-6.95,2.22-10.5,2.89-14.3,1.98-29.03.49-42.69-4.14-.18-.06-.29-.22-.3-.4-.71-13.54-1.61-32.07-2.22-45.62.02-2.2-.48-5.47.15-7.61.49-2.43,2.96-4.82,5.56-4.02-2.58-.73-4.95,1.66-5.39,4.06-.57,2.1-.03,5.38.03,7.56.88,13.53,2,32.05,2.77,45.59,0,0-.3-.4-.3-.4,13.55,4.52,28.12,5.91,42.28,4.05,3.35-.62,7.22-.62,10.06-2.65,1.9-1.49,1.74-4.07,1.88-6.3.34-6.45,1.05-18.51,1.42-25.08,0,0,.86-14.33.86-14.33.12-2.38.45-4.8-.24-7.1-.63-2.22-2.8-4.32-5.25-3.88h0Z"/>
    <path class="cls-1" d="M260.25,166.15c-11.91,1.29-24.04,1.34-35.97.15,11.59-.18,24.38-.22,35.97-.15h0Z"/>
    <path class="cls-1" d="M268.19,176.26c-7.6,8.34-17,17.64-29.14,17.37-4.02-.25-7.15-3.23-10.34-5.35-4.15-3.05-8.07-6.41-11.64-10.12,3.85,3.39,7.86,6.6,12.09,9.49,2.12,1.41,4.26,2.9,6.45,4.1,2.18,1.18,4.77,1.08,7.24.66,10.23-1.59,18.07-9.34,25.35-16.15h0Z"/>
    <path class="cls-1" d="M287.09,178.95c-1.15,3.95-3.38,7.59-6.24,10.55-.21.22-.58.19-.76-.06-2.59-3.61-4.57-7.69-5.62-12.02,1.78,4.01,3.88,7.87,6.43,11.44,0,0-.76-.06-.76-.06,2.84-2.88,5.13-6.23,6.95-9.85h0Z"/>
    <path class="cls-1" d="M274.2,177.92c.33,10.03.91,20.02,2,30,.17,1.66.36,3.32.57,4.98.09,1.22.49,2.59-.09,3.78-.18.4-.6.69-1.03.66.43-.03.77-.34.89-.72.44-1.2-.06-2.42-.26-3.64-.31-1.65-.59-3.3-.85-4.96-1.51-9.94-2-20.07-1.24-30.1h0Z"/>
    <path class="cls-1" d="M205.15,176.26c-.33,2.83-1.24,6.02-3.99,7.48-2.05,1.24-5.09.49-5.82-1.94-.22-.72-.19-1.54.21-2.15-.39,1.41.51,2.71,1.56,3.34,1.08.65,2.46.48,3.57-.13,2.47-1.29,3.41-4.14,4.46-6.6h0Z"/>
    <path class="cls-1" d="M208.18,179.47c-.21,13.51.57,27.02,2.44,40.4.13.89.26,1.79.37,2.68-3.45-14.03-4.41-28.72-2.81-43.09h0Z"/>
    <path class="cls-1" d="M209.55,225.9c3.62,2.2,7.84,2.87,11.98,3.21,4.17.31,8.36.57,12.55.66,8.39.31,16.77.1,25.15-.24-2.08.29-4.17.51-6.27.71-6.29.55-12.61.69-18.92.53-4.21-.17-8.41-.42-12.6-.89-4.15-.51-8.49-1.41-11.9-3.97h0Z"/>
    <path class="cls-1" d="M266.24,230.96c-4.92,3.3-11.53,4.26-17.19,2.48,5.93.35,11.6-.46,17.19-2.48h0Z"/>
    <path class="cls-1" d="M272.89,150.55c-5.42,7-14.57,10.77-23.35,10.09,0,0-2.02-.22-2.02-.22l-1.98-.41c-.65-.18-1.3-.37-1.94-.57,1.14.19,2.81.41,3.98.49,9.28.62,18.68-2.85,25.31-9.38h0Z"/>
    <path class="cls-1" d="M263.32,160.91c-6.11,1.57-12.51,1.99-18.77,1.23,6.29-.62,12.46-1.02,18.77-1.23h0Z"/>
    <path class="cls-1" d="M220.63,159.95c-5.83-1.57-11.13-5.47-14.35-10.58,4.34,4.22,9.03,7.69,14.35,10.58h0Z"/>
    <path class="cls-1" d="M214.64,163.25c-2.6-2.84-4.63-6.06-6.06-9.64,2.6,2.84,4.63,6.06,6.06,9.64h0Z"/>
    <path class="cls-1" d="M217.8,142.97c-1-7.12-1.89-14.12-2.69-21.27,2.14,6.85,3.05,14.1,2.69,21.27h0Z"/>
    <path class="cls-1" d="M271.22,122.15c-.47,4.21-1.4,8.23-2.85,12.21.09-4.23,1.07-8.38,2.85-12.21h0Z"/>
    <path class="cls-1" d="M265.21,197.19c.91,7.08,1.02,14.43-.71,21.4-1.59,4.9-5.21,3.8-9.11,4.73-.65.22-1.26.63-1.64,1.24.28-.66.87-1.19,1.54-1.48,3.44-1.34,7.08-.27,8.31-4.78,1.54-6.86,1.57-14.07,1.61-21.1h0Z"/>
    <path class="cls-1" d="M220.77,217.9c-2.63-.71-4.42-3.91-3.63-6.52.74,2.59,1.82,4.53,3.63,6.52h0Z"/>
    <path class="cls-1" d="M309.9,160.01c1.06,3.43,1.45,6.96,1.14,10.54-1.07-3.43-1.44-6.96-1.14-10.54h0Z"/>
    <path class="cls-1" d="M310.98,170.15c4.13,6.69,4.37,14.89,4.36,22.53.03,10.3-.56,20.59-1.73,30.82-.32,2.55-.64,5.11-1.05,7.65.78-10.25,1.47-20.5,1.7-30.77.06-10.11,1.39-20.89-3.28-30.22h0Z"/>
    <path class="cls-1" d="M312.82,231.73c4.4,14.67,5.07,20.56-3.68,33.87-.96,1.39-1.92,2.78-2.95,4.13,5-8.48,10.64-17.82,8.44-28.04-.59-3.31-1.29-6.63-1.81-9.96h0Z"/>
    <path class="cls-1" d="M303.21,235.07c-.12,4.43-.44,9.44,2.36,13.15.84,1.2,2.18,1.96,3.27,3.25,2.43,2.77.09,6.43-1.22,9.08-1.28,2.75-2.18,5.75-1.97,8.86-.32-1.52-.28-3.11-.05-4.66.42-3.07,2.09-5.91,3.08-8.73,1.91-6.87-8.62-3.54-5.47-20.95h0Z"/>
    <path class="cls-1" d="M305,258c-1.6,3.06-2.23,6.08-2.01,9.53-1.68-3.04-.76-7.42,2.01-9.53h0Z"/>
    <path class="cls-1" d="M302.09,252.23c-.98,4.02-1.58,7.81-1.92,11.94-1.08-3.98-.34-8.5,1.92-11.94h0Z"/>
    <path class="cls-1" d="M288.82,169.61c-.55,7.74,1.22,15.48,4.8,22.3.83,1.75,1.65,3.54,2.14,5.47.51,1.9.63,4,.2,5.94-.55,2.77-1.51,5.69.8,7.75,6.11,5.02-.98,8.47,1.13,13.48.8,1.74,2.61,3.25,2.58,5.34-.12,2.48-3.04,2.99-4.97,2.91,0,0-11.6.18-11.6.18-3.59.3-8.36-.92-10.84,2.37,2.32-3.46,7.25-2.43,10.83-2.86,0,0,11.59-.46,11.59-.46,1.62-.03,3.98-.24,4.13-2.18.05-.79-.45-1.62-.95-2.4-1.1-1.58-2.49-3.48-2.09-5.58.74-4.11,3.71-6.76-.5-10.12-2.54-2.14-1.63-5.96-.99-8.61.42-1.85.32-3.72-.15-5.55-.95-3.71-3-7.09-4.23-10.74-1.92-5.5-2.56-11.47-1.87-17.24h0Z"/>
    <path class="cls-1" d="M298.25,226.45c-4.51-1.66-9.18-3.11-13.86-4.17,0,0,.21-.13.21-.13-.22.47-.42.95-.67,1.41.08-.52.2-1.02.3-1.53.02-.1.12-.14.21-.13,4.89.17,9.81,1.72,13.81,4.55h0Z"/>
    <path class="cls-1" d="M297.78,215.92c-2.27.52-4.52.37-6.69-.48,2.27-.53,4.52-.36,6.69.48h0Z"/>
    <path class="cls-1" d="M296.54,232.66c-.32,18.37-.42,41.19-1.19,59.45-.16,1.66-.44,3.34-.97,4.95-.55,1.58-1.21,3.1-.38,4.38,2.54,3.22.6,7.24-2.97,8.64-12.79,3.98-27.55.05-37.44-8.82-1.71-1.6-.3-3.41.8-4.78,1.1-1.33.65-2.93.36-4.49,0,0-1.81-9.74-1.81-9.74,0,0-3.52-19.5-3.52-19.5s4,19.4,4,19.4l1.95,9.71c.22,1.21.64,2.57.21,3.84-.51,1.72-3.23,3.29-1.45,5.01,9.66,8.46,24.1,12.35,36.5,8.44,2.11-.83,3.89-2.87,3.53-5.19-.12-.7-.56-1.31-1-2.08-1.01-1.58-.23-3.59.34-5.13,1.5-4.69,1.08-9.72,1.34-14.61,0,0,.3-9.9.3-9.9.29-9.85,1.01-29.75,1.4-39.6h0Z"/>
    <path class="cls-1" d="M248.31,264.72c.86,3.27.88,6.75.09,10.05-.7,3.33-2.73,6.19-3.89,9.34-1.1,3.16-1.35,6.55-2.02,9.88-.63,3.32-1.86,6.94-4.91,8.81,0,0,.07-.53.07-.53,1.31,1.4,2.26,3.13,2.72,5,.05.19-.07.39-.25.45-12.28,4.04-25.27,5.85-38.2,5.47-.33,0-.57-.37-.43-.68,5.94-14.19-1.68-29.02-4.26-43.12-.91-4.87-1.24-9.95-.27-14.87.04-.2.23-.33.43-.3.06.01.12.04.16.07l2.88,2.27-.53.43c-2.97-6.17-4.35-13.08-4.08-19.89.26-6.81,2.12-13.57,5.51-19.46-3.27,5.96-4.96,12.72-5.09,19.47-.12,6.75,1.27,13.54,4.28,19.57.18.33-.26.65-.53.43,0,0-2.9-2.24-2.9-2.24l.59-.22c-.89,4.81-.5,9.77.4,14.58,2.68,14.24,10.45,29.27,4.29,43.67,0,0-.43-.67-.43-.67,12.82.44,25.7-1.38,37.94-5.23l-.25.45c-.41-1.75-1.28-3.39-2.5-4.71-.15-.16-.11-.41.07-.52,2.91-1.74,4.07-5.16,4.72-8.34.7-3.28.98-6.69,2.19-9.91,1.23-3.16,3.3-5.91,4.08-9.24.85-3.25.9-6.72.12-10h0Z"/>
    <path class="cls-1" d="M260.1,272.73c-7.21-8.24-16.61-14.5-27.04-17.83-1.31-.43-3.21-.95-4.53-1.3.78.11,1.56.22,2.34.35,11.65,2.16,22.5,9,29.23,18.78h0Z"/>
    <path class="cls-1" d="M252.38,268.54c-7.96-1.43-15.71-4.04-22.9-7.75,7.72,2.43,15.29,4.99,22.9,7.75h0Z"/>
    <path class="cls-1" d="M289.1,300.99c-3.97-7.14-9.26-13.51-15.69-18.54-.8-.64-1.99-1.52-2.8-2.13,8.42,4.25,15.21,11.82,18.49,20.67h0Z"/>
    <path class="cls-1" d="M293.3,302.42c-2.77-10.73-8.39-20.68-16.26-28.49-.98-.99-2.46-2.34-3.48-3.26.65.46,1.3.92,1.95,1.39,9.49,7.33,16.13,18.46,17.79,30.35h0Z"/>
    <path class="cls-1" d="M239.77,299.87c-6.27,5.72-14.71,9.09-23.19,9.31.89-.2,2.19-.46,3.09-.69,7.16-1.66,13.92-4.65,20.1-8.62h0Z"/>
    <path class="cls-1" d="M224.7,298.09c-2.84,1.46-5.88,2.26-9.08,2.39,2.84-1.46,5.88-2.26,9.08-2.39h0Z"/>
    <path class="cls-1" d="M219.92,289.5c-3.51.02-7.03-1.39-9.55-3.84,3.28,1.28,6.29,2.49,9.55,3.84h0Z"/>
    <path class="cls-1" d="M294.93,236.47c-2.15,4.88-6.75,8.78-11.92,10.1,4.64-2.66,8.54-5.95,11.92-10.1h0Z"/>
    <path class="cls-1" d="M293.34,244.1c-.8,17.66-1.39,36.8-1.71,54.47-1.01-18.12-.45-36.45,1.71-54.47h0Z"/>
    <path class="cls-1" d="M289.62,310.86c6.36,13.43,7.46,29.27,2.99,43.46-2.2,7.11-5.73,13.74-6.99,20.98-.71,3.57-.35,7.34-1.43,11.05-1.1,4.68-6.95,9.07-11.25,5.22-5.28-5.06-1.48-12.73-2.33-19-.86-12.77-7.81-25.27-5.24-38.3.63-3.62,2.45-7.06,2.06-10.79-.54-5.58-4.83-10.01-5.48-15.58.79,5.59,5.19,9.91,5.85,15.55.48,3.77-1.28,7.32-1.88,10.93-1.05,5.44-.27,11.01.95,16.37,2.05,8.92,5.38,17.99,4.64,27.37-.58,4.78-1.58,12.18,4.3,13.83,1.64.35,3.39-.32,4.7-1.47,4.39-3.84,3.13-10.04,4.22-15.34,1.35-7.42,4.87-14.07,7.15-21.05,4.55-14.03,3.74-29.74-2.27-43.23h0Z"/>
    <path class="cls-1" d="M283,315.34c-3.48,2.28-5.99,5.23-7.69,9.02.25-4.17,3.62-8.11,7.69-9.02h0Z"/>
    <path class="cls-1" d="M272.94,318.15c-.26,1.38-1.07,2.36-2.39,2.87.26-1.38,1.08-2.36,2.39-2.87h0Z"/>
    <path class="cls-1" d="M238.98,309.47c1.29,7.89-1.38,15.73-2.35,23.52-3.67,23.4-6.54,46.98-7.15,70.68-.5-23.74,2.4-47.44,6.35-70.81,1.14-7.77,3.96-15.45,3.14-23.38h0Z"/>
    <path class="cls-1" d="M217.14,401.37c-4.41-10.59-7.98-21.54-10.89-32.63-4.16-14.92-4.41-31.06,3.71-44.73,1.7-3.36,3.26-7.04,2.65-10.89.86,3.82-.59,7.68-2.18,11.11-7.55,13.53-7.29,29.67-3.33,44.29,2.8,11.1,6.1,22.09,10.04,32.84h0Z"/>
    <path class="cls-1" d="M286.79,371.75c6.94,1.06,9.98,9.43,8.19,15.62-1.65,6.42-5.78,11.78-9.86,16.85-4.46,5.95-10.47,3.54-15.73.18-2.35-1.48-2.11-4.58-2.14-7,.02-4.89.79-9.79,2.3-14.43-1.21,4.72-1.77,9.56-1.67,14.42.08,1.6.03,3.28.57,4.68.51,1.42,2.09,2.02,3.48,2.82,4.52,2.51,9,3.35,12.42-1.32,2.1-2.45,4.04-5.04,5.79-7.74,3.38-5.21,6.33-11.89,3.59-17.98-1.21-2.92-3.72-5.45-6.95-6.11h0Z"/>
    <path class="cls-1" d="M283.91,401.37c-.83-.18-1.15-1.2-1.31-1.92-.32-2.2-2.07-3.7-4.27-3.87,1.92-.93,4.41.54,4.9,2.56.33,1.11-.16,2.32.68,3.22h0Z"/>
    <path class="cls-1" d="M272.9,395.63c-1.85.02-3.45,1.08-4.2,2.77-.83-2.21,2.5-4.4,4.2-2.77h0Z"/>
  </g>
  <g>
    <path class="cls-1" d="M104.01,34.03c1.35-1.27,3.72-.25,4.08,1.53.12.44.08.94,0,1.36-.92,4.34-2.19,8.61-3.88,12.71-.03.1-.13.18-.23.17-.98-.05-1.95-.07-2.93-.15.97-.15,1.94-.24,2.91-.36,0,0-.23.17-.23.17.48-1.73,2.8-10.05,3.24-11.58.14-.6.55-1.57.42-2.18-.18-1.51-2.02-2.5-3.38-1.67h0Z"/>
    <path class="cls-1" d="M102.32,49.87c-2.63,6.33-3.92,13.2-3.69,20.01,0,.13-.09.24-.21.26-8.28,1.69-16.86,1.98-25.25.75-.22-.03-.37-.22-.37-.44-.07-4.4.59-14.63,0-18.8-.36-1.99-1.34-3.83-2.23-5.74-1.84-3.89-2.64-8.08-3.59-12.16-1.86-8.03-3.1-17.68,2.57-24.54,5.36-6.79,15.09-9.32,23.13-6.34,4.01,1.36,7.61,3.81,10.41,6.94-2.91-3.03-6.54-5.36-10.52-6.61-7.9-2.69-17.3-.18-22.4,6.49-5.39,6.77-4.11,15.96-2.26,23.84.96,4.08,1.82,8.21,3.56,11.96.86,1.88,1.89,3.81,2.28,5.98.6,4.38-.13,14.48-.07,18.99,0,0-.37-.43-.37-.43,8.27,1.26,16.77,1.16,25.02-.42l-.21.26c-.08-6.89,1.36-13.79,4.21-20.03h0Z"/>
    <path class="cls-1" d="M104.18,10.62c2.09,1.96,3.27,4.85,3.15,7.71-1.25-2.59-2.22-4.99-3.15-7.71h0Z"/>
    <path class="cls-1" d="M103.79,14.26c2.44,2.04,3.72,5.5,3.16,8.63-.88-3.07-1.85-5.72-3.16-8.63h0Z"/>
    <path class="cls-1" d="M104.82,21.88c1.36,1.38,1.77,3.56,1,5.34-.64-1.85-.92-3.39-1-5.34h0Z"/>
    <path class="cls-1" d="M104.59,27.73c.94,1.56,1.03,3.46.21,5.09-.56-1.74-.62-3.31-.21-5.09h0Z"/>
    <path class="cls-1" d="M103.62,31.8c.58,2.86-.35,6.03-2.39,8.11.83-2.82,1.57-5.29,2.39-8.11h0Z"/>
    <path class="cls-1" d="M100.55,35.11c-.09,6.33-3.02,12.73-7.76,16.93,3.68-5.17,6.25-10.76,7.76-16.93h0Z"/>
    <path class="cls-1" d="M92.34,53.52c-5.72-.16-11.19.25-16.82,1.22,5.21-2.32,11.33-2.76,16.82-1.22h0Z"/>
    <path class="cls-1" d="M71.44,48.71c-.65.51-1.6.49-2.38.19-2.38-1.04-2.84-4.01-3.75-6.09-.42-1.42-1.36-3.17-1.17-4.73.22-1.81,1.95-3.12,3.55-2.93-1.58.22-2.73,1.64-2.78,3-.03,1.22.95,3.13,1.33,4.33.97,2.36,1.62,7.23,5.19,6.24h0Z"/>
    <path class="cls-1" d="M98.27,72.95c-7.16,3.01-15.33,3.44-22.85,1.57-1.37-.38-4.59-1.34-1.53-.72,0,0,1.63.24,1.63.24,7.57,1.12,15.3.67,22.75-1.09h0Z"/>
    <path class="cls-1" d="M98.81,69.42c3,1.56,4.96,4.47,7.76,6.26,8.34,5.69,19.24,6.13,27.16,12.62,10.15,8.35,16.54,32.67,19.98,45.47.85,3.23,1.53,6.51,2.69,9.57.6,2.07,2.19,3.71,2.67,5.75.15,1.43-.93,2.59-1.66,3.63-2.08,2.71-4.79,4.87-7.77,6.47-6.02,3.22-12.99,3.98-19.64,3.53-1.29-.16-2.58-.03-3.81-.55-.44-.23-.74-.61-.96-.99-.78-1.53-1.44-3.02-2.15-4.54,0,0-4.21-9.08-4.21-9.08,0,0,.19.01.19.01-1.71,2.63-1.74,6.28-.04,8.97-1.76-2.65-1.83-6.34-.14-9.09.04-.08.16-.06.19.01,0,0,4.42,8.98,4.42,8.98.74,1.48,1.46,3.03,2.21,4.46.2.34.45.62.76.78,7.6,1.27,15.97.39,22.79-3.24,2.88-1.57,5.49-3.66,7.47-6.27.88-1.22,2.07-2.49,1.11-4-2.78-4.23-3.79-9.39-5.05-14.17-3.52-12.86-9.5-36.52-19.5-45.16-7.76-6.49-18.68-7.09-26.82-12.99-2.79-1.89-4.67-4.83-7.63-6.45h0Z"/>
    <path class="cls-1" d="M73.7,70.93c-.27-1.08-1.77-.65-2.48-.29,0,0-2.63,1.21-2.63,1.21-3.25,1.5-12.41,5.67-15.8,7.23,0,0-10.55,4.78-10.55,4.78-3.42,1.63-7.19,2.89-10.01,5.48-9.67,10.07-11.45,29.83-13.97,43.21-1.44,8.59-3.93,16.95-5.8,25.42-.19.94-.48,1.9-.31,2.66.14.75.93,1.24,1.76,1.73.81.5,1.65.95,2.5,1.38,6.76,3.26,14.92,4.45,22.18,2.36.7-.36.51-1.44.48-2.38-.45-10.58-3.53-21.02-9.01-30.12,5.14,8.17,8.42,17.57,9.38,27.19.04,1.71.56,3.53.07,5.2-.71,1.22-2.33,1.09-3.51,1.41-6.74,1.13-13.83.13-19.98-2.87-1.33-.7-2.63-1.32-3.83-2.26-.41-.34-.79-.86-.91-1.43-.23-1.16.13-2.12.3-3.05,1.84-8.49,4.29-16.86,5.69-25.41,2.57-13.38,4.49-33.63,14.44-43.6,2.95-2.65,6.75-3.86,10.27-5.49,0,0,10.61-4.65,10.61-4.65,3.4-1.45,12.63-5.48,15.95-6.9,0,0,2.66-1.15,2.66-1.15.75-.38,2.25-.73,2.51.34h0Z"/>
    <path class="cls-1" d="M130.51,123.59c-2.9,3.79-5.34,7.9-7.19,12.26-1.68,4.45-3.23,8.94-4.71,13.47-.15.5-.94.41-.97-.11-.23-2.41-.26-4.84-.12-7.26.41-7.22,2.51-14.38,6.2-20.6-4.16,8.57-6.06,18.27-5.09,27.77,0,0-.97-.11-.97-.11.79-2.25,1.53-4.51,2.37-6.76l1.26-3.37c1.99-5.64,5.22-10.87,9.22-15.29h0Z"/>
    <path class="cls-1" d="M155.91,142.4c.96,6.41-11.65,14.49-16.92,16.57-1.1.43-2.25.81-3.42.84,1.14-.26,2.21-.72,3.22-1.29,5.1-2.74,9.8-6.21,13.95-10.23,1.61-1.6,3.14-3.51,3.17-5.89h0Z"/>
    <path class="cls-1" d="M140.9,151c-2.36,1.34-4.91,2.03-7.62,2.04,2.36-1.34,4.91-2.02,7.62-2.04h0Z"/>
    <path class="cls-1" d="M36.65,163.89c-7.19-.72-14.25-3.66-19.81-8.27,6.36,3.46,12.87,6.18,19.81,8.27h0Z"/>
    <path class="cls-1" d="M18.63,159.42c-1.76-.12-3.32-1.36-3.81-3.06,1.58.81,2.67,1.69,3.81,3.06h0Z"/>
    <path class="cls-1" d="M119.71,157c-2.43,11.38-.41,23.01,1.3,34.34.95,6.41,1.78,12.89,1.76,19.4.03,5.05-.98,10.1-1.6,15.06-.3,2.83-.34,5.75.58,8.41.52,2.14,2.6,3.63,2.72,5.96-.01.87-.57,1.61-1.1,2.11-6.5,6.18-15.89,7.32-24.45,7.82-18.75,1.13-37.65-.32-56.01-4.28-1.23-.32-3.08-.54-4.28-1.09-3.28-1.61-1.37-5.73-.9-8.33.47-2.76-.49-5.55-1.2-8.33-.81-2.8-.92-5.85-.39-8.71,1.9-8.46,1.51-17.17,1.3-25.79-.24-17.32,2.12-34.66,6.78-51.32-4.44,16.72-6.47,34.03-6.2,51.31.13,7.18.67,14.48-.45,21.65-.72,4.08-1.69,8.64-.32,12.68.7,2.74,1.74,5.62,1.25,8.65-.31,2.46-2.3,5.9.48,7.45,1,.45,2.97.74,4.1,1.01,1.4.31,2.82.56,4.23.84,16.97,3.16,34.32,4.31,51.55,3.4,8.39-.45,17.6-1.49,23.98-7.48.5-.48.87-1,.88-1.61-.18-2.06-2.16-3.61-2.65-5.7-.96-2.83-.9-5.84-.58-8.71.77-5.72,1.91-11.37,1.65-17.15-.3-17.18-6.32-34.44-2.45-51.59h0Z"/>
    <path class="cls-1" d="M123.14,214.48c-4.47,8.3-11.32,15.3-19.38,20.16-2.01,1.15-4.19,2.56-6.63,2.41-.8-.03-1.59-.36-2.17-.88,2.89,1.74,5.97-.64,8.39-2.18,2.57-1.74,5.05-3.61,7.38-5.65,4.7-4.08,8.81-8.77,12.41-13.86h0Z"/>
    <path class="cls-1" d="M113.94,234.14c-3.6,3.64-8.83,5.78-13.95,5.71,4.96-1.35,9.48-3.19,13.95-5.71h0Z"/>
    <path class="cls-1" d="M114.46,240.47c-18.47,6.46-39.01,6.94-57.83,1.67,0,0-3.73-1.16-3.73-1.16l3.8.9c19,4.25,38.99,3.76,57.77-1.41h0Z"/>
    <path class="cls-1" d="M55.98,237.58c-4.63-.17-9.22-1.56-13.17-3.99,4.5,1.16,8.78,2.46,13.17,3.99h0Z"/>
    <path class="cls-1" d="M40.5,238.48c1.46.53,2.36,1.04,3.56,2.04-1.49.41-3.15-.55-3.56-2.04h0Z"/>
    <path class="cls-1" d="M37.97,212.79c5.22,4.06,9.97,8.73,16.5,10.55-6.84-.41-12.34-5.54-16.5-10.55h0Z"/>
    <path class="cls-1" d="M120.14,156.39c-.34-1.89-.21-3.55.43-5.35.74,1.76.58,3.74-.43,5.35h0Z"/>
    <path class="cls-1" d="M143.87,160.66c3.31,11.57-3.89,22.41-7.84,32.83-.6,1.52-1.1,3.07-1.55,4.64.23-1.62.64-3.21,1.09-4.79,3.24-10.73,10.3-21.02,8.3-32.67h0Z"/>
    <path class="cls-1" d="M126.74,162.25c-3.76,8.38,1.92,16.67,2.26,25.1-.03,1.25-.22,2.5-.69,3.65.25-1.21.33-2.43.2-3.63-.33-3.67-1.87-7.03-2.77-10.61-1.27-4.69-1.75-10.22,1-14.5h0Z"/>
    <path class="cls-1" d="M134.38,198.86c.88,2.79.25,5.98-1.4,8.4-1.62,2.55-4.48,3.59-6.75,5.35.84-1.17,2.02-2.08,3.1-2.96,3.37-2.53,5.19-6.59,5.05-10.79h0Z"/>
    <path class="cls-1" d="M130.5,195.27c-.1,1.61-1.34,3.1-2.93,3.68-1.49.59-3.11.11-4.22,1.38.04-.4.29-.79.61-1.07.9-.77,2.28-.89,3.27-1.25,1.38-.5,2.45-1.49,3.28-2.74h0Z"/>
    <path class="cls-1" d="M128.47,190.73c-3.13,1.58-5.41,3.77-7.14,6.82.29-3.53,3.61-6.69,7.14-6.82h0Z"/>
    <path class="cls-1" d="M124.14,200.86c-.11,1.53-.57,2.64-1.58,3.8-.34-1.49.29-2.99,1.58-3.8h0Z"/>
    <path class="cls-1" d="M128.68,207.19c-1.07,2.32-3.08,4.14-5.5,4.94,1.65-1.97,3.38-3.51,5.5-4.94h0Z"/>
    <path class="cls-1" d="M125.65,207.46c-.49,1.7-2.02,2.96-3.79,3.09,1.12-1.38,2.21-2.26,3.79-3.09h0Z"/>
    <path class="cls-1" d="M34.26,167.41c-5.95,18.8-12.73,38.53-14.84,58.18,0,0-.39,4-.39,4l.13-4.02c1.17-20.15,7.86-39.49,15.1-58.16h0Z"/>
    <path class="cls-1" d="M13.3,162.68c-1.16,20.95-2.67,44.21-4.21,65.14.24-21.73,1.65-43.57,4.21-65.14h0Z"/>
    <path class="cls-1" d="M19.03,229.5c5.61,3.13,4.66,7.68,4.79,13.09,0,2.27.96,3.37,1.3,5.35.02.73-.21,1.38-.41,1.96-.82,2.27-1.17,4.67-1.13,7.06-.12.91-1.67.67-2.18.36-2.93-1.64-.8-5.2-.59-7.55.09-2-1.22-3.74-2.13-5.48-1.49-2.74-1.96-6.06-1.27-9.08-.68,4.23,1.14,8.02,3.38,11.46.49.93.88,1.99.86,3.13-.03,2.01-1.44,3.95-.66,5.82.32.73,1.29,1.25,1.9.92,0,0-.27.45-.27.45-.11-2.52.35-5.06,1.22-7.41.21-.57.39-1.11.38-1.62-.37-1.75-1.31-3.35-1.2-5.35.07-5.46,1.21-9.62-3.98-13.13h0Z"/>
    <path class="cls-1" d="M14.35,235.68c1.43,5.68-.24,12.02-4.23,16.33,0,0,.06-.42.06-.42,1.18,2.19,1.81,4.69,1.78,7.19l-.38-.44c1.04.12,2.11.28,3.15.67,1.03.4,2.07,1.06,2.56,2.27.45,1.12-.27,2.45-1.58,2.12-.53-.12-3.24-.79-3.82-.94-1.02-.33-2.32-.36-3.12-1.26-.69-.9-.85-2.07-1.25-3.04,0,0-2.03-5.9-2.03-5.9-.55-1.8-1.78-4.26-1.39-6.2,1.03-6.2,2.53-12.27,4.47-18.23-1.04,4.03-1.93,8.1-2.7,12.18-.35,3-1.66,6.07-.58,9.02,0,0,1.04,2.94,1.04,2.94l2.09,5.88c.3.69.66,2.19,1.1,2.71.47.54,1.65.65,2.63.93l3.02.78c.98.28,1.53.42,1.25-.7-.77-1.76-3.15-2.14-4.94-2.37-.22-.03-.39-.22-.39-.44.03-2.35-.5-4.72-1.55-6.85-.08-.14-.05-.31.06-.42,3.99-4.1,5.79-10.18,4.76-15.83h0Z"/>
    <path class="cls-1" d="M17.11,261.61c.81.34,1.69.38,2.45.15l-.23.24c.09-2.25-1.92-3.61-3.64-4.77-.68-.38-1.72-1.29-1.56-2.32.08-1.41.22-2.83.44-4.23.3,1.51.14,3.45.52,4.84,1.03,1.1,2.84,1.74,3.85,3.11.76.95,1.27,2.25.95,3.5-.03.11-.12.18-.22.2-.94.12-1.89-.17-2.57-.73h0Z"/>
    <path class="cls-1" d="M20.45,261.35c1-.34,1.75-1.12,2.02-2l.08.38c-1.07-.94-2.21-2.03-3.22-3.04-.5-.53-1.27-1.18-1.37-2.03-.08-1.74.18-3.53.44-5.24.23,1.42.33,2.99.4,4.43-.04,1.06.56,1.44,1.25,2.14,1,1.02,2.08,2.17,3.01,3.25.1.1.14.25.08.38-.5,1.07-1.6,1.76-2.67,1.74h0Z"/>
    <path class="cls-1" d="M113.2,248.05c1.65,19.32.18,38.93-4.31,57.8-.34,1.56-.54,3.1-.28,4.65.25,1.6.62,3.36.13,4.99-1.05,3.08-2.4,5.98-3.12,9.15-.79,3.1-1.29,6.27-1.47,9.46-.21,3.2.09,6.51-.4,9.71-3.15,19.04-5.27,38.48-5.93,57.76.13-19.38,1.9-38.77,5.03-57.88.47-3.21.16-6.39.35-9.64.17-3.26.65-6.5,1.45-9.66.71-3.12,2.12-6.21,3.16-9.16.45-1.46.11-2.98-.13-4.61-.27-1.66-.04-3.39.31-4.96,4.52-18.83,6.31-38.27,5.2-57.61h0Z"/>
    <path class="cls-1" d="M70.24,405.03c-6.57-25.52.25-51.71,4.34-77.01.34-4.53-.3-9.08-.51-13.62,0,0-1.16-18.25-1.16-18.25-.74-12.16-1.67-24.33-4.25-36.26,4.98,20.27,5.25,42.82,6.94,63.58.2,3.06-.11,6.19-.69,9.2-4.49,23.77-9.91,48.26-4.66,72.36h0Z"/>
    <path class="cls-1" d="M81.57,268.36c-7.19-6.6-15.6-11.83-24.78-15.17-1.14-.43-2.82-.98-3.97-1.37,11.08,1.97,21.49,7.94,28.75,16.54h0Z"/>
    <path class="cls-1" d="M66.96,261.26c-2.24.05-4.33-.56-6.18-1.82,2.25-.06,4.32.56,6.18,1.82h0Z"/>
    <path class="cls-1" d="M91.81,318.79c-5.33-6.43-10.35-13-15.16-19.84,5.86,5.95,10.96,12.63,15.16,19.84h0Z"/>
    <path class="cls-1" d="M83.76,319.73c-2.17-1.8-3.81-4.02-4.87-6.64,2.17,1.8,3.8,4.03,4.87,6.64h0Z"/>
    <path class="cls-1" d="M40.73,243.62c-.78,11.29.06,22.68,2.5,33.72,1.2,5.52,2.86,10.93,4.82,16.22.48,1.32,1.06,2.65,1.34,4.11.32,1.47.08,2.98.02,4.33-.12,2.7,1.04,5.42,3.05,7.21.16.15.2.39.11.57-1.31,2.59-1.45,5.61-1.58,8.59-.66,20.77-3.71,42.38,2.74,62.54,0,0-.14-.12-.14-.12,4.69.91,9.64.58,14.2-.97-4.51,1.6-9.73,2.32-14.4,1.21-6.97-20.1-3.97-41.88-3.39-62.7.15-2.97.28-6.15,1.72-8.98l.11.57c-2.22-2-3.47-4.99-3.33-7.96.44-2.95-.11-5.41-1.27-8.1-1.97-5.33-3.56-10.81-4.68-16.38-2.33-11.11-2.9-22.58-1.81-33.87h0Z"/>
    <path class="cls-1" d="M57.85,382.12c1.3,5.39,1.93,10.87,1.86,16.42-1.31-5.39-1.92-10.87-1.86-16.42h0Z"/>
    <path class="cls-1" d="M67.34,318.94c-4.2-1.39-8.02-3.95-11.12-7.11-1.74-1.77-3.53-4.08-6.08-4.69,3.71.14,6.03,3.67,8.68,5.76,2.63,2.27,5.5,4.22,8.52,6.04h0Z"/>
    <path class="cls-1" d="M57.65,317.96c-2.23-1.11-4.01-2.74-5.31-4.87,2.23,1.11,4.01,2.75,5.31,4.87h0Z"/>
    <path class="cls-1" d="M66.93,307.79c-4.85-4.44-10.07-8.08-15.91-11.11,6.33,1.7,12.13,5.75,15.91,11.11h0Z"/>
    <path class="cls-1" d="M54.99,302.91c-1.29-.62-2.04-1.68-2.21-3.1,1.29.62,2.04,1.68,2.21,3.1h0Z"/>
    <path class="cls-1" d="M103.05,343.99c-2.04,5.86-4.66,11.47-7.7,16.87-.19.43-.57.77-1.04.84-.23.06-.55-.08-.42-.36-.05.26.19.3.38.21.39-.13.64-.47.73-.85,2.21-5.78,4.84-11.39,8.04-16.71h0Z"/>
    <path class="cls-1" d="M102.32,325.47c-1.94,5.47-4.1,10.72-6.6,15.96,1.18-5.67,3.43-11.1,6.6-15.96h0Z"/>
    <path class="cls-1" d="M64.75,373.43c-3.3,1.11-6.71,1.55-10.19,1.29,3.3-1.11,6.71-1.54,10.19-1.29h0Z"/>
    <path class="cls-1" d="M60.3,370.63c-1.73.38-3.38.09-4.87-.89,1.73-.39,3.38-.08,4.87.89h0Z"/>
  </g>
  <g>
    <path class="cls-1" d="M313.22,96.13c-7.26-5.46-7.95-17.66-1.09-23.99.81-.76,1.62-1.5,1.98-2.43.76-2.96-.14-6.67-.08-9.8-.31-6.59.51-14.17,5.59-19.02,5.03-4.89,13.85-4.67,18.85.14,2.9,3.35,6.15,7.04,6.47,11.66.15,4.55-2.01,9.05-5.58,11.74,3.42-2.86,5.39-7.33,5.09-11.71-.2-3.34-2.34-6.12-4.36-8.66-3.05-4.58-8.91-6.77-14.23-5.5-4.31.92-7.54,4.4-9.12,8.39-2.58,6.14-1.76,13.07-1.5,19.6.04,1.1.12,2.31-.36,3.47-.49,1.16-1.43,1.94-2.23,2.68-6.65,5.91-6.32,17.76.57,23.43h0Z"/>
    <path class="cls-1" d="M315.23,80.43c-.17,4.61-.67,15.87,4.03,18.11-5.88-1.52-5.56-13.53-4.03-18.11h0Z"/>
    <path class="cls-1" d="M340.11,55.43c-.9,4.11-2,8.52-.47,12.6.96,2.72,2.65,5.3,2.74,8.32.11,4.6-3.26,8.31-6.33,11.26.89-1.15,1.81-2.26,2.61-3.45,8.31-12.01-5.36-12.59,1.45-28.73h0Z"/>
    <path class="cls-1" d="M336.82,73.96c1.3,4.13-.37,8.58-2.55,12.1-1.74,2.63-3.4,5.41-5.91,7.39-.87.62-1.85,1.11-2.89,1.27.98-.38,1.85-.94,2.58-1.65,2.21-2.15,3.68-4.98,5.37-7.53,2.16-3.47,3.9-7.41,3.4-11.57h0Z"/>
    <path class="cls-1" d="M327.29,86.16c-.38,2.98-2.63,5.74-5.49,6.69,2.09-2.18,3.76-4.21,5.49-6.69h0Z"/>
    <path class="cls-1" d="M313.33,77.97c-2.05,4.16-2.52,8.61-1.39,13.11-2.54-3.93-1.91-9.8,1.39-13.11h0Z"/>
    <path class="cls-1" d="M340.74,84.28c4.71,3.88,10.9,5.41,15.33,9.68,1.49,1.42,2.77,3.13,3.49,5.12,1.26,3.99.61,8.08.68,12.15-.09,3.53-.19,8.58-.39,12.07-.18-3.46-.31-8.54-.38-12.07-.23-3.9.41-8.1-.85-11.82-2.95-7.85-12.42-9.58-17.89-15.13h0Z"/>
    <path class="cls-1" d="M359.62,122.7c.42,3.68-2.22,7.64-5.79,8.64,2.84-2.34,4.71-5.12,5.79-8.64h0Z"/>
    <path class="cls-1" d="M361.35,124.21c1.11,4.71-1.8,10.22-6.32,11.95,3.7-3.04,5.9-7.18,6.32-11.95h0Z"/>
    <path class="cls-1" d="M361.61,127.87c.43,6.19,3.78,11.61,4.66,17.72.75,4.21-.22,9.77-5.61,9.7-6.8-.07-10.49-6.98-11.71-12.83,1.74,5.4,5.3,11.89,11.7,11.92,4.61.07,5.3-5.03,4.72-8.67-.79-6.01-3.92-11.68-3.76-17.84h0Z"/>
    <path class="cls-1" d="M351.62,123c1.54,6.24-8.59,17.34-13.16,21.22-.97.75-2.03,1.45-3.21,1.78,1.09-.54,2.05-1.29,2.89-2.15,2.54-2.57,4.87-5.39,7.08-8.25,2.61-3.85,6.52-7.66,6.41-12.61h0Z"/>
    <path class="cls-1" d="M346.15,141.56c-1.29,2.35-3.5,4.14-6.08,4.88,1.87-1.94,3.78-3.47,6.08-4.88h0Z"/>
    <path class="cls-1" d="M350.78,131.68c-3.07,6.83-3.42,14.78-.95,21.83.4,1.17.9,2.3,1.46,3.4.25.54.67,1.12.7,1.97-.13,2.71-3.8,2.1-5.39,1.52-8.37-2.27-16.97-5.33-25.75-4.04,8.72-2,17.6.91,26,3.12,1.21.31,3.87,1.13,4.16-.59-.37-1.61-1.61-3.38-2.04-5.07-2.47-7.19-1.84-15.48,1.81-22.13h0Z"/>
    <path class="cls-1" d="M349.69,161.14c5.34,30.49,2.5,48.56-8.71,77.24.99-3.13,2.02-6.25,2.97-9.39,3.88-12.48,7.03-25.32,7.48-38.43.31-9.84-.8-19.63-1.74-29.42h0Z"/>
    <path class="cls-1" d="M340.66,239.83c-4.11,18.79-.14,38.27-3.87,57.11-.52,2.72-1.08,5.55-2.8,7.84-.18.24-.55.25-.74.01-1.46-1.75-3.01-3.42-4.77-4.83-5.39-4.74-13.46-4.31-16.68,2.58-.16.43-.85.33-.88-.13-.98-10-1.98-20.17-.63-30.17.93-5.05,3.43-9.53,5.65-14l6.77-13.46s-6.43,13.63-6.43,13.63c-2.09,4.55-4.54,9.02-5.35,13.94-.78,4.93-.44,9.99-.31,14.97.2,5.01.61,10.01,1.21,14.98,0,0-.88-.13-.88-.13,3.44-7.5,12.33-8.15,18.15-2.98,1.83,1.48,3.4,3.21,4.88,4.99,0,0-.74.01-.74.01,1.58-2.07,2.15-4.79,2.66-7.44.54-2.59.94-5.43,1.2-8.05,1.68-16.24-.4-32.9,3.56-48.89h0Z"/>
    <path class="cls-1" d="M334.63,233.67c-1.7,4.2-3.66,8.29-5.69,12.34-1.03,2.02-2.07,4.03-3.17,6.01-1.1,1.92-2.17,4.21-4.26,5.25,1.83-1.4,2.61-3.6,3.58-5.61.94-2.06,1.95-4.08,2.96-6.1,2.06-4.03,4.19-8.02,6.58-11.88h0Z"/>
    <path class="cls-1" d="M333.27,250.75c-3.55,4.45-7.6,8.46-12.11,11.94,3.56-4.48,7.59-8.44,12.11-11.94h0Z"/>
    <path class="cls-1" d="M317.33,257.58c1.15-5.81.95-11.7.99-17.6.04-5.9.01-11.79.12-17.69.14-11.79.34-23.58.8-35.37.25,11.8.23,23.59.16,35.38,0,5.9-.14,11.79-.2,17.69-.11,5.87-.21,11.89-1.86,17.58h0Z"/>
    <path class="cls-1" d="M334.7,180.12c-5.24,3.71-11.42,6.16-17.79,7.02,6.04-2.21,11.86-4.51,17.79-7.02h0Z"/>
    <path class="cls-1" d="M325.16,186.97c-.86.88-1.9,1.1-3.04.64.85-.88,1.9-1.1,3.04-.64h0Z"/>
    <path class="cls-1" d="M310.22,289.76c-4.7.59-7.34-.6-8.38-5.44-1.34-4.74-1.84-9.71-1.48-14.62.12-1.22.25-2.44.48-3.64-.04,2.45-.01,4.88.17,7.29.48,4.7,1.01,9.71,2.86,14.05,1.27,2.07,4.1,2.21,6.34,2.35h0Z"/>
    <path class="cls-1" d="M333.4,304.18c-1.74,1.65-4.53,2.14-6.72,1.14,2.37-.43,4.34-.76,6.72-1.14h0Z"/>
    <path class="cls-1" d="M325.55,297.75c-.43,10.51.38,20.95,2.02,31.32-.09,4.49-6.2,3.54-9.24,3.87-2.18.06-4.41.05-6.59-.02-1.69.06-2.81-1.62-2.66-3.15.16-1.9,1.34-3.27,1.85-5.01.53-1.61.83-3.31.84-5.01.1-3.48-1.55-6.85-1.1-10.4.29-3.45,4.58-6.05,3.04-9.68,1.78,3.52-2.37,6.35-2.55,9.75-.34,3.42,1.38,6.71,1.38,10.34.04,1.79-.23,3.59-.79,5.29-.59,2.28-3.01,4.81-.96,6.68.5.36,1.43.26,2.3.29,1.74.02,3.48,0,5.22-.06,2.41-.29,8.34.63,8.36-2.84-1.58-10.33-2.12-20.94-1.11-31.35h0Z"/>
    <path class="cls-1" d="M312.1,310.87c2.95-2.9,8.37-1.26,9.46,2.7.81,3.68.74,7.33,2.18,10.86.81,2.32,1.94,4.52,3.25,6.6-1.67-1.86-2.98-4.03-3.97-6.32-1.65-3.37-1.71-7.29-2.36-10.86-.94-3.59-5.44-5.15-8.56-2.98h0Z"/>
    <path class="cls-1" d="M323.87,305.39c-1.37-1.63-3.35-2.21-5.36-2.49-1.86-.23-4.36-.64-5.17,1.54.1-4.56,9.8-2.66,10.53.94h0Z"/>
    <path class="cls-1" d="M334.22,298.29c-1.69-3.92-6.31-4.98-10.12-5.57-3.98-.54-8.29.4-11.02,3.55,2.15-3.78,7.04-5.13,11.14-4.54,3.92.58,9.03,2.18,10,6.56h0Z"/>
    <path class="cls-1" d="M362.46,154.11c-3.45,1.45-7.06,2.25-10.8,2.36,3.45-1.46,7.06-2.24,10.8-2.36h0Z"/>
    <path class="cls-1" d="M351.42,159.51c8.17.02,8.32,10.22,8.84,16.2.33,3.36.9,10.12,1.14,13.48.16,2.24.41,4.56-.09,6.85-.84,4.82-5.63,7.33-9.9,8.56,3.99-1.61,8.49-4.04,9.14-8.71.57-3.76-.45-9.51-.68-13.37,0,0-1.06-13.47-1.06-13.47-.28-4.25-2.53-9.4-7.4-9.55h0Z"/>
    <path class="cls-1" d="M360.57,195.65c-1.78,1.65-4.33,2.4-6.72,1.97,2.25-.96,4.31-1.55,6.72-1.97h0Z"/>
    <path class="cls-1" d="M352.53,202.54c4.82-2.75,4.46-8.91,3.95-13.71-.64-6.8-1.26-13.64-2.35-20.38-.31-1.67-.84-3.3-1.79-4.74,1.14,1.3,1.8,2.97,2.27,4.63,1.54,6.71,2.31,13.56,2.81,20.42.44,4.86.36,11.55-4.89,13.79h0Z"/>
    <path class="cls-1" d="M307.91,82.12c-3.07,3.83-8.46,3.97-12.74,5.54-1.39.53-2.94,1.15-3.44,2.68.01-.81.52-1.55,1.1-2.1,4.38-3.5,10.68-2.64,15.08-6.12h0Z"/>
    <path class="cls-1" d="M335.4,105.45c-7.49.58-14.98.47-22.44-.33,7.49-.58,14.98-.47,22.44.33h0Z"/>
    <path class="cls-1" d="M320.22,106.46c-1.14,13.44,4.5,26.43,3.43,39.87-.1.89-.21,1.78-.34,2.66.06-1.53.07-3.79,0-5.34-.6-12.4-5.38-24.72-3.09-37.2h0Z"/>
    <path class="cls-1" d="M340.54,153.85c-5.19-.93-10.21-1.27-15.48-1.09,5.02-1.58,10.73-1.17,15.48,1.09h0Z"/>
    <path class="cls-1" d="M335.1,158.94c-5.86.65-11.4,1.82-17.03,3.55,5.04-3.01,11.21-4.29,17.03-3.55h0Z"/>
  </g>
  <g>
    <path class="cls-1" d="M433.9,97.98c3.96.88,7.62-2.96,6.37-6.83-.67-2.64-3.54-3.46-4.8-5.78-.68-1.22-.3-2.66-.07-3.92.44-2.49.69-5.01.66-7.53.41-14.57-12.67-28.48-26.53-18.13-5.19,3.93-5.53,11.11-5.22,17.12.28,3.71.38,8.19-2.56,11.02-5.01,4.28-4.2,12.84,1.75,15.97-6.19-2.93-7.27-11.83-2.17-16.35,2.79-2.84,2.53-6.87,2.21-10.6-.71-7.92.66-16.4,8.72-19.99,13.99-6.86,25.24,7.78,24.57,20.95-.02,2.57-.32,5.13-.81,7.65-.24,1.26-.62,2.49-.04,3.55,1.16,2.15,4.14,3.29,4.66,5.93,1.19,4.08-2.68,8-6.73,6.93h0Z"/>
    <path class="cls-1" d="M432.85,91.78c2.59.34,3.08,3.97,1.62,5.8-.74.95-1.79,1.59-2.87,1.94-1.08.35-2.2.47-3.31.42,1.05-.36,2.07-.69,3.01-1.15.93-.46,1.78-1.04,2.37-1.82,1.13-1.5,1.09-4.21-.83-5.19h0Z"/>
    <path class="cls-1" d="M402.62,91.14c-1.33,4.97,2.48,9.82,7.61,9.73-1.21.4-2.58.35-3.82-.07-3.91-1.11-5.95-6.29-3.79-9.66h0Z"/>
    <path class="cls-1" d="M406.85,92.61c.32,4.89,3.71,8.73,8.51,9.68-5.07.72-9.87-4.75-8.51-9.68h0Z"/>
    <path class="cls-1" d="M428.81,90.75c2.72,1.31,1.56,4.98.43,6.98-.98,2.21-3.7,4.7-6.23,3.37,1.25.22,2.41-.27,3.29-.99.88-.74,1.51-1.76,2.05-2.83,1.05-2.03,2.44-4.61.46-6.53h0Z"/>
    <path class="cls-1" d="M422.75,94.57c.19,2.75-2.42,5.47-5.18,5.38,2.32-1.4,3.88-3.01,5.18-5.38h0Z"/>
    <path class="cls-1" d="M441.45,95.88c1.57-.96,3.62-.2,4.78,1.09,1.22,1.36,1.55,3.24,1.62,4.98,0,3.51-.24,6.97-.34,10.45-.27,6.94-.45,13.9.35,20.77.22,2.56,1.02,5.39.02,7.97-1.06,2.86-5.11,4.33-6.91,1.32-1.02-1.64-1.12-3.46-1.42-5.16-1.06-6.91-1.24-13.95-.48-20.87-.35,6.94.02,13.91,1.24,20.74.34,1.69.53,3.47,1.39,4.81,1.42,2.38,4.54,1,5.32-1.19.88-2.42.08-4.97-.15-7.51-.73-6.97-.55-13.98-.12-20.92.2-3.47.51-6.96.62-10.4,0-1.69-.23-3.49-1.33-4.81-1.06-1.28-3-2.12-4.58-1.27h0Z"/>
    <path class="cls-1" d="M441.45,111.98c-1.38,7.02-9.73,8.41-15.74,8.63-6.41.43-12.91.06-19.15-1.54-2.05-.57-4.19-1.11-6.01-2.37-1.75-1.22-3.08-3.48-2.43-5.62-.65,4.8,4.83,6.52,8.62,7.24,6.19,1.39,12.58,1.68,18.91,1.39,5.93-.21,13.83-1.02,15.79-7.72h0Z"/>
    <path class="cls-1" d="M398.43,91.87c-2.29-.6-4.54,1.14-5.36,3.18-.9,2.08-.85,4.43-.97,6.73-.21,4.63-.5,9.25-.75,13.87-.3,4.61-.66,9.26-.93,13.84-.08,2.28.06,4.6.91,6.71.81,2.1,2.34,4.02,4.5,4.92-2.25-.68-3.96-2.61-4.95-4.73-1.9-4.39-1.08-9.27-.92-13.87,0,0,.39-6.93.39-6.93.33-4.62.61-9.24.98-13.86.22-2.28.24-4.71,1.29-6.89.99-2.08,3.48-3.82,5.8-2.98h0Z"/>
    <path class="cls-1" d="M396.78,115.46c.36,4.89.63,9.77.86,14.67.13,2.45.08,4.96-.43,7.41-.49,2.44-1.3,4.77-1.91,7.12-2.61,9.39-3,19.35-1.52,28.97-.59-2.38-.97-4.81-1.24-7.25-.75-7.36-.11-14.83,1.8-21.98.65-2.38,1.48-4.68,1.99-7.04.53-2.35.56-4.77.55-7.21-.07-4.29-.14-10.45-.09-14.69h0Z"/>
    <path class="cls-1" d="M440.77,142.22c.82,7.3,1.55,15.44,2.23,22.8,0,0,.64,7.61.64,7.61.02.21-.12.4-.31.46-16.09,5.41-32.56-3.42-48.89-1.15,16.13-3.21,32.69,5.43,48.6.29,0,0-.31.46-.31.46l-.57-7.61c-.5-7.38-1.03-15.5-1.39-22.85h0Z"/>
    <path class="cls-1" d="M397.26,117.15c-1.26-7.87-1.18-15.99.27-23.83-.07,7.98-.16,15.84-.27,23.83h0Z"/>
    <path class="cls-1" d="M399.68,96.78c.1,4.65-.1,9.28-.37,13.91-.27,4.07-.79,9.82-.49,13.85-1.06-4.55-.77-9.3-.51-13.91.31-4.63.69-9.25,1.36-13.85h0Z"/>
    <path class="cls-1" d="M436.65,98.97c-.47,6.44-.56,12.7-.28,19.15-1.66-6.22-1.56-12.98.28-19.15h0Z"/>
    <path class="cls-1" d="M430.84,118.84c1.22-.66,1.07-3.01,1.33-4.19.21-1.53.46-3.05.7-4.58.52-3.04,1.02-6.08,1.75-9.11.05,4.67-.62,9.3-1.69,13.84-.45,1.37-.49,3.5-2.09,4.05h0Z"/>
    <path class="cls-1" d="M435.85,120.5c-7.57,4.73-16.84,1.95-25.18,2.38-1.21.04-2.41.18-3.62.37,1.15-.41,2.36-.66,3.57-.86,8.39-1.2,17.2,1.62,25.23-1.9h0Z"/>
    <path class="cls-1" d="M423.92,153.12c-6.56-1.97-12.75-5.19-18.13-9.43,6.13,3.08,12.09,6.18,18.13,9.43h0Z"/>
    <path class="cls-1" d="M419.27,156.25c-5.72-2.46-11.12-5.51-16.16-9.17,5.72,2.45,11.11,5.52,16.16,9.17h0Z"/>
    <path class="cls-1" d="M394.65,172.44c2.26,18.33,5.26,36.63,8.96,54.72-5.01-17.82-8.03-36.23-8.96-54.72h0Z"/>
    <path class="cls-1" d="M406.27,225.69c-4.36,2.56-5.44,7.96-6.76,12.46-3.12,11.8-3.16,24.19-1.82,36.27.23,2.43.59,4.85.9,7.28-.54-2.39-.99-4.8-1.39-7.22-1.88-12.1-1.92-24.72,1.57-36.54,1.48-4.49,2.87-10.05,7.49-12.26h0Z"/>
    <path class="cls-1" d="M420.13,189.89c-.85,7.19-1.17,14.43-1.79,21.65-1.33,14.44-3.67,28.73-5.56,43.1,0,0-3.08,21.5-3.08,21.5l-.54-.44c1.08-.31,1.89.71,1.95,1.66.02.89-.36,1.59-.53,2.25-.36,1.31.02,2.75.43,4.14.08.24-.16.48-.4.41-1.79-.51-3.62-.93-5.45-.94-1.82-.02-3.69.49-4.9,1.91-.96,1.19-2.07.37-1.99-.96.45-2.79,1.98-5.36,3.62-7.62-1.51,2.3-2.93,4.89-3.32,7.62-.02.96.65,1.71,1.39.7.62-.74,1.43-1.34,2.35-1.69,2.75-1,5.76-.34,8.48.35,0,0-.4.41-.4.41-.45-1.43-.91-2.98-.52-4.51.2-.76.51-1.42.47-2.02-.01-.54-.58-1.11-.91-.93-.18.1-.41.03-.5-.15-.05-.09-.05-.19-.03-.29,0,0,2.92-21.52,2.92-21.52,1.82-14.12,4.37-28.85,5.93-43.02.63-6.24,1.4-15.45,2.38-21.59h0Z"/>
    <path class="cls-1" d="M408.48,276.78c-1.09-1.1-1.66-2-2.19-3.45,1.48.4,2.45,1.94,2.19,3.45h0Z"/>
    <path class="cls-1" d="M411.19,226.44c.33,1.25,0,2.35-.98,3.19-.34-1.25,0-2.34.98-3.19h0Z"/>
    <path class="cls-1" d="M410.67,284.38c-.07,4.68,1.73,9,4.35,12.8,1.17,1.96,2.49,4.71,1.08,6.97-.51.79-1.59.92-2.41.97-1.55.15-3.1.21-4.66.2-3.11-.07-6.21-.47-9.23-1.19-.19-.04-.33-.21-.34-.4-.35-6.11-.18-12.27.54-18.35-.21,6.1-.11,12.2.33,18.29,0,0-.34-.4-.34-.4,2.97.66,6.01,1.02,9.05,1.05,1.85.02,3.81,0,5.63-.26.3-.07.51-.21.69-.45,1.11-1.87-.07-4.23-1.02-6.04-2.49-3.88-4.2-8.53-3.69-13.18h0Z"/>
    <path class="cls-1" d="M415.86,303.79c-1.59-4.67-5.59-7.98-8.61-11.74-.8-.91-1.64-1.86-2.45-2.69-.4-.39-.84-.67-1.3-.66-1.7.23-2.3,2.36-2.76,3.86-.34,1.16-.47,2.38-.47,3.61-.22-1.22-.19-2.48,0-3.72.4-1.82.98-4.34,3.21-4.63,2.1.08,3.16,2.33,4.53,3.56,2.97,3.71,7.06,7.56,7.86,12.4h0Z"/>
    <path class="cls-1" d="M432.37,284.17c.48,2.05.94,4.34,1.34,6.42.16,1.09.68,2.39,0,3.49-.26.41-.71.65-1.09.78-2.88.82-5.83,1.12-8.81.97-1.07-.15-3.28.15-3.26-1.48,1.4-3.8,2.5-7.61,2.79-11.68.24,3.97-.56,8.04-1.88,11.75.01.18.15.19.34.26.48.12,1.52.14,2.06.18,2.83.1,5.75-.15,8.49-.83.62-.17.89-.56.93-1.23-.17-2.78-.72-5.82-.91-8.62h0Z"/>
    <path class="cls-1" d="M433.67,281.17c-3.42,1.46-7.24,2.01-10.97,1.67-.14-.01-.24-.15-.21-.29,1.85-10.3-2.32-20.37-2.39-30.67-.34-6.93,3.18-13.47,3.02-20.34-.21-10.26-5.06-20.19-3.85-30.54-.7,10.44,4.37,20.14,4.71,30.52.2,6.99-3.17,13.38-2.91,20.35.04,10.26,4.09,20.49,1.89,30.78,0,0-.21-.29-.21-.29,3.65.5,7.42.06,10.92-1.19h0Z"/>
    <path class="cls-1" d="M441.43,173.12c.43,9.09.11,18.21-.84,27.26-.74,9.2-3.23,17.99-4.26,26.91-.54,4.48-.5,9.01.2,13.47.71,4.48,1.43,9.13.66,13.67-1.26,9-5.68,17.48-4.65,26.73-1.47-9.14,2.81-17.92,3.88-26.83.64-4.52-.06-8.96-.8-13.44-1.64-9.1.2-18.27,2.11-27.16,2.52-13.39,3.73-26.99,3.69-40.62h0Z"/>
    <path class="cls-1" d="M429.86,276.15c-1.65.91-3.37,1.14-5.2.69,1.62-.91,3.4-1.14,5.2-.69h0Z"/>
    <path class="cls-1" d="M428.62,279.48c-1.71.68-3.45.69-5.16,0,1.71-.69,3.45-.68,5.16,0h0Z"/>
    <path class="cls-1" d="M407.99,279.52c-3.08.33-5.49,1.78-7.24,4.33.29-3.24,4.28-5.6,7.24-4.33h0Z"/>
    <path class="cls-1" d="M427.34,240.92c-.31-4.08-.5-7.95-.58-12.05,1.44,3.82,1.64,8.11.58,12.05h0Z"/>
    <path class="cls-1" d="M431.35,234.04c-2.31-3.45-4.51-6.66-6.9-10.06,3.37,2.4,5.87,6.06,6.9,10.06h0Z"/>
    <path class="cls-1" d="M428.09,190.43c-6.1-2.25-12.19-3.85-18.61-4.9,6.48-.35,13.14,1.41,18.61,4.9h0Z"/>
    <path class="cls-1" d="M395.92,183.68c-4.42.72-8.96.72-13.42.66-2.35.13-2.16,1.87-2.09,3.92.05,2.42.17,9.03.22,11.54.03,2.56-.03,5.13.71,7.49,1.48,4.82,6.7,7.89,11.66,7.31,2.21-.18,4.37-.95,6.24-2.14.12-.09.25-.2.24-.36,0-.13-.26-.27-.34-.1.06-.18.34-.08.37.09.03.18-.11.33-.24.42-1.82,1.36-3.98,2.23-6.23,2.56-5.25.81-10.97-2.32-12.58-7.52-.82-2.56-.78-5.21-.84-7.76-.02-2.53-.07-9.09-.08-11.54-.31-3.9,1.02-5,4.87-4.55,3.83.25,7.67.23,11.51-.03h0Z"/>
    <path class="cls-1" d="M395.55,186.41c-4.04.57-8.07.46-12.07-.35,4.04-.57,8.07-.45,12.07.35h0Z"/>
    <path class="cls-1" d="M383.59,183.48c1.56-10.09,3.64-20.16,7.16-29.77.89-2.4,1.84-4.77,2.96-7.08.29-.54.45-1.32,1.12-1.53.19-.09.53-.05.49.23,0-.27-.29-.27-.46-.16-.6.29-.66,1-.91,1.57-.88,2.39-1.72,4.79-2.48,7.22-3.1,9.71-5.25,19.67-7.88,29.52h0Z"/>
    <path class="cls-1" d="M390.21,183.34c.39-6.84,1.18-13.57,2.42-20.31.14,6.85-.68,13.68-2.42,20.31h0Z"/>
  </g>
  <g>
    <path class="cls-1" d="M480.35,62.41c2.86-3.12,4.77-6.55,5.93-10.62.31,4.22-2.17,8.67-5.93,10.62h0Z"/>
    <path class="cls-1" d="M482.96,52.46c3.34.79,5.39-2.57,6.04-5.37.82-2.87.81-6.04-1.24-8.38-3.08-4.16-12.35-6.88-15.86-2,1.41-3.02,5.4-3.47,8.36-3.09,3.15.39,6.25,1.91,8.28,4.47,1,1.25,1.75,2.84,1.86,4.48.26,4.09-2.2,11.51-7.45,9.89h0Z"/>
    <path class="cls-1" d="M472.01,35.63c-4.11-.92-8.76,1.87-9.42,6.09-.38,2.03-.16,4.21.09,6.35l.33,3.23c.14,1.03.38,2.17,1.34,2.76-1.09-.38-1.54-1.64-1.82-2.66-.73-4.21-2.31-9.15.43-13.02,2-2.72,5.9-4.06,9.05-2.74h0Z"/>
    <path class="cls-1" d="M464.88,50.23c.92,1.89,1.75,3.19,3.05,4.84-2.09-.37-3.62-2.8-3.05-4.84h0Z"/>
    <path class="cls-1" d="M467.23,47.83c.93,1.9,1.72,3.27,2.89,5.04-2.05-.58-3.42-2.98-2.89-5.04h0Z"/>
    <path class="cls-1" d="M486.39,47.79c-.65,2.84-3.45,5.16-6.37,5.25,2.5-1.51,4.42-3.08,6.37-5.25h0Z"/>
    <path class="cls-1" d="M478.81,49.29c-.06,1.33-.7,2.32-1.9,2.9.05-1.33.71-2.32,1.9-2.9h0Z"/>
    <path class="cls-1" d="M466.88,55.26c.61,2.37,1.11,4.76,1.53,7.17l-.55-.37c1.26-.35,2.54-.38,3.78-.37,3.73.07,7.47.81,10.87,2.34-2.42-.52-4.83-.92-7.25-1.15-2.38-.17-4.88-.41-7.21.04-.24.05-.47-.1-.52-.34-.31-2.42-.53-4.86-.65-7.32h0Z"/>
    <path class="cls-1" d="M482.58,64.17c.43,1.62.18,3.17-.74,4.57-.44-1.62-.18-3.17.74-4.57h0Z"/>
    <path class="cls-1" d="M467.71,62.25c-.74.7-1.1,1.67-1.46,2.59-1.08,3.73-4.02,4.21-7.44,3.64,0,0,.32-.29.32-.29.66,10.74,1.03,21.51,1.09,32.27.07,10.76-.12,21.53-.73,32.28-.03-14.38-.19-34.02-.5-48.4,0,0-.42-16.13-.42-16.13-.01-.18.15-.32.32-.29,3.27.62,5.98.39,7.19-3.15.41-.91.85-1.87,1.63-2.52h0Z"/>
    <path class="cls-1" d="M459.32,68.59c-1.52-.3-3.08-.37-4.6-.2l.13-.13c-.19,5.34.01,10.67.47,15.99,1.23,15.92,4.42,32.07,1.54,47.99,1.8-16.03-1.38-31.96-2.39-47.93-.3-5.35-.41-10.73.11-16.07,0-.07.06-.13.13-.13,1.56-.1,3.13.06,4.63.48h0Z"/>
    <path class="cls-1" d="M454.76,69.58c-3.68,2.09-7.55,3.89-11.36,5.67-.92.45-1.8.97-2.43,1.69-1.32,1.51-1.34,3.84-1.73,5.77-.21,1.04-.38,2.08-.62,3.12.06-2.12.18-4.24.41-6.37.13-1.06.46-2.23,1.22-3.13.75-.9,1.74-1.49,2.71-1.97,3.89-1.77,7.77-3.38,11.8-4.77h0Z"/>
    <path class="cls-1" d="M469.4,68.29c7.57-.6,15.19.2,20.89,5.73,1.72,1.65,4.64,2.35,5.45,4.81-.53-1.14-1.62-1.77-2.7-2.31-3.32-1.5-5.98-4.41-9.35-5.68-4.41-1.86-9.56-2.09-14.29-2.55h0Z"/>
    <path class="cls-1" d="M455.92,132.95c-2.18,1.23-4.94,1.36-7.22.33,2.5-.35,4.7-.44,7.22-.33h0Z"/>
    <path class="cls-1" d="M460.26,132.96c1.94.06,3.38.2,5.29.5-1.59,1.09-3.94.86-5.29-.5h0Z"/>
    <path class="cls-1" d="M459.71,133.49c1.45,1.83,3.11,3.37,5,4.74.31.25.66.63.76,1.12-.44,6.6-3.26,13.02-6.93,18.48-1.76,2.57-3.82,4.91-6.13,6.97.99-1.19,2.01-2.34,2.89-3.6,4.72-6.37,8.26-13.88,9.48-21.72-.03-.28-.21-.53-.48-.77-1.78-1.45-3.41-3.24-4.58-5.22h0Z"/>
    <path class="cls-1" d="M464.95,142.95c2.64,3.09.71,7.5.25,11.03-.34,1.86-.74,3.71-1.13,5.56-1.3,7.93-5.18,15.96-14.57,14.66-1.91-.21-3.75-.69-5.57-1.2-.19-.29.13-.73.43-.76-.3.08-.48.44-.38.7l-.04-.03c1.86.34,3.73.66,5.59.76,8.94.83,12.23-6.85,13.64-14.32.77-3.68,1.78-7.37,2.55-11.04.34-1.8.41-3.83-.79-5.36h0Z"/>
    <path class="cls-1" d="M460.4,138.57c-2.98,7.56-7.22,20.07-16.99,20.03,1.14-.16,2.25-.46,3.26-.97,5.27-2.5,7.71-8.16,10.45-12.99,0,0,3.28-6.07,3.28-6.07h0Z"/>
    <path class="cls-1" d="M464.35,164.74l-.93,16.4-.51,8.2c-.23,2.53.08,6.64-3.11,7.44,0,0,.29-.52.29-.52l1.19,2.71c.1.23-.04.5-.28.55-.82.19-1.13,1.37-1.23,2.4-.28,3.25-.53,6.84-.66,10.08-.19,4.49-.23,8.98-.14,13.47,0,.27-.21.49-.48.5-4.27-.36-8.72,1.64-11.21,5.16-.22.33-.77.23-.85-.16-4.34-18.4-4.77-37.74-1.05-56.28-1.51,9.3-2.13,18.74-1.8,28.15.35,9.4,1.57,18.77,3.78,27.91,0,0-.85-.16-.85-.16,2.67-3.78,7.39-6.01,12.02-5.59,0,0-.53.5-.53.5-.13-7.87.19-15.81.93-23.66.06-.58.16-1.18.42-1.76.24-.57.74-1.19,1.47-1.34l-.28.55-1.14-2.73c-.09-.19,0-.42.19-.5,2.73-.62,2.43-4.47,2.71-6.76.4-5.26,1.59-19.14,2.06-24.56h0Z"/>
    <path class="cls-1" d="M459.64,196.02c-4.12-.64-7.98.05-11.64,2.05,2.72-3.21,7.99-4.13,11.64-2.05h0Z"/>
    <path class="cls-1" d="M457.59,198.57c-2.97,1.31-5.39,2.81-7.91,4.86,1.36-2.94,4.67-4.97,7.91-4.86h0Z"/>
    <path class="cls-1" d="M458.84,226.26c1.51,2.72,1.1,6,.87,8.98-.49,5.37-1.15,12.86-1.71,18.14-.29,2.92-.33,7.16-3.82,8.17-2.21.74-5.48,1.15-6.73-1.34-1.45-3.64-1.24-7.69-1.04-11.49.49-6.07,1.06-12.1,1.7-18.15-.22,6.06-.62,12.14-.93,18.19,0,2.83-.61,11.23,2.52,12.21,1.26.39,2.8.06,4.16-.37,1.4-.42,2.25-1.5,2.6-2.89.85-4.37,1.03-9.04,1.67-13.48,0,0,1.1-9.04,1.1-9.04.38-2.97.91-6.11-.39-8.93h0Z"/>
    <path class="cls-1" d="M459.34,231.51c-1.96-1.39-4.97-1.06-6.44.8-1.31,1.6-1.63,4.88-2.12,6.86-.75,3.51-1.69,7.37-2.6,10.87-.34,1.2-.65,2.4-1.02,3.59.26-2.13.81-5.22,1.19-7.36.43-2.45.94-4.88,1.45-7.3.63-2.43.77-5.13,2.51-7.14,1.77-1.98,5.16-2.16,7.02-.31h0Z"/>
    <path class="cls-1" d="M464.13,175.11c1.06,16.27.78,32.6.2,48.88-.1,2.72-.17,5.42-.31,8.15-.17,2.7-.6,5.86-2.97,7.59,0,0,.11-.28.11-.28.6,4.08,2.5,7.99,5.42,11-3.09-2.82-5.25-6.72-5.99-10.91-.02-.11.03-.22.11-.28,2.14-1.67,2.42-4.62,2.51-7.17.46-18.54,1.07-38.49.92-56.99h0Z"/>
    <path class="cls-1" d="M461.21,247.26c.65,4.63,7.54,7.28,11.62,7.82,0,0-.54.42-.54.42.38-3.44.87-7.07,2.9-10.01.51-.75,1.14-1.35,1.54-2.03,1.01-2.25.8-5.04,1.34-7.46-.22,2.6.25,5.31-.73,7.79-.43.83-1.03,1.47-1.45,2.17-1.82,2.86-2.21,6.33-2.64,9.65-.03.27-.28.46-.54.42-4.23-.55-11.47-3.88-11.5-8.78h0Z"/>
    <path class="cls-1" d="M471.64,254.88c-.25,1.54.09,3.06.27,4.61.35,2.25-.49,5.61-3.26,5.91-2.43.18-4.73.09-7.11-.53-1.2-.37-2.31-.91-3.24-1.8-.38-.34-.47-1.06-.32-1.52,1.21-4.5,1.98-9.04,2.43-13.66.15,4.64-.43,9.36-1.51,13.86-.04.29-.09.45.1.66.76.7,1.8,1.21,2.82,1.5,2.09.58,4.54.71,6.71.62,2.37-.25,3.01-2.9,2.89-5.01-.02-1.52-.26-3.14.22-4.64h0Z"/>
  </g>
  <g>
    <path class="cls-1" d="M398.78,66.78c-3.21-.29-9.63-.94-12.82-1.29-2.09-.18-4.3-.08-5.97,1.02-1.53,1.02-2.66,3.31-1.6,4.98.18.26.03.63-.28.71-2.89.85-5.78,1.71-8.69,2.51l-4.35,1.23c-.72.22-1.33.46-1.62.99-1.79,6.42-2.92,13.21-4.64,19.7.98-5.97,2.1-11.9,3.23-17.84.2-1.06.43-2.67,1.62-3.25.7-.45,4.64-1.46,5.48-1.74,2.9-.87,5.81-1.69,8.73-2.5l-.28.71c-1.95-3.43,1.7-7.21,5.13-7.25,3.28-.22,6.47.61,9.69,1.02,0,0,6.37,1.03,6.37,1.03h0Z"/>
    <path class="cls-1" d="M366.91,87.06c-.57,13.41-.4,26.84.8,40.21,0,0-.34-.39-.34-.39,3.64.93,7.35,1.57,11.1,1.88,3.75.29,7.54.29,11.31-.04-3.74.6-7.55.83-11.35.65-3.8-.16-7.59-.69-11.29-1.62-.19-.05-.32-.21-.34-.39-1.37-13.38-1.43-26.93.1-40.3h0Z"/>
    <path class="cls-1" d="M389.19,131.02c-3.8,1.55-8.29,1.52-12.06-.1,4.11.25,7.95.29,12.06.1h0Z"/>
    <path class="cls-1" d="M397.5,73.3c-6.31.08-12.62-.52-18.8-1.8,6.35-.09,12.59.52,18.8,1.8h0Z"/>
    <path class="cls-1" d="M399.91,67.03c.99,2.05,1.31,4.23.94,6.48-.99-2.05-1.3-4.23-.94-6.48h0Z"/>
    <path class="cls-1" d="M400.89,53.05c-.55,2.9-.69,6.28-2.53,8.69-3.91,1.45-8.32,1.6-12.36.57-1.35-.38-2.64-1.1-3.52-2.17,1.06.89,2.35,1.35,3.66,1.61,4.02.58,8.08.36,11.96-.88,0,0-.27.21-.27.21,1.52-2.43,2.1-5.32,3.06-8.02h0Z"/>
    <path class="cls-1" d="M382.78,59.95c-1.96-5.03-4.26-16.79.02-20.93-2,3.08-1.41,6.84-1.29,10.31.21,3.55.7,7.06,1.26,10.62h0Z"/>
    <path class="cls-1" d="M383.47,38.5c-.78-1.06-.48-2.6.65-3.29.14,1.32-.02,2.12-.65,3.29h0Z"/>
    <path class="cls-1" d="M384.9,36.34c1.59-2.92,4.81-4.99,8.13-5.2-2.94,1.59-5.46,3.2-8.13,5.2h0Z"/>
    <path class="cls-1" d="M389.54,35.04c3.22-2.22,7.54-2.94,11.29-1.86-3.91.33-7.48.91-11.29,1.86h0Z"/>
    <path class="cls-1" d="M397.19,36.69c2.63-.7,6.23-.46,7.82,2.07-2.54-1.38-5.08-1.32-7.82-2.07h0Z"/>
    <path class="cls-1" d="M401.22,38.91c2.2.06,4.26,1.62,5.17,3.6.25.59.74,1.67.02,2.12.18-.33.04-.63-.12-.9-1.3-2.03-2.99-3.5-5.07-4.82h0Z"/>
    <path class="cls-1" d="M403.35,42.7c1.5,1.28,1.91,3.67.91,5.36-.42-1.93-.66-3.4-.91-5.36h0Z"/>
    <path class="cls-1" d="M403.55,46.53c1.05,1.4.41,3.73-1.21,4.38.5-1.66.79-2.7,1.21-4.38h0Z"/>
    <path class="cls-1" d="M401.62,52.29c-.28,1.34-1.53,2.25-2.89,2.08.8-1.12,1.57-1.67,2.89-2.08h0Z"/>
    <path class="cls-1" d="M382.21,57.03c1.33,2.32,1.78,5.06,1.25,7.68-.85-2.55-1.24-5-1.25-7.68h0Z"/>
    <path class="cls-1" d="M403.58,52.1c-.02,1-.12,2.09-.21,3.08-.05.56-.23,1.35-.87,1.63-.27.11-.51.09-.61.11-.13.04-.04,0-.09.06-.29.71-.6,1.54-.83,2.29-.83,2.55-1.3,5.19-1.62,7.93-.6-3.41,0-7.02,1.42-10.18.12-.26.27-.68.62-.85.38-.23.78.04,1.02-.28.52-1,.72-2.63,1.17-3.78h0Z"/>
    <path class="cls-1" d="M398.48,66.79c1.16-.69,2.1.88,2.13,1.88,0,0,.39,3,.39,3,.23,2,.51,3.98.61,6.05-1.28-2.81-1.77-5.92-1.78-8.99.04-.9-.22-2.07-1.35-1.94h0Z"/>
    <path class="cls-1" d="M363.73,93.36c.14,5.6.97,10.89,2.52,16.27-2.85-4.8-3.78-10.83-2.52-16.27h0Z"/>
    <path class="cls-1" d="M368.5,128.07c-.26,10.19-.47,20.39-.8,30.58-.45,10.2-.35,20.35.62,30.52.73,10.29-1.83,20.42-1.15,30.52.3,5.04,1.86,9.92,2.71,14.99.43,2.53.65,5.13.42,7.73-.03,1.15-.61,2.51-.2,3.56.45,1.09,2.3,2.41,1.26,3.76,0,0-.34-.66-.34-.66,4-.16,7.99-.68,11.89-1.56,0,0-.26.31-.26.31.27-8.41.9-25.31,1.23-33.72-.12,8.41-.39,25.33-.57,33.73,0,.15-.11.28-.26.31-3.94.94-7.96,1.52-12.01,1.73-.34.02-.56-.4-.34-.66.13-.17.15-.32.09-.54-.32-.87-1.07-1.42-1.49-2.36-.56-1.38.07-2.64.11-3.98.21-2.49-.01-5.01-.44-7.5-.85-4.98-2.44-9.9-2.78-15.07-.77-10.25,1.91-20.34,1.21-30.54-1.87-20.22.39-40.81,1.07-61.15h0Z"/>
    <path class="cls-1" d="M379.51,244.02c-2.06,1.74-4.99,2.4-7.59,1.7,2.61-.71,4.93-1.22,7.59-1.7h0Z"/>
    <path class="cls-1" d="M375.6,241.41c-1.47.75-3.39.27-4.33-1.09,1.66.13,2.81.42,4.33,1.09h0Z"/>
    <path class="cls-1" d="M376.08,193.48c-1.73-2.53-3.12-4.99-4.39-7.78,2.37,1.93,3.95,4.76,4.39,7.78h0Z"/>
    <path class="cls-1" d="M373.87,193.93c-1.46-1.17-2.34-2.7-2.6-4.55,1.46,1.17,2.33,2.7,2.6,4.55h0Z"/>
    <path class="cls-1" d="M382.76,247.69c.18,3.96.48,7.93.36,11.89-.18.79-1.1,1.12-1.69,1.36-1.97.83-4.15,1.15-6.27,1.03-2.99-.24-6.08-1.24-8.27-3.35-.2-.31-.17-.68-.11-.9.94-3.42,2.45-6.7,4.54-9.56-1.56,2.93-3.34,6.78-3.73,10.01,2.13,1.71,4.91,2.64,7.63,2.81,1.99.14,4.02-.16,5.87-.87.7-.31,1.3-.32,1.25-1.25.1-3.72.18-7.45.41-11.16h0Z"/>
    <path class="cls-1" d="M395.98,251.58c-.85.18-1.73.2-2.61.12-.24,0-.57-.3-.56-.55-.14-4.49.58-9,2.07-13.24.03-.09.1-.18.19-.2,1.11-.32,2.3-.19,3.26.32-1.05-.26-2.14-.16-3.06.24l.19-.2c-.57,2.66-1.07,5.32-1.46,8.01-.24,1.65-.44,3.35-.61,5.02,0,.05,0,.04,0,.05.8.32,1.73.36,2.6.43h0Z"/>
    <path class="cls-1" d="M395.54,237.72c-.19-1.01-.06-1.43.67-2.16.69.77.33,1.92-.67,2.16h0Z"/>
    <path class="cls-1" d="M400.08,234.35c-2.11-.3-4.24-.08-6.16.66-.29.12-.61-.2-.48-.49,1.28-2.96,1.48-6.19,1.43-9.38-.04-2.86-.17-6.91-.05-9.74.61,4.86,1.41,9.75.8,14.66-.23,1.64-.7,3.28-1.49,4.76l-.46-.52c2.1-.65,4.38-.64,6.4.05h0Z"/>
    <path class="cls-1" d="M401.61,231.02c-1.77.59-3.43.62-5.21.08,1.66-.83,3.53-.86,5.21-.08h0Z"/>
    <path class="cls-1" d="M394.51,234.88c.97.42,1.05.49,1.68,1.33-.86.68-2.14-.34-1.68-1.33h0Z"/>
  </g>
</svg>