<?xml version="1.0" encoding="UTF-8"?>
<svg id="Ebene_1" xmlns="http://www.w3.org/2000/svg" version="1.1" viewBox="0 0 300 134">
  <!-- Generator: Adobe Illustrator 29.1.0, SVG Export Plug-In . SVG Version: 2.1.0 Build 142)  -->
  <defs>
    <style>
      .st0 {
        fill: #fff;
      }

      .st1 {
        fill: #ea161f;
      }
    </style>
  </defs>
  <g>
    <path class="st0" d="M115.7,26v6.7l6.3-6.7h4.5l-6.3,6.4,7,9.8h-4.5l-4.9-7.3-2,2.1v5.2h-3.6v-16.2h3.6Z"/>
    <path class="st0" d="M128.6,34.1c0-.8.2-1.4.6-1.9.3-.5.8-.9,1.3-1.2.5-.3,1.1-.5,1.7-.6.6-.1,1.3-.2,1.9-.2s1.2,0,1.8.1c.6,0,1.2.2,1.7.5.5.2.9.6,1.2,1,.3.4.5,1,.5,1.7v6.1c0,.5,0,1,0,1.5,0,.5.2.8.3,1.1h-3.3c0-.2-.1-.4-.1-.6,0-.2,0-.4,0-.6-.5.5-1.1.9-1.8,1.1-.7.2-1.4.3-2.1.3s-1.1,0-1.6-.2c-.5-.1-.9-.3-1.3-.6-.4-.3-.6-.6-.9-1.1-.2-.4-.3-1-.3-1.6s.1-1.2.4-1.6c.2-.4.5-.8.9-1,.4-.3.8-.5,1.3-.6.5-.1,1-.2,1.4-.3.5,0,1-.1,1.4-.2.5,0,.9-.1,1.3-.2.4,0,.6-.2.9-.4.2-.2.3-.4.3-.8,0-.3,0-.6-.2-.8-.1-.2-.3-.4-.5-.5-.2-.1-.4-.2-.7-.2-.3,0-.5,0-.8,0-.6,0-1.1.1-1.5.4-.4.3-.6.7-.6,1.4h-3.2ZM136.1,36.5c-.1.1-.3.2-.5.3-.2,0-.4.1-.7.2s-.5,0-.7.1c-.3,0-.5,0-.8.1-.2,0-.5.1-.7.2-.2,0-.4.2-.6.3-.2.1-.3.3-.4.5-.1.2-.2.4-.2.8s0,.5.2.7c.1.2.2.4.4.5.2.1.4.2.6.2.2,0,.5,0,.7,0,.6,0,1.1-.1,1.5-.3.3-.2.6-.5.8-.8.2-.3.3-.6.3-.9s0-.5,0-.7v-1.2Z"/>
    <path class="st0" d="M145.6,30.5v1.6h0c.4-.7.9-1.2,1.6-1.5s1.3-.5,2-.5,1.6.1,2.1.4c.6.2,1,.6,1.3,1,.3.4.5.9.7,1.5.1.6.2,1.3.2,2v7.2h-3.2v-6.6c0-1-.2-1.7-.5-2.2-.3-.5-.8-.7-1.6-.7s-1.5.3-1.9.8c-.4.5-.6,1.4-.6,2.6v6.2h-3.2v-11.7h3.1Z"/>
    <path class="st0" d="M163.1,30.5v2.2h-2.4v5.8c0,.5,0,.9.3,1.1.2.2.5.3,1.1.3s.4,0,.5,0c.2,0,.3,0,.5,0v2.5c-.3,0-.6,0-.9,0-.3,0-.7,0-1,0-.5,0-1,0-1.4-.1-.4,0-.8-.2-1.2-.4-.3-.2-.6-.5-.8-.8-.2-.4-.3-.8-.3-1.4v-6.9h-2v-2.2h2v-3.5h3.2v3.5h2.4Z"/>
    <path class="st0" d="M165.2,33.8c.3-.8.7-1.4,1.2-2s1.2-1,1.9-1.3c.7-.3,1.6-.4,2.5-.4s1.8.1,2.5.4c.7.3,1.4.7,1.9,1.3s.9,1.2,1.2,2c.3.8.4,1.6.4,2.6s-.1,1.8-.4,2.5c-.3.8-.7,1.4-1.2,1.9-.5.5-1.2,1-1.9,1.2-.7.3-1.6.4-2.5.4s-1.8-.1-2.5-.4c-.7-.3-1.4-.7-1.9-1.2-.5-.5-.9-1.2-1.2-1.9-.3-.8-.4-1.6-.4-2.5s.1-1.8.4-2.6ZM168.1,37.7c0,.4.2.8.5,1.2.2.4.5.6.9.9.4.2.8.3,1.4.3s1-.1,1.4-.3c.4-.2.7-.5.9-.9.2-.4.4-.8.5-1.2,0-.4.1-.9.1-1.4s0-.9-.1-1.4c0-.5-.2-.9-.5-1.2-.2-.3-.5-.6-.9-.9-.4-.2-.8-.3-1.4-.3s-1,.1-1.4.3c-.4.2-.7.5-.9.9-.2.3-.4.7-.5,1.2,0,.5-.1.9-.1,1.4s0,.9.1,1.4Z"/>
    <path class="st0" d="M182.7,30.5v1.6h0c.4-.7.9-1.2,1.6-1.5s1.3-.5,2-.5,1.6.1,2.1.4c.6.2,1,.6,1.3,1,.3.4.5.9.7,1.5.1.6.2,1.3.2,2v7.2h-3.2v-6.6c0-1-.2-1.7-.5-2.2s-.8-.7-1.6-.7-1.5.3-1.9.8c-.4.5-.6,1.4-.6,2.6v6.2h-3.2v-11.7h3.1Z"/>
    <path class="st0" d="M207.9,26c.8,0,1.5,0,2.1.2.6.1,1.2.4,1.6.7.5.3.8.7,1.1,1.2.3.5.4,1.2.4,1.9s-.2,1.5-.6,2c-.4.5-.9,1-1.6,1.3,1,.3,1.7.8,2.2,1.5.5.7.7,1.6.7,2.6s-.2,1.5-.5,2.1c-.3.6-.7,1.1-1.3,1.5s-1.2.7-1.8.8c-.7.2-1.4.3-2.1.3h-7.9v-16.2h7.6ZM207.4,32.6c.6,0,1.2-.2,1.6-.5.4-.3.6-.8.6-1.5s0-.7-.2-.9c-.1-.2-.3-.4-.5-.6-.2-.1-.5-.2-.8-.3-.3,0-.6,0-.9,0h-3.3v3.8h3.6ZM207.6,39.5c.3,0,.7,0,1-.1.3,0,.6-.2.8-.3.2-.2.4-.4.6-.6.1-.3.2-.6.2-1,0-.8-.2-1.4-.7-1.8-.5-.4-1.1-.5-1.9-.5h-3.9v4.5h3.8Z"/>
    <path class="st0" d="M220,39.4c.5.5,1.2.7,2.1.7s1.2-.2,1.7-.5c.5-.3.8-.7.9-1h2.8c-.5,1.4-1.2,2.4-2.1,3-.9.6-2.1.9-3.4.9s-1.8-.1-2.5-.4c-.7-.3-1.4-.7-1.9-1.3-.5-.5-.9-1.2-1.2-2-.3-.8-.4-1.6-.4-2.5s.1-1.7.4-2.5c.3-.8.7-1.4,1.2-2,.5-.6,1.2-1,1.9-1.3.7-.3,1.5-.5,2.4-.5s1.9.2,2.6.6c.7.4,1.4.9,1.8,1.6.5.7.8,1.4,1,2.2.2.8.3,1.7.2,2.6h-8.5c0,1,.3,1.8.8,2.3ZM223.7,33.2c-.4-.4-1-.6-1.8-.6s-.9,0-1.3.3c-.3.2-.6.4-.8.6-.2.3-.3.5-.4.8s-.1.5-.1.8h5.2c-.2-.8-.4-1.4-.8-1.9Z"/>
    <path class="st0" d="M233.4,30.5v2.2h0c.2-.4.4-.7.6-1,.3-.3.6-.6.9-.8.3-.2.7-.4,1.1-.5.4-.1.8-.2,1.2-.2s.4,0,.7.1v3c-.2,0-.3,0-.5,0-.2,0-.4,0-.6,0-.6,0-1.1,0-1.5.3-.4.2-.7.5-1,.8-.3.3-.4.7-.5,1.2-.1.5-.2.9-.2,1.5v5.3h-3.2v-11.7h3.1Z"/>
    <path class="st0" d="M243,30.5v1.6h0c.4-.7.9-1.2,1.6-1.5s1.3-.5,2-.5,1.6.1,2.1.4c.6.2,1,.6,1.3,1,.3.4.5.9.7,1.5.1.6.2,1.3.2,2v7.2h-3.2v-6.6c0-1-.2-1.7-.5-2.2s-.8-.7-1.6-.7-1.5.3-1.9.8c-.4.5-.6,1.4-.6,2.6v6.2h-3.2v-11.7h3.1Z"/>
    <path class="st0" d="M122.5,59.1c-.2-.3-.5-.6-.8-.9-.3-.3-.7-.5-1.1-.6-.4-.1-.8-.2-1.3-.2-.8,0-1.5.2-2,.5-.6.3-1,.7-1.4,1.2-.3.5-.6,1.1-.8,1.8-.2.7-.2,1.4-.2,2.1s0,1.3.2,2c.2.6.4,1.2.8,1.7.3.5.8.9,1.4,1.2.6.3,1.2.5,2,.5s1.9-.3,2.6-1c.6-.7,1-1.5,1.1-2.6h3.5c0,1-.3,1.9-.7,2.8-.4.8-.9,1.5-1.5,2.1-.6.6-1.3,1-2.2,1.3-.8.3-1.7.5-2.7.5s-2.4-.2-3.4-.6c-1-.4-1.8-1-2.5-1.8-.7-.8-1.2-1.6-1.6-2.7-.4-1-.5-2.1-.5-3.3s.2-2.3.5-3.4c.4-1,.9-1.9,1.6-2.7.7-.8,1.5-1.4,2.5-1.8,1-.4,2.1-.7,3.4-.7s1.7.1,2.5.4c.8.3,1.5.6,2.1,1.1.6.5,1.1,1.1,1.6,1.8.4.7.7,1.6.8,2.5h-3.5c0-.4-.2-.8-.4-1.1Z"/>
    <path class="st0" d="M129,62.9c0-.8.2-1.4.6-1.9.3-.5.8-.9,1.3-1.2.5-.3,1.1-.5,1.7-.6.6-.1,1.3-.2,1.9-.2s1.2,0,1.8.1c.6,0,1.2.2,1.7.5s.9.6,1.2,1c.3.4.5,1,.5,1.7v6.1c0,.5,0,1,0,1.5,0,.5.2.8.3,1.1h-3.3c0-.2-.1-.4-.1-.6,0-.2,0-.4,0-.6-.5.5-1.1.9-1.8,1.1-.7.2-1.4.3-2.1.3s-1.1,0-1.6-.2c-.5-.1-.9-.3-1.3-.6-.4-.3-.6-.6-.9-1.1-.2-.4-.3-1-.3-1.6s.1-1.2.4-1.6c.2-.4.5-.8.9-1,.4-.3.8-.5,1.3-.6.5-.1,1-.2,1.4-.3.5,0,1-.1,1.4-.2.5,0,.9-.1,1.3-.2.4,0,.6-.2.9-.4.2-.2.3-.4.3-.8,0-.3,0-.6-.2-.8-.1-.2-.3-.4-.5-.5-.2-.1-.4-.2-.7-.2-.3,0-.5,0-.8,0-.6,0-1.1.1-1.5.4-.4.3-.6.7-.6,1.4h-3.2ZM136.4,65.3c-.1.1-.3.2-.5.3-.2,0-.4.1-.7.2s-.5,0-.7.1c-.3,0-.5,0-.8.1-.2,0-.5.1-.7.2s-.4.2-.6.3c-.2.1-.3.3-.4.5-.1.2-.2.4-.2.8s0,.5.2.7c.1.2.2.4.4.5.2.1.4.2.6.2.2,0,.5,0,.7,0,.6,0,1.1-.1,1.5-.3s.6-.5.8-.8c.2-.3.3-.6.3-.9,0-.3,0-.5,0-.7v-1.2Z"/>
    <path class="st0" d="M145.9,59.3v1.6h0c.4-.7.9-1.2,1.6-1.5s1.3-.5,2-.5,1.6.1,2.1.4c.6.2,1,.6,1.3,1,.3.4.5.9.7,1.5.1.6.2,1.3.2,2v7.2h-3.2v-6.6c0-1-.2-1.7-.5-2.2-.3-.5-.8-.7-1.6-.7s-1.5.3-1.9.8c-.4.5-.6,1.4-.6,2.6v6.2h-3.2v-11.7h3.1Z"/>
    <path class="st0" d="M163.4,59.3v2.2h-2.4v5.8c0,.5,0,.9.3,1.1.2.2.5.3,1.1.3s.4,0,.5,0,.3,0,.5,0v2.5c-.3,0-.6,0-.9,0-.3,0-.7,0-1,0-.5,0-1,0-1.4-.1s-.8-.2-1.2-.4c-.3-.2-.6-.5-.8-.8-.2-.4-.3-.8-.3-1.4v-6.9h-2v-2.2h2v-3.5h3.2v3.5h2.4Z"/>
    <path class="st0" d="M165.5,62.6c.3-.8.7-1.4,1.2-2,.5-.5,1.2-1,1.9-1.3.7-.3,1.6-.4,2.5-.4s1.8.1,2.5.4c.7.3,1.4.7,1.9,1.3.5.5.9,1.2,1.2,2,.3.8.4,1.6.4,2.6s-.1,1.8-.4,2.5c-.3.8-.7,1.4-1.2,1.9-.5.5-1.2,1-1.9,1.2-.7.3-1.6.4-2.5.4s-1.8-.1-2.5-.4c-.7-.3-1.4-.7-1.9-1.2-.5-.5-.9-1.2-1.2-1.9-.3-.8-.4-1.6-.4-2.5s.1-1.8.4-2.6ZM168.5,66.5c0,.4.2.8.5,1.2.2.4.5.6.9.9.4.2.8.3,1.4.3s1-.1,1.4-.3c.4-.2.7-.5.9-.9.2-.4.4-.8.5-1.2,0-.4.1-.9.1-1.4s0-.9-.1-1.4c0-.5-.2-.9-.5-1.2-.2-.3-.5-.6-.9-.9-.4-.2-.8-.3-1.4-.3s-1,.1-1.4.3c-.4.2-.7.5-.9.9-.2.3-.4.7-.5,1.2,0,.5-.1.9-.1,1.4s0,.9.1,1.4Z"/>
    <path class="st0" d="M183,59.3v1.6h0c.4-.7.9-1.2,1.6-1.5s1.3-.5,2-.5,1.6.1,2.1.4c.6.2,1,.6,1.3,1,.3.4.5.9.7,1.5.1.6.2,1.3.2,2v7.2h-3.2v-6.6c0-1-.2-1.7-.5-2.2-.3-.5-.8-.7-1.6-.7s-1.5.3-1.9.8c-.4.5-.6,1.4-.6,2.6v6.2h-3.2v-11.7h3.1Z"/>
    <path class="st0" d="M208.6,69.5c-.4.6-.9,1.1-1.5,1.4-.6.3-1.3.4-2.1.4s-1.7-.2-2.3-.5c-.7-.3-1.2-.8-1.6-1.4-.4-.6-.8-1.3-1-2-.2-.8-.3-1.5-.3-2.4s.1-1.5.3-2.3c.2-.7.5-1.4,1-1.9.4-.6,1-1,1.6-1.4s1.4-.5,2.3-.5,1.4.1,2,.4c.6.3,1.1.7,1.5,1.3h0v-5.9h3.2v16.2h-3.1v-1.5h0ZM208.4,63.7c0-.4-.2-.8-.5-1.2-.2-.3-.5-.6-.9-.8-.3-.2-.8-.3-1.3-.3s-1,.1-1.3.3c-.4.2-.7.5-.9.8-.2.3-.4.7-.5,1.2,0,.4-.1.9-.1,1.4s0,.9.2,1.4c.1.5.3.9.5,1.2.2.4.5.6.9.9.4.2.8.3,1.3.3s1-.1,1.3-.3c.4-.2.6-.5.9-.9.2-.4.4-.8.5-1.2,0-.5.1-.9.1-1.4s0-1-.1-1.4Z"/>
    <path class="st0" d="M218.3,68.2c.5.5,1.2.7,2.1.7s1.2-.2,1.7-.5c.5-.3.8-.7.9-1h2.8c-.5,1.4-1.2,2.4-2.1,3-.9.6-2.1.9-3.4.9s-1.8-.1-2.5-.4c-.7-.3-1.4-.7-1.9-1.3-.5-.5-.9-1.2-1.2-2-.3-.8-.4-1.6-.4-2.5s.1-1.7.4-2.5c.3-.8.7-1.4,1.2-2,.5-.6,1.2-1,1.9-1.3.7-.3,1.5-.5,2.4-.5s1.9.2,2.6.6c.7.4,1.4.9,1.8,1.6.5.7.8,1.4,1,2.2.2.8.3,1.7.2,2.6h-8.5c0,1,.3,1.8.8,2.3ZM221.9,62c-.4-.4-1-.6-1.8-.6s-.9,0-1.3.3c-.3.2-.6.4-.8.6-.2.3-.3.5-.4.8,0,.3-.1.5-.1.8h5.2c-.2-.8-.4-1.4-.8-1.9Z"/>
    <path class="st0" d="M242.6,54.8c.8,0,1.5,0,2.1.2.6.1,1.2.4,1.6.7.5.3.8.7,1.1,1.2.3.5.4,1.2.4,1.9s-.2,1.5-.6,2c-.4.5-.9,1-1.6,1.3,1,.3,1.7.8,2.2,1.5.5.7.7,1.6.7,2.6s-.2,1.5-.5,2.1c-.3.6-.7,1.1-1.3,1.5s-1.2.7-1.8.8c-.7.2-1.4.3-2.1.3h-7.9v-16.2h7.6ZM242.2,61.4c.6,0,1.2-.2,1.6-.5.4-.3.6-.8.6-1.5s0-.7-.2-.9c-.1-.2-.3-.4-.5-.6-.2-.1-.5-.2-.8-.3-.3,0-.6,0-.9,0h-3.3v3.8h3.6ZM242.4,68.2c.3,0,.7,0,1-.1.3,0,.6-.2.8-.3.2-.2.4-.4.6-.6.1-.3.2-.6.2-1,0-.8-.2-1.4-.7-1.8-.5-.4-1.1-.5-1.9-.5h-3.9v4.5h3.8Z"/>
    <path class="st0" d="M254.8,68.2c.5.5,1.2.7,2.1.7s1.2-.2,1.7-.5c.5-.3.8-.7.9-1h2.8c-.5,1.4-1.2,2.4-2.1,3-.9.6-2.1.9-3.4.9s-1.8-.1-2.5-.4c-.7-.3-1.4-.7-1.9-1.3-.5-.5-.9-1.2-1.2-2-.3-.8-.4-1.6-.4-2.5s.1-1.7.4-2.5c.3-.8.7-1.4,1.2-2,.5-.6,1.2-1,1.9-1.3.7-.3,1.5-.5,2.4-.5s1.9.2,2.6.6c.7.4,1.4.9,1.8,1.6.5.7.8,1.4,1,2.2.2.8.3,1.7.2,2.6h-8.5c0,1,.3,1.8.8,2.3ZM258.4,62c-.4-.4-1-.6-1.8-.6s-.9,0-1.3.3c-.3.2-.6.4-.8.6-.2.3-.3.5-.4.8,0,.3-.1.5-.1.8h5.2c-.2-.8-.4-1.4-.8-1.9Z"/>
    <path class="st0" d="M268.1,59.3v2.2h0c.2-.4.4-.7.6-1,.3-.3.6-.6.9-.8.3-.2.7-.4,1.1-.5.4-.1.8-.2,1.2-.2s.4,0,.7.1v3c-.2,0-.3,0-.5,0-.2,0-.4,0-.6,0-.6,0-1.1,0-1.5.3-.4.2-.7.5-1,.8-.3.3-.4.7-.5,1.2-.1.5-.2.9-.2,1.5v5.3h-3.2v-11.7h3.1Z"/>
    <path class="st0" d="M277.7,59.3v1.6h0c.4-.7.9-1.2,1.6-1.5s1.3-.5,2-.5,1.6.1,2.1.4c.6.2,1,.6,1.3,1,.3.4.5.9.7,1.5.1.6.2,1.3.2,2v7.2h-3.2v-6.6c0-1-.2-1.7-.5-2.2-.3-.5-.8-.7-1.6-.7s-1.5.3-1.9.8c-.4.5-.6,1.4-.6,2.6v6.2h-3.2v-11.7h3.1Z"/>
    <path class="st0" d="M292.3,68.2c.5.5,1.2.7,2.1.7s1.2-.2,1.7-.5c.5-.3.8-.7.9-1h2.8c-.5,1.4-1.2,2.4-2.1,3-.9.6-2.1.9-3.4.9s-1.8-.1-2.5-.4c-.7-.3-1.4-.7-1.9-1.3-.5-.5-.9-1.2-1.2-2-.3-.8-.4-1.6-.4-2.5s.1-1.7.4-2.5c.3-.8.7-1.4,1.2-2,.5-.6,1.2-1,1.9-1.3.7-.3,1.5-.5,2.4-.5s1.9.2,2.6.6c.7.4,1.4.9,1.8,1.6.5.7.8,1.4,1,2.2.2.8.3,1.7.2,2.6h-8.5c0,1,.3,1.8.8,2.3ZM295.9,62c-.4-.4-1-.6-1.8-.6s-.9,0-1.3.3c-.3.2-.6.4-.8.6-.2.3-.3.5-.4.8,0,.3-.1.5-.1.8h5.2c-.2-.8-.4-1.4-.8-1.9Z"/>
  </g>
  <g>
    <path class="st0" d="M17.1,14.2c0,.9-.7,1.5-1.6,1.5s-1.6-.7-1.6-1.6.7-1.6,1.6-1.6,1.5.8,1.5,1.6M31.3,9.3c-.3.8-.7,1.6-1.4,2.1.7-.2,1.6-.5,2.5-.2,1.1.3,2.1,1.3,2.3,2.4.2,1.4-.2,2.7-1.4,3.6-.9.6-2.2.8-3.2.3l-.8-.5c.3,1.6,1.8,3.1,3.3,3.9,1.8.9,4.4.8,6.1-.2,1.2-.6,2.2-1.9,2.8-3.1.6,1.7,2.5,3.4,4.5,3.7,2.3.3,4.6-.4,5.9-2.5.3-.5.7-1.1.9-1.6-.6.3-1.6.5-2.3.3-1-.3-1.9-1.4-2.1-2.4-.3-1.4.3-2.8,1.6-3.6.6-.3,1.4-.6,2.1-.2h0c-.8-.8-1-1.8-.8-2.9.5-1.8,2.2-2.9,3.4-4.4-1.1,2.6-.8,5.7-.9,8.7v13.3H3.3v-14.1c0-3.1-.3-6.5-1-7.9,1.6,1.8,4,3.4,3.5,6-.3.4-.4.9-.9,1.3.7-.3,1.8-.1,2.5.4,1.1.9,1.6,2.3,1.3,3.7-.3,1-1.3,2.1-2.3,2.3-.7,0-1.4,0-2-.4.1.7.6,1.4,1.1,2,1.3,1.8,3.3,2.2,5.4,2.1,2-.2,4.1-1.7,4.7-3.7,1,2.4,3.6,4,6.2,4,2.7,0,5.2-2,6.1-4.5,0,0,0,0,0-.1-.8.6-1.8.9-2.9.7-1.1-.1-2.1-1.3-2.5-2.3-.3-1.4,0-2.8,1.3-3.7.9-.6,2.4-.7,3.4-.3-1.4-1.1-1.8-2.7-1.4-4.3.3-1.5,2-2.5,2.7-3.8,1.4,1.8,3.5,3.5,2.8,6M57.1.2c-2.6,1.7-5.5,3.6-7.3,6.4-.6.9-.7,2.3-.4,3.2-.6,0-1.2.4-1.6.8-1.4,1.3-1.7,3.3-1.3,5,.3,1.4,1.5,2.9,3,3.2-.8.6-2,.7-3,.5-1.3-.2-2.4-1.3-3-2.3,1-.5,1.9-1.6,1.9-2.8,0-1.2-.6-2.1-1.4-2.9-1.2-.9-3-.8-4.2,0-1.2.8-1.7,2-1.6,3.4.1.9.7,1.9,1.6,2.3-.4.7-1.1,1.4-1.8,2-1.3.8-3.4,1-4.7,0,.5,0,1-.3,1.5-.5,1.6-1,2.1-2.6,2.2-4.3,0-1.8-1.1-3.6-2.7-4.3-.4-.1-.7-.2-1.1-.3.4-.5.4-1.1.6-1.7,0-3.2-3.5-5.1-5.1-7.6h0c-1.3,2.4-4.1,3.8-4.9,6.4-.2,1-.1,2.2.4,3-.5.1-1,.3-1.5.5-1.7,1.1-2.4,2.9-2.2,4.7.1,1.6,1,3.3,2.7,3.9.3,0,.7.2,1,.3-.6.4-1.3.6-2.1.6-1.9.2-3.5-1.2-4.3-2.7,1.1-.5,1.5-1.6,1.6-2.7,0-1.2-.6-2.2-1.6-3-1.2-.7-2.9-.9-4.1,0-1,.8-1.7,1.8-1.6,3.2,0,1.1.9,2.2,1.8,2.7-.4.7-1,1.4-1.7,1.8-1.3.6-3.2.9-4.3,0,.6-.2,1.3-.5,1.8-1,1.5-1.4,1.6-4,.9-5.8-.5-1.1-1.6-2.1-2.7-2.3.6-1.3,0-2.7-.7-3.8C4.9,3.7,2.3,1.6,0,.4c1,3.6,1.3,8.1,1.3,12.8v14.8h54.6v-13.1c0-5.1.1-10.2,1.2-14.7M43.1,14.1c0,.9-.7,1.5-1.6,1.5s-1.6-.7-1.6-1.6.7-1.6,1.6-1.6,1.5.8,1.5,1.6"/>
    <path class="st0" d="M3.3,62.2v5.3c.4,9.3,5.6,18.8,14.5,22.7,7.3,3.8,17.8,2.9,24.4-1.6L3.3,62.2ZM19.6,31.9l34.2,23v-23H19.6ZM55.9,69.4c-.7,9.5-7,18.8-16.1,22.7-8.5,4.1-20.3,2.7-27.6-3-6.7-5.2-10.5-12.4-11-20.6V29.9h54.6v39.5ZM15.9,31.9H3.3v27.6s40.7,27.8,40.7,27.8c6.7-5.7,9.7-14.1,9.7-18.4v-11.5L15.9,31.9Z"/>
    <path class="st0" d="M18.1,40.3c0-.3.2-.6.5-.7h.6c0,0,2.8,1.6,2.8,1.6l.3.4c.2-.5.1-1.2.8-1.5.6-.2,1.4-.2,1.8.2.4.4.6,1,.5,1.6-.1.3-.5.6-.8.8,1.9.5,3.5,1.7,5.3,2.6.5.3.6.8.4,1.3l-.3.3c.2.2.6.3.9.5l14.7,9.9c2.3,1.2,2.1,3.7,2.5,5.7-.6,0-1.4-.2-2.1-.4,0,.2,0,.5.1.7l1.1,11.2c-.1,1.2-1.1,2-1.8,2.9l-2.3,2.8-4.9-3.2c.9-1.1,2-2.1,3.4-2,.7,0,1.5,0,2.1.1-.8-.3-1.6-.6-2.1-1.5-1.5-2.7-3.5-5.1-4.5-8-.5-1.6,0-3.2.7-4.6-.1,0-.2,0-.4,0-1.5-.2-3-.6-4.5-.6l3.3,2c-.7,2.5.3,4.9,1.6,6.8l-2,4.7c-.3.6-1.1.4-1.6.4l-4.5-.6c-.1-1.9.2-3.8.2-5.8,1.6.4,3.1,1.6,4,3.1v-.3l-4.2-6.8c-.7-1.4-.1-2.8.7-3.9,0,0-.9,0-1.4-.3-.5.5-5.2,6.9-5.2,6.9-.4.3-1.1.2-1.5.1l-4.6-.7.2-5.8c1.6.4,3.1,1.6,3.9,3-.5-3.2,0-6.6-.2-10-.3-.9-.6-1.8-1.4-2.5l-7.8-5.5v-1.8c1.1.7,2.2,2.2,3.6,1.5.5-.4.6-1.1.4-1.7l-.3-.4-3.7-2.6c-.3-1.1.3-2.5-.4-3.5,2,1,4,2.2,5.9,3.4M9,37.9c-.4.4-.5.9-.4,1.5,0,.6.7,1.1,1.1,1.4l5.8,4v-.6c-1.6-1.2-3.2-2.3-4.7-3.5-.6-.4-.6-1-.8-1.5,0-.7.4-1.4,1.1-1.7-.7,0-1.5,0-2.1.5M9.5,46.1c.4.6.7,1.3,1.3,1.8l.6-.5c-.4-.8-1.3-.7-1.8-1.3M8.5,46.9l1.2,1.8c.3,0,.5-.3.7-.5-.4-.7-1.2-.9-1.9-1.3M7.6,47.7l1.2,1.8.6-.6c-.4-.7-1.2-.8-1.8-1.1M12,48.1c-1.5,1.1-3,2.4-4.4,3.6.9,1.5,2,2.9,3,4.4.3.6.9.9,1.5,1.1,2.9.6,5.9.9,8.7,1.4-.2-2.5.8-5.5-1.5-7.2l-6.2,1.4c-.3,0-.5.4-.8.3.5-1.2.7-2.8.2-4.1l-.6-1ZM6.6,48.5c.4.6.8,1.3,1.3,1.8l.6-.5c-.4-.7-1.2-.9-1.9-1.3M5.8,49.3l1.1,1.7c.3-.1.5-.3.7-.6-.5-.7-1.2-.9-1.8-1.1M17.1,60.4c-.8,0-1.5.3-2.1.5.7.1,1.4.2,2.1.3v-.8ZM14.9,62.2c.7,0,1.4.3,2.1.2,0-.3,0-.6,0-.8-.8,0-1.5.4-2.1.6M16.9,62.8c-.8,0-1.4.3-2.1.6l2.1.3v-.9ZM16.9,64c-.9-.1-1.5.3-2.1.6.7.1,1.4.3,2.1.3v-.8ZM16.9,65.2c-.8-.2-1.4.3-2.1.6.6.2,1.5.2,2.1.3v-.8ZM27,68.6c.7.2,1.5.2,2.1.3,0-.3,0-.6,0-.8-.8,0-1.6.3-2.1.6M29.1,69.2c-.8,0-1.5.3-2.1.6.7.1,1.4.3,2.1.3v-.9ZM26.9,71c.7.1,1.4.4,2.1.3,0-.3,0-.6,0-.8-.9-.2-1.4.4-2.1.6M28.9,71.7c-.8,0-1.4.4-2.1.6l2.2.3v-.9ZM28.9,72.9c-.8,0-1.5.3-2.1.6l2.1.3v-.9ZM37.7,78c-.5.6-.4,1.6-.6,2.1.4-.5.9-1.1,1.3-1.6-.2-.2-.5-.3-.8-.4M38.7,78.7c-.5.6-.4,1.6-.5,2.1.5-.5.7-1,1.2-1.5.2-.4-.5-.5-.7-.7M39.8,79.4c-.6.6-.5,1.4-.6,2.1l1.3-1.6c-.3-.2-.5-.4-.8-.5M40.8,80.1c-.6.6-.5,1.4-.6,2.1l1.3-1.7c-.2-.2-.5-.3-.8-.4M41.8,80.7c-.4.6-.5,1.4-.6,2.1.4-.6.9-1.1,1.3-1.7-.2-.1-.4-.4-.7-.4M19.2,42.7c.4,0,.7-.3.7-.7s-.3-.7-.7-.7-.7.3-.7.7.3.7.7.7"/>
  </g>
  <rect class="st1" x="1.3" y="121.8" width="109.2" height="12"/>
</svg>