<?xml version="1.0" encoding="UTF-8"?>
<svg id="Ebene_1" xmlns="http://www.w3.org/2000/svg" version="1.1" viewBox="0 0 1000 700">
  <!-- Generator: Adobe Illustrator 29.1.0, SVG Export Plug-In . SVG Version: 2.1.0 Build 142)  -->
  <defs>
    <style>
      .st0 {
        stroke-dasharray: 7;
      }

      .st0, .st1, .st2, .st3, .st4, .st5 {
        fill: none;
      }

      .st0, .st4 {
        stroke: #e2377f;
        stroke-width: 3px;
      }

      .st6, .st7 {
        isolation: isolate;
      }

      .st1 {
        stroke-miterlimit: 4;
        stroke-width: 1px;
      }

      .st1, .st2, .st5 {
        stroke: #fff;
      }

      .st2 {
        stroke-miterlimit: 4;
        stroke-width: 1px;
      }

      .st3 {
        stroke: #d5dff0;
      }

      .st7 {
        font-family: DINAlternate-Bold, 'DIN Alternate';
        font-size: 52px;
        font-weight: 700;
      }

      .st7, .st8 {
        fill: #fff;
      }

      .st9 {
        fill: #ffff32;
      }

      .st10 {
        fill: #ff3;
      }
    </style>
  </defs>
  <g id="iPhone_14_Pro_Max_9">
    <g id="location">
      <path id="Pfad_8" class="st10" d="M291.5,60.1c-25.3,0-45.7,20.5-45.8,45.8,0,24.3,41.5,81.1,43.3,83.5l1.7,2.2c.3.5,1,.6,1.4.2,0,0,.2-.1.2-.2l1.6-2.2c1.8-2.4,43.3-59.2,43.3-83.5,0-25.3-20.5-45.7-45.8-45.8ZM291.5,89.5c9.1,0,16.4,7.3,16.4,16.4s-7.3,16.4-16.4,16.4-16.4-7.3-16.4-16.4c0-9.1,7.3-16.4,16.4-16.4Z"/>
    </g>
    <path id="Pfad_9" class="st3" d="M28.9,55s54.4,15.2,106.8,16.4c23.7.5,46.1-32.7,64.5-16.4,10.8,9.6,15.6,101.6,26.4,115.9,17,22.5,69.5,15.6,84.5,26.4,24,17.3,16.9,39.9,16.9,39.9,0,0-9.3,26.3-3.3,30.9,8.2,6.2,18,7.7,32.9,22.6,29,29,70.7,56,110.7,31.3,25.7-15.9,66.6-42.2,94.4-53.9,50.1-21,85.7-19,112.5,0,9.7,6.9,48,25.5,52.7,42.8,14.6,54.8-21.1,142.2,16.5,169.2,49.1,35.3,136.3,180.5,151.5,182.5"/>
    <path id="Pfad_10" class="st3" d="M0,622.9s126-205.6,198.2-149.5,114.1,73.1,156.8,149.5,147.9-59.5,147.9-59.5c0,0-10.5-46.7,26.5-90,15.2-17.8,47.7-17.2,70.1-33.9,21.1-15.8,54.3,2.8,73-13.1,23.8-20.2,31.6-73.1,45.8-75.5,63.1-10.5,247.7,0,247.7,0"/>
    <path id="Pfad_11" class="st3" d="M388.7,646.3s-215.8,130.8-204.3,249.6-160.7,245-160.7,245"/>
    <path id="Pfad_12" class="st3" d="M842.7,1017s-77.1-101-119.1-72.7-84.2-74.8-84.2-74.8c0,0-12.6-83.6-23.1-98.2s-49.5,0-49.5,0c0,0-18.5,40.9-80.8,13.5s-98.6-138.4-98.6-138.4c0,0,8.9-163.3-19.2-148.5s-38.6-34.6-38.6-34.6l-21.8-35.5s21.8-26.3,21.8-58.9,75.8-43.9,75.8-43.9c0,0,71-40,80.5-136.4s111.3-124.7,119.4-113.5,6.3,52.2,34.1,37.8,16.1-79.9,64.1-93.8,72.4-95.5,87.6-60.9,108.9-42.2,108.9-42.2"/>
    <g id="Ellipse_3">
      <circle class="st9" cx="337" cy="478" r="19"/>
      <circle class="st4" cx="337" cy="478" r="17.5"/>
    </g>
    <g id="YOU" class="st6">
      <text class="st7" transform="translate(396.8 434)"><tspan x="0" y="0">YOU</tspan></text>
    </g>
    <path id="Pfad_14" class="st5" d="M364.5,463.6l32.8-25.3"/>
    <path id="Pfad_15" class="st0" d="M291.5,192s42.1,4.6,35.1,44.7-6.2,25.8,23.9,47.9,40.9,39.3,54.2,39.9-72.3,7.6-74.7,41.2c-2.4,33.6-21.4,61.9-21.4,61.9l21.4,36.5"/>
    <g id="Gruppe_17">
      <circle id="Ellipse_4" class="st8" cx="658" cy="428" r="22"/>
      <circle id="Ellipse_5" class="st8" cx="642" cy="412" r="11"/>
      <ellipse id="Ellipse_6" class="st8" cx="675.5" cy="412" rx="12.5" ry="11"/>
    </g>
    <g id="Gruppe_18">
      <ellipse id="Ellipse_4-2" class="st8" cx="135.5" cy="68" rx="22.5" ry="22"/>
      <ellipse id="Ellipse_5-2" class="st8" cx="119.5" cy="52" rx="11.5" ry="11"/>
      <ellipse id="Ellipse_6-2" class="st8" cx="152.5" cy="52" rx="12.5" ry="11"/>
    </g>
    <g id="Gruppe_50">
      <path id="Pfad_19" class="st2" d="M411.6,603.9l8.1-14.1"/>
      <g id="Gruppe_49">
        <g id="Gruppe_16">
          <circle id="Ellipse_4-3" class="st8" cx="397.7" cy="645" r="22.3"/>
          <circle id="Ellipse_5-3" class="st8" cx="381.3" cy="628.7" r="11.2"/>
          <ellipse id="Ellipse_6-3" class="st8" cx="414.9" cy="628.7" rx="12" ry="11.2"/>
        </g>
        <path id="Pfad_18" class="st5" d="M396.7,599.8v-16.2"/>
        <path id="Pfad_20" class="st2" d="M381.9,603.9l-8.1-14.1"/>
        <path id="Pfad_21" class="st1" d="M371.6,612l-14.1-8.1"/>
        <path id="Pfad_22" class="st1" d="M422.9,612l14.1-8.1"/>
      </g>
    </g>
  </g>
</svg>